<svg xmlns="http://www.w3.org/2000/svg" viewBox="0 0 720 620" aria-hidden="true">
  <path fill="none" stroke="#fff" stroke-width="54" stroke-linecap="round" stroke-linejoin="round" stroke-opacity=".42" d="M356 42c83-5 172 17 229 78 56 60 77 143 55 224-22 82-88 151-171 178-90 29-197 14-269-43-71-56-107-150-79-237C149 155 248 69 356 42Z"/>
  <path fill="none" stroke="#fff" stroke-width="31" stroke-linecap="round" stroke-linejoin="round" stroke-opacity=".64" d="M331 69c91-21 194 4 254 71 59 66 63 161 22 238-42 78-129 130-220 135-96 5-193-40-239-116-45-73-33-169 29-235 37-40 89-75 154-93Z"/>
  <path fill="none" stroke="#fff" stroke-width="18" stroke-linecap="round" stroke-linejoin="round" stroke-opacity=".9" d="M386 73c84 14 162 61 202 131 39 69 30 155-21 219-53 66-142 102-228 89-91-13-172-76-199-158-25-77 3-165 69-219 48-39 109-73 177-62Z"/>
  <path fill="#fff" d="M350 87c76-6 159 8 213 62 52 52 75 134 57 212-18 77-75 145-151 172-80 28-181 18-251-26-73-46-114-129-104-213 10-83 70-157 145-188 28-12 58-17 91-19Z"/>
  <path fill="#fff" fill-opacity=".94" d="M314 53c88-13 189 4 252 66 59 59 72 148 44 227-28 80-96 143-180 166-92 26-197 4-263-54-63-56-91-148-59-232 31-82 107-145 206-173Z"/>
  <path fill="#fff" fill-opacity=".86" d="M379 45c92 11 178 56 221 128 41 68 36 152-6 222-43 71-121 119-207 128-93 10-191-23-244-90-50-64-54-153-13-225 42-74 134-139 249-163Z"/>
  <path fill="#fff" fill-opacity=".78" d="M272 91c82-42 196-53 274-4 77 48 112 146 83 234-29 89-116 156-208 174-99 20-200-16-251-89-51-72-46-174 13-244 24-29 54-51 89-71Z"/>
  <path fill="#fff" fill-opacity=".68" d="M398 72c88 22 165 84 187 164 24 84-14 175-86 228-74 54-178 68-267 31-83-35-139-115-136-196 4-86 70-166 153-203 44-20 94-35 149-24Z"/>
  <path fill="#fff" fill-opacity=".56" d="M293 30c42-22 140-9 185 7 81 30 142 96 157 178 14 78-20 163-92 211-70 47-171 55-251 22-75-31-132-96-143-170-13-85 35-185 144-248Z"/>
  <path fill="#fff" fill-opacity=".5" d="M221 144c57-68 157-108 245-85 91 23 163 103 170 192 6 85-52 171-135 213-85 43-193 38-269-15-75-52-112-146-87-232 10-33 32-57 76-73Z"/>
</svg>
