<?xml version="1.0" standalone="no"?>
<!DOCTYPE svg PUBLIC "-//W3C//DTD SVG 20010904//EN"
 "http://www.w3.org/TR/2001/REC-SVG-20010904/DTD/svg10.dtd">
<svg version="1.0" xmlns="http://www.w3.org/2000/svg"
 width="300.000000pt" height="290.000000pt" viewBox="0 0 300.000000 290.000000"
 preserveAspectRatio="xMidYMid meet">

<g transform="translate(0.000000,290.000000) scale(0.100000,-0.100000)"
fill="#000000" stroke="none">
<path d="M873 2585 c-73 -40 -117 -72 -156 -114 -48 -52 -56 -69 -80 -153 -17
-57 -27 -119 -27 -157 0 -57 5 -73 45 -146 69 -127 167 -195 302 -210 72 -8
147 8 190 41 17 13 39 24 47 24 26 0 18 27 -12 39 -24 10 -36 8 -92 -20 -63
-32 -64 -32 -148 -22 -74 9 -87 14 -117 43 -18 18 -40 51 -48 74 -9 22 -25 68
-37 101 -21 56 -22 66 -11 154 13 108 29 139 100 203 40 36 62 47 122 61 204
48 359 -10 481 -179 31 -44 62 -92 67 -107 18 -46 41 -156 41 -192 0 -76 -69
-212 -154 -302 -63 -69 -346 -190 -451 -194 -53 -3 -229 25 -274 43 -14 6 -41
14 -59 18 -67 16 -25 -15 94 -70 119 -54 119 -54 234 -58 106 -3 122 -1 206
26 69 22 106 41 149 76 31 25 61 46 67 46 5 0 41 30 78 66 l68 65 -24 -83
c-37 -127 -40 -179 -14 -276 31 -114 117 -227 230 -299 30 -20 69 -48 87 -63
17 -15 68 -40 113 -55 69 -23 100 -27 203 -29 l122 -1 128 59 c70 32 127 63
127 67 0 13 -14 11 -78 -10 -70 -24 -221 -51 -283 -51 -97 0 -392 125 -455
192 -88 95 -154 226 -154 305 0 57 24 162 46 206 53 104 158 212 254 262 52
27 206 32 290 10 88 -23 114 -40 165 -107 37 -50 45 -67 51 -125 5 -38 8 -88
7 -113 -1 -52 -63 -213 -95 -247 -28 -30 -75 -44 -156 -46 -56 -2 -75 2 -116
26 -56 31 -73 33 -104 11 -20 -14 -22 -42 -2 -29 4 2 19 -4 33 -15 45 -36 94
-50 170 -50 105 0 161 20 240 85 55 45 74 70 107 135 51 101 53 155 11 295
-27 92 -33 101 -92 161 -35 35 -67 64 -72 64 -4 0 -44 21 -89 46 l-81 46 -93
-4 c-87 -4 -99 -7 -181 -48 -59 -30 -109 -66 -153 -107 -35 -35 -65 -63 -66
-63 -1 0 4 21 12 47 19 64 18 96 -11 209 -49 193 -139 328 -268 406 -108 65
-151 80 -247 85 l-85 4 -102 -56z"/>
<path d="M1165 2390 c-3 -5 -3 -25 0 -43 7 -37 -29 -130 -78 -202 l-25 -37
-22 96 -22 96 23 19 c20 16 22 22 12 44 -11 24 -15 25 -88 21 -85 -4 -105 -14
-105 -53 0 -23 6 -28 44 -39 37 -9 46 -17 59 -49 8 -21 18 -58 22 -83 11 -72
46 -204 56 -215 15 -15 54 41 79 110 12 33 37 85 55 115 18 30 42 74 54 98 14
28 28 42 41 42 21 0 39 45 24 59 -9 8 -93 31 -113 31 -5 0 -13 -4 -16 -10z"/>
<path d="M1983 1933 c-19 -7 -16 -72 3 -80 40 -15 73 49 38 74 -19 14 -22 14
-41 6z"/>
<path d="M1892 1818 c-23 -23 -13 -47 24 -63 l37 -15 -7 -90 c-8 -113 -16
-134 -56 -150 -25 -10 -30 -18 -28 -39 3 -24 7 -27 77 -35 62 -7 76 -6 90 8
15 16 14 20 -10 64 l-25 47 18 129 c10 71 16 136 14 143 -7 17 -117 18 -134 1z"/>
<path d="M377 723 c-4 -3 -7 -48 -7 -100 l0 -93 69 0 c92 0 126 33 87 85 -11
16 -11 21 0 33 19 19 17 39 -6 62 -15 15 -33 20 -78 20 -32 0 -62 -3 -65 -7z
m113 -53 c0 -16 -7 -20 -35 -20 -28 0 -35 4 -35 20 0 16 7 20 35 20 28 0 35
-4 35 -20z m5 -70 c11 -18 -15 -40 -46 -40 -24 0 -29 4 -29 25 0 22 4 25 34
25 19 0 38 -5 41 -10z"/>
<path d="M1310 630 c0 -89 2 -100 18 -100 15 0 17 10 14 100 -3 79 -6 100 -18
100 -11 0 -14 -20 -14 -100z"/>
<path d="M1491 704 c-78 -66 -31 -180 73 -178 31 1 46 8 68 33 85 95 -43 228
-141 145z m118 -45 c29 -52 -30 -122 -78 -92 -40 25 -44 92 -8 115 24 16 71 4
86 -23z"/>
<path d="M1970 630 c0 -82 3 -100 15 -100 11 0 15 11 15 39 0 55 8 71 36 71
22 0 24 -4 24 -55 0 -48 2 -55 20 -55 18 0 20 7 20 65 0 59 -2 67 -22 74 -13
5 -33 5 -46 0 -33 -12 -32 -13 -32 26 0 24 -5 35 -15 35 -12 0 -15 -18 -15
-100z"/>
<path d="M2470 630 c0 -82 3 -100 15 -100 12 0 15 18 15 100 0 82 -3 100 -15
100 -12 0 -15 -18 -15 -100z"/>
<path d="M1870 690 c0 -11 -4 -20 -10 -20 -5 0 -10 -7 -10 -15 0 -8 5 -15 10
-15 6 0 10 -20 10 -44 0 -48 21 -79 49 -74 21 4 27 38 7 38 -12 0 -16 10 -16
40 0 29 4 40 15 40 8 0 15 7 15 15 0 8 -7 15 -15 15 -8 0 -15 9 -15 20 0 13
-7 20 -20 20 -13 0 -20 -7 -20 -20z"/>
<path d="M878 666 c-45 -23 -32 -69 23 -81 17 -4 28 -12 26 -18 -4 -13 -32
-14 -58 -3 -10 5 -19 2 -22 -8 -4 -10 4 -18 28 -26 46 -15 90 4 90 39 0 25
-11 34 -60 52 -26 9 -28 12 -13 20 12 7 24 6 37 -1 13 -7 22 -7 26 0 16 26
-39 45 -77 26z"/>
<path d="M1031 671 c-42 -11 -55 -63 -19 -76 71 -25 73 -26 56 -36 -10 -6 -26
-5 -42 1 -17 6 -27 6 -32 -1 -10 -17 11 -31 49 -32 40 -1 67 17 67 44 0 21
-36 49 -63 49 -11 0 -17 5 -14 13 4 13 21 14 48 3 10 -5 19 -1 22 8 7 18 -38
35 -72 27z"/>
<path d="M2340 670 c-14 -3 -26 -13 -28 -22 -2 -12 5 -15 34 -14 21 1 39 -4
41 -11 3 -9 -4 -11 -25 -7 -22 5 -35 1 -51 -15 -26 -26 -26 -36 0 -62 14 -14
26 -18 42 -13 12 4 34 7 50 6 26 -2 27 -1 27 51 0 75 -28 102 -90 87z m45
-100 c0 -18 -33 -26 -47 -12 -6 6 -7 15 -3 22 10 16 50 8 50 -10z"/>
<path d="M570 599 c0 -62 2 -69 20 -69 17 0 20 7 20 50 0 45 3 50 25 56 42 11
30 31 -20 32 l-45 0 0 -69z"/>
<path d="M680 611 c0 -68 19 -97 54 -86 12 4 36 7 54 6 l32 -1 0 70 c0 63 -2
70 -19 70 -17 0 -20 -8 -23 -52 -3 -49 -5 -53 -30 -56 -28 -3 -28 -2 -28 52 0
49 -2 56 -20 56 -18 0 -20 -7 -20 -59z"/>
<path d="M1151 644 c-24 -30 -26 -43 -10 -78 15 -32 60 -51 93 -40 34 12 29
29 -9 29 -17 1 -36 4 -43 8 -26 17 -10 27 44 27 l56 0 -6 28 c-14 57 -88 73
-125 26z m87 -21 c2 -9 -8 -13 -32 -13 -34 0 -44 8 -29 24 11 11 56 2 61 -11z"/>
<path d="M1690 599 c0 -62 2 -69 19 -69 17 0 20 8 23 53 3 48 5 52 28 52 23 0
25 -4 28 -52 3 -45 6 -53 23 -53 16 0 19 7 19 51 0 78 -10 89 -80 88 l-60 -1
0 -69z"/>
<path d="M2150 660 c-21 -13 -5 -23 37 -24 21 -1 38 -7 41 -15 3 -10 -3 -11
-27 -6 -37 8 -71 -15 -71 -46 0 -27 44 -52 72 -43 13 4 32 7 44 5 19 -2 21 2
18 54 -1 31 -8 63 -15 71 -13 16 -76 19 -99 4z m75 -90 c0 -23 -49 -20 -53 3
-3 15 2 18 25 15 17 -2 28 -9 28 -18z"/>
<path d="M2593 568 c7 -18 20 -33 27 -33 7 0 20 15 27 33 9 22 10 32 2 32 -6
0 -13 -9 -16 -20 -3 -11 -9 -20 -13 -20 -4 0 -10 9 -13 20 -3 11 -10 20 -16
20 -8 0 -7 -10 2 -32z"/>
<path d="M2683 592 c16 -7 16 -9 3 -27 -22 -29 -20 -35 17 -34 17 1 24 3 15 6
-22 6 -23 17 -3 33 24 20 18 30 -17 29 -24 0 -28 -2 -15 -7z"/>
<path d="M2746 573 c12 -51 28 -58 44 -20 l9 22 7 -22 c9 -33 31 -28 39 8 9
38 -1 50 -14 18 l-10 -24 -7 23 c-3 12 -10 22 -15 22 -6 0 -14 -10 -19 -22
l-9 -23 -7 23 c-9 32 -26 27 -18 -5z"/>
<path d="M240 346 c0 -46 -3 -91 -6 -100 -5 -14 4 -16 64 -16 51 0 75 4 86 16
20 19 21 58 1 74 -13 11 -13 14 0 27 20 20 19 39 -5 63 -16 16 -33 20 -80 20
l-60 0 0 -84z m110 24 c0 -16 -7 -20 -35 -20 -28 0 -35 4 -35 20 0 16 7 20 35
20 28 0 35 -4 35 -20z m5 -80 c0 -10 -12 -16 -37 -18 -33 -3 -38 0 -38 18 0
18 5 21 38 18 25 -2 37 -8 37 -18z"/>
<path d="M1020 330 c0 -93 1 -100 20 -100 19 0 20 7 20 100 0 93 -1 100 -20
100 -19 0 -20 -7 -20 -100z"/>
<path d="M1100 331 c0 -95 1 -101 20 -101 20 0 21 5 18 97 -3 84 -6 98 -20
101 -16 3 -18 -7 -18 -97z"/>
<path d="M1611 408 c-5 -13 -23 -58 -39 -100 l-30 -78 23 0 c12 0 25 7 29 15
4 10 20 15 50 15 30 0 46 -5 50 -15 3 -8 16 -15 30 -15 l24 0 -37 98 c-34 86
-41 97 -65 100 -20 3 -28 -2 -35 -20z m59 -95 c0 -7 -11 -13 -25 -13 -28 0
-30 4 -13 51 l12 34 12 -30 c7 -17 13 -36 14 -42z"/>
<path d="M2405 420 c-4 -7 -3 -16 3 -22 14 -14 45 -2 40 15 -6 16 -34 21 -43
7z"/>
<path d="M2480 330 c0 -93 1 -100 20 -100 19 0 20 7 20 100 0 93 -1 100 -20
100 -19 0 -20 -7 -20 -100z"/>
<path d="M491 371 c-7 -4 -23 -6 -37 -3 -24 4 -24 3 -24 -67 0 -64 2 -71 19
-71 17 0 20 8 23 53 3 45 6 52 26 55 12 2 22 10 22 17 0 18 -13 26 -29 16z"/>
<path d="M900 373 c-46 -17 -64 -68 -40 -113 19 -36 115 -45 115 -10 0 9 -13
14 -39 14 -22 1 -41 7 -43 14 -3 8 10 12 46 12 47 0 51 2 51 24 0 15 -11 33
-26 45 -27 21 -38 24 -64 14z m41 -34 c26 -13 18 -24 -20 -27 -33 -2 -39 6
-19 26 15 15 15 15 39 1z"/>
<path d="M1196 359 c-20 -16 -26 -29 -26 -58 0 -52 25 -73 81 -69 58 4 62 31
5 32 -22 1 -41 7 -43 14 -3 8 10 12 46 12 47 0 51 2 51 24 0 27 -42 66 -70 66
-10 0 -29 -9 -44 -21z m58 -15 c28 -11 18 -34 -14 -34 -30 0 -43 23 -17 33 6
3 13 6 14 6 1 1 8 -2 17 -5z"/>
<path d="M1350 360 c-11 -11 -20 -24 -20 -29 0 -15 30 -41 48 -41 9 0 24 -5
32 -10 24 -16 -7 -31 -38 -19 -31 12 -56 -6 -32 -21 18 -11 80 -13 96 -2 34
23 9 82 -35 82 -11 0 -23 5 -26 10 -9 15 21 23 43 11 16 -8 21 -7 26 5 4 10
-3 18 -20 24 -37 14 -52 12 -74 -10z"/>
<path d="M1803 370 c-42 -17 -56 -77 -27 -118 16 -24 75 -31 104 -12 21 13 4
25 -38 25 -36 0 -37 1 -37 35 0 33 2 35 33 36 46 0 63 20 28 34 -32 12 -34 12
-63 0z"/>
<path d="M1960 373 c-49 -19 -66 -76 -34 -121 16 -24 75 -31 104 -12 21 13 4
25 -38 25 -36 0 -37 1 -37 35 0 34 1 35 38 36 20 1 40 4 44 8 17 16 -47 41
-77 29z"/>
<path d="M2268 365 c-43 -24 -49 -83 -12 -120 17 -16 81 -20 103 -6 20 13 -6
26 -45 22 -21 -1 -33 3 -37 13 -5 13 3 16 49 16 l56 0 -7 28 c-12 52 -60 73
-107 47z m60 -27 c20 -20 14 -28 -23 -28 -19 0 -35 4 -35 8 0 12 22 32 35 32
6 0 16 -5 23 -12z"/>
<path d="M540 311 c0 -35 5 -63 13 -69 6 -6 38 -10 70 -10 l57 1 0 68 c0 62
-2 69 -19 69 -17 0 -20 -8 -23 -52 -3 -49 -5 -53 -28 -53 -23 0 -25 4 -28 53
-3 44 -6 52 -23 52 -17 0 -19 -7 -19 -59z"/>
<path d="M724 337 l26 -34 -26 -34 c-22 -30 -23 -34 -7 -38 9 -2 26 7 36 20
l19 24 15 -22 c9 -13 24 -23 34 -23 23 0 25 13 4 30 -26 21 -27 49 -5 80 21
30 21 30 1 30 -11 0 -27 -10 -35 -21 l-14 -21 -14 21 c-7 11 -23 21 -36 21
l-23 0 25 -33z"/>
<path d="M2072 303 l3 -68 63 -1 62 -1 0 68 c0 63 -2 69 -21 69 -18 0 -20 -5
-18 -43 3 -50 -5 -67 -31 -67 -22 0 -30 19 -30 71 0 28 -4 39 -15 39 -13 0
-15 -12 -13 -67z"/>
<path d="M2410 300 c0 -56 3 -70 15 -70 12 0 15 14 15 70 0 56 -3 70 -15 70
-12 0 -15 -14 -15 -70z"/>
<path d="M2770 279 l0 -50 33 3 c25 2 33 8 35 26 4 28 -16 55 -35 48 -7 -3
-13 1 -13 9 0 8 -4 15 -10 15 -5 0 -10 -23 -10 -51z m48 -11 c-2 -13 -7 -23
-13 -23 -5 0 -11 10 -13 23 -2 15 2 22 13 22 11 0 15 -7 13 -22z"/>
<path d="M2860 280 c0 -27 5 -50 10 -50 6 0 10 23 10 50 0 28 -4 50 -10 50 -5
0 -10 -22 -10 -50z"/>
<path d="M2623 303 c-21 -8 -15 -22 7 -16 11 3 20 0 20 -6 0 -5 -6 -8 -13 -5
-17 6 -41 -21 -32 -36 3 -5 19 -10 36 -10 26 0 29 3 29 34 0 22 -6 36 -16 40
-9 3 -16 6 -17 5 -1 0 -8 -3 -14 -6z m27 -53 c0 -5 -7 -10 -15 -10 -8 0 -15 5
-15 10 0 6 7 10 15 10 8 0 15 -4 15 -10z"/>
<path d="M2701 301 c-17 -11 -7 -41 14 -41 8 0 15 -5 15 -11 0 -6 -9 -8 -20
-4 -12 4 -20 2 -20 -5 0 -17 54 -7 58 11 1 8 -7 21 -20 27 l-23 11 25 0 c20 1
22 3 10 11 -18 12 -21 12 -39 1z"/>
</g>
</svg>
