<svg xmlns="http://www.w3.org/2000/svg" xmlns:xlink="http://www.w3.org/1999/xlink" width="315.576" height="115" viewBox="0 0 315.576 115">
  <defs>
    <linearGradient id="linear-gradient" x1="0.261" y1="0.12" x2="0.738" y2="0.868" gradientUnits="objectBoundingBox">
      <stop offset="0.054" stop-color="#e385a3"/>
      <stop offset="0.382" stop-color="#eebfb7"/>
      <stop offset="0.785" stop-color="#f2d25f"/>
    </linearGradient>
    <linearGradient id="linear-gradient-2" x1="1.037" y1="-0.148" x2="0.058" y2="0.962" gradientUnits="objectBoundingBox">
      <stop offset="0.172" stop-color="#83e8c4"/>
      <stop offset="0.259" stop-color="#89e8c3"/>
      <stop offset="0.379" stop-color="#9be8c0"/>
      <stop offset="0.519" stop-color="#b8e8bc"/>
      <stop offset="0.548" stop-color="#c0e9bc"/>
      <stop offset="0.869" stop-color="#f2d25f"/>
    </linearGradient>
  </defs>
  <g id="Group_731" data-name="Group 731" transform="translate(-57.755 -59.127)">
    <g id="Group_731-2" data-name="Group 731" transform="translate(153.556 106.804)">
      <path id="Path_5" data-name="Path 5" d="M337.352,199.138c.884,0,1.326.442,1.326,1.246a3.577,3.577,0,0,1-.241,1.207c-.4,1.206-.724,2.452-2.533,7.718-1.728,5.024-2.05,5.829-2.532,7.276-.965,2.774-1.97,3.578-4.141,3.578-2.693,0-3.376-.845-4.341-3.658-.482-1.407-.6-1.689-2.492-7.4-.764-2.291-1.608-4.583-2.05-5.949a8.309,8.309,0,0,1-.684-2.854c0-.644.362-1.166,1.327-1.166h1.93a1.859,1.859,0,0,1,2.05,1.688c.4,1.327.8,2.613,1.648,5.668,2.05,7.437,1.97,7.678,2.734,7.678.523,0,.6-.6,1.688-4.582.965-3.618,1.849-7.115,2.252-8.8a1.924,1.924,0,0,1,2.211-1.648Z" transform="translate(-309.211 -190.013)" fill="#375078"/>
      <path id="Path_6" data-name="Path 6" d="M373.8,183.519a3.231,3.231,0,0,1-3.5-3.336,3.266,3.266,0,0,1,3.457-3.537c2.573,0,3.618,1.568,3.618,3.779a3.3,3.3,0,0,1-3.578,3.095Zm.081,23.235c-2.251,0-2.934-.563-2.934-2.091,0-1.045.121-14.672.121-16.883,0-1.488.4-2.01,2.813-2.01,2.091,0,2.693.764,2.693,2.251,0,2.413.041,14.793.041,16.8,0,1.487-.482,1.929-2.734,1.929Z" transform="translate(-339.304 -176.646)" fill="#375078"/>
      <path id="Path_7" data-name="Path 7" d="M409.093,199.138c.884,0,1.326.442,1.326,1.246a3.58,3.58,0,0,1-.241,1.207c-.4,1.206-.724,2.452-2.533,7.718-1.729,5.024-2.05,5.829-2.532,7.276-.965,2.774-1.97,3.578-4.141,3.578-2.693,0-3.376-.845-4.341-3.658-.482-1.407-.6-1.689-2.492-7.4-.764-2.291-1.608-4.583-2.05-5.949a8.313,8.313,0,0,1-.684-2.854c0-.644.362-1.166,1.327-1.166h1.929a1.859,1.859,0,0,1,2.05,1.688c.4,1.327.8,2.613,1.648,5.668,2.05,7.437,1.97,7.678,2.734,7.678.523,0,.6-.6,1.688-4.582.965-3.618,1.849-7.115,2.252-8.8a1.924,1.924,0,0,1,2.211-1.648Z" transform="translate(-351.847 -190.013)" fill="#375078"/>
      <path id="Path_8" data-name="Path 8" d="M456.109,206.211c0-2.292-1.206-3.779-3.94-3.779-4.18,0-4.06,3.336-4.261,4.261-.161.845-.844,1.327-2.734,1.327-2.171,0-2.734-.885-2.734-2.613,0-3.015,1.769-7.558,9.809-7.558,6.03,0,9.367,2.573,9.367,8.965,0,0-.041,9.688-.041,10.612,0,1.206-.4,1.849-2.493,1.849a1.8,1.8,0,0,1-2.05-1.608c-.321-1.528-.321-1.768-.6-1.768-.684,0-1.809,3.818-7.879,3.818-3.739,0-6.311-2.091-6.311-5.1,0-7.437,13.869-3.257,13.869-7.437v-.965Zm-.482,4.261c-.523,0-1.367.845-3.859,1.367-2.291.483-3.9.523-3.9,2.131,0,1.085,1,1.889,2.533,1.889a5.325,5.325,0,0,0,5.588-4.743c0-.4-.121-.644-.362-.644Z" transform="translate(-382.058 -189.247)" fill="#375078"/>
      <path id="Path_9" data-name="Path 9" d="M498.624,180.5c0-1.407.763-2.171,2.854-2.171,1.929,0,2.732.482,2.732,2.251,0,2.372-.159,20.14-.159,22.109,0,.763.159,1.045.683,1.045.282,0,.482-.08.924-.08,1.045,0,1.568.643,1.568,1.849,0,1.688-1.165,2.573-3.617,2.573-3.377,0-4.984-2.051-4.984-5.106V180.5Z" transform="translate(-415.568 -177.646)" fill="#375078"/>
      <path id="Path_10" data-name="Path 10" d="M525.6,183.519a3.231,3.231,0,0,1-3.5-3.336,3.267,3.267,0,0,1,3.458-3.537c2.572,0,3.617,1.568,3.617,3.779a3.3,3.3,0,0,1-3.577,3.095Zm.081,23.235c-2.251,0-2.936-.563-2.936-2.091,0-1.045.122-14.672.122-16.883,0-1.488.4-2.01,2.814-2.01,2.09,0,2.693.764,2.693,2.251,0,2.413.041,14.793.041,16.8,0,1.487-.483,1.929-2.734,1.929Z" transform="translate(-429.523 -176.646)" fill="#375078"/>
      <path id="Path_11" data-name="Path 11" d="M554.365,215.655c2.813,0,3.576-1,3.576-2.01,0-1.407-1.286-1.729-5.908-2.492-5.79-.965-6.995-3.5-6.995-6.311,0-4.663,4.422-6.794,8.964-6.794,6.191,0,8.8,2.693,8.8,5.588,0,1.367-.964,2.091-2.612,2.091a2.374,2.374,0,0,1-2.091-1.286,4.27,4.27,0,0,0-4.141-2.171c-2.291,0-3.578.724-3.578,2.171,0,1.527.684,2.251,5.227,3.055,6.673,1.166,7.879,3.055,7.879,5.909,0,3.457-2.976,6.392-9.689,6.392-6.632,0-9-3.458-9-5.468,0-1.448.6-2.13,2.01-2.13,2.573,0,2.171,3.457,7.558,3.457Z" transform="translate(-443.008 -189.365)" fill="#375078"/>
      <path id="Path_12" data-name="Path 12" d="M297.234,331.625c-2.131,0-3.337-1.206-3.337-3.135,0-2.131,1.286-3.015,3.217-3.015,2.773,0,3.5,1.085,3.5,3.015,0,2.171-1.326,3.135-3.376,3.135Z" transform="translate(-293.897 -265.096)" fill="#375078"/>
      <path id="Path_13" data-name="Path 13" d="M325.532,274.2c0,2.05-.079,2.694-.079,3.377,0,.724.079.885.4.885.683,0,1.488-2.895,6.552-2.895,5.106,0,8.322,3.658,8.322,10.733,0,6.472-3.3,11.015-8.642,11.015-6.311,0-6.272-3.779-7.035-3.779-.362,0-.322.281-.644,1.929-.241,1.246-1.044,1.568-2.412,1.568-1.768,0-2.291-.724-2.291-2.05,0-3.176-.039-11.135-.039-24.924,0-1.527.722-2.251,3.014-2.251,2.534,0,2.854.844,2.854,2.251v4.14Zm9.408,12.221c0-4.342-1.81-5.829-4.7-5.829-2.854,0-4.986,1.487-4.986,6.111,0,3.939,1.93,6.311,4.744,6.311,2.975,0,4.945-2.331,4.945-6.592Z" transform="translate(-309.211 -230.823)" fill="#375078"/>
      <path id="Path_14" data-name="Path 14" d="M383.381,307.347c0,1.447-.564,2.131-2.856,2.131-2.13,0-2.893-.643-2.893-2.131,0-10.653.161-15.6.161-16.964,0-1.326.522-1.769,2.21-1.769s2.091.443,2.332,1.97c.2,1.367.322,1.568.6,1.568.683,0,1.407-3.537,5.547-3.537,1.647,0,2.371.6,2.371,2.372,0,1.487-.282,2.813-2.331,2.813-3.377,0-5.145,2.01-5.145,6.07v7.477Z" transform="translate(-343.661 -243.189)" fill="#375078"/>
      <path id="Path_15" data-name="Path 15" d="M431.991,309.221c-1.768,0-2.291-.724-2.573-1.97-.2-.884-.2-1.648-.563-1.648-.683,0-.884,4.141-6.632,4.141-4.7,0-7-2.935-7-8.845,0-6.432-.039-3.457-.039-10.572,0-1.327.563-2.009,2.854-2.009,2.049,0,2.895.361,2.895,1.929,0,.724-.081,7.236-.081,9.287,0,3.537,1.327,5.306,3.658,5.306,2.855,0,4.262-2.211,4.262-6.633,0-4.985-.081-6.713-.081-8,0-1.247.723-1.769,2.854-1.769,2.05,0,2.975.362,2.975,1.849,0,2.412-.121,15.437-.121,16.8,0,1.326-.724,2.13-2.412,2.13Z" transform="translate(-365.981 -243.013)" fill="#375078"/>
      <path id="Path_16" data-name="Path 16" d="M478.958,305.131c2.813,0,3.578-1,3.578-2.01,0-1.407-1.286-1.729-5.91-2.492-5.788-.965-6.995-3.5-6.995-6.311,0-4.663,4.422-6.794,8.964-6.794,6.191,0,8.8,2.693,8.8,5.588,0,1.367-.966,2.091-2.613,2.091a2.369,2.369,0,0,1-2.09-1.286,4.274,4.274,0,0,0-4.141-2.171c-2.291,0-3.578.724-3.578,2.171,0,1.527.683,2.251,5.225,3.055,6.673,1.166,7.879,3.055,7.879,5.909,0,3.457-2.974,6.392-9.688,6.392-6.633,0-9-3.457-9-5.468,0-1.447.6-2.13,2.01-2.13,2.573,0,2.17,3.457,7.557,3.457Z" transform="translate(-398.194 -242.542)" fill="#375078"/>
      <path id="Path_17" data-name="Path 17" d="M530.188,305.131c2.813,0,3.578-1,3.578-2.01,0-1.407-1.286-1.729-5.91-2.492-5.788-.965-6.995-3.5-6.995-6.311,0-4.663,4.422-6.794,8.964-6.794,6.191,0,8.8,2.693,8.8,5.588,0,1.367-.966,2.091-2.614,2.091a2.37,2.37,0,0,1-2.09-1.286,4.273,4.273,0,0,0-4.141-2.171c-2.291,0-3.577.724-3.577,2.171,0,1.527.683,2.251,5.225,3.055,6.673,1.166,7.879,3.055,7.879,5.909,0,3.457-2.974,6.392-9.687,6.392-6.633,0-9-3.457-9-5.468,0-1.447.6-2.13,2.01-2.13,2.573,0,2.17,3.457,7.557,3.457Z" transform="translate(-428.641 -242.542)" fill="#375078"/>
      <path id="Path_18" data-name="Path 18" d="M582.222,309.173c-6.391,0-10.371-4.341-10.371-11.215,0-6.151,3.738-10.532,10.411-10.532,6.271,0,9.849,3.1,9.849,8.6,0,2.412-.764,2.895-2.332,2.895-1.125,0-10.572-.041-11.5-.041-.885,0-.966.4-.966,1.046,0,2.733,2.091,4.784,5.145,4.784,5.025,0,4.1-3.257,7.035-3.257a1.962,1.962,0,0,1,2.01,2.091c0,2.01-2.492,5.628-9.286,5.628Zm4.02-13.145c.764,0,1-.281,1-.925,0-1.487-1.407-3.5-4.823-3.5-3.538,0-4.945,2.171-4.945,3.578,0,.6.161.844.884.844Z" transform="translate(-459.087 -242.483)" fill="#375078"/>
      <path id="Path_19" data-name="Path 19" d="M628.728,269.977c0-1.407.763-2.171,2.854-2.171,1.929,0,2.734.482,2.734,2.251,0,2.372-.161,20.14-.161,22.11,0,.764.161,1.045.683,1.045.281,0,.483-.08.925-.08,1.044,0,1.568.643,1.568,1.849,0,1.688-1.166,2.573-3.618,2.573-3.376,0-4.985-2.051-4.985-5.106V269.977Z" transform="translate(-492.889 -230.823)" fill="#375078"/>
      <path id="Path_20" data-name="Path 20" d="M661.581,305.131c2.813,0,3.578-1,3.578-2.01,0-1.407-1.286-1.729-5.91-2.492-5.788-.965-6.995-3.5-6.995-6.311,0-4.663,4.422-6.794,8.964-6.794,6.191,0,8.8,2.693,8.8,5.588,0,1.367-.966,2.091-2.614,2.091a2.369,2.369,0,0,1-2.09-1.286,4.273,4.273,0,0,0-4.141-2.171c-2.291,0-3.578.724-3.578,2.171,0,1.527.683,2.251,5.225,3.055,6.672,1.166,7.879,3.055,7.879,5.909,0,3.457-2.974,6.392-9.688,6.392-6.633,0-9-3.457-9-5.468,0-1.447.6-2.13,2.01-2.13,2.573,0,2.17,3.457,7.557,3.457Z" transform="translate(-506.728 -242.542)" fill="#375078"/>
      <path id="Path_21" data-name="Path 21" d="M720.452,300.03a7.412,7.412,0,0,0-7.493,7.57c0,4.592,4.252,7.449,7.95,7.449,4.068,0,6.031-1.274,9.458-.581a9.323,9.323,0,0,1,4.849,2.538.864.864,0,0,0,1.078.17c.3-.2.5-.568.3-1.456a20.922,20.922,0,0,0-2.849-6.36c-2.513-3.881-7.612-9.331-13.29-9.331" transform="translate(-542.948 -249.974)" fill="#375078"/>
      <path id="Path_22" data-name="Path 22" d="M793.4,300.03a7.411,7.411,0,0,1,7.492,7.57c0,4.592-4.252,7.449-7.95,7.449-4.067,0-6.03-1.274-9.457-.581a9.32,9.32,0,0,0-4.848,2.538.865.865,0,0,1-1.078.17c-.3-.2-.5-.568-.3-1.456a20.991,20.991,0,0,1,2.85-6.36c2.515-3.881,7.614-9.331,13.291-9.331" transform="translate(-581.112 -249.974)" fill="#375078"/>
      <path id="Path_23" data-name="Path 23" d="M768.668,275.9a7.305,7.305,0,0,0-7.286-7.415,5.953,5.953,0,0,0-4.811,2.17,5.952,5.952,0,0,0-4.811-2.17,7.306,7.306,0,0,0-7.287,7.415,7.668,7.668,0,0,0,1.474,4.406,19.661,19.661,0,0,0,3.5,3.606,22.339,22.339,0,0,1,6.246,8.078.91.91,0,0,0,1.758,0,22.352,22.352,0,0,1,6.246-8.078,19.666,19.666,0,0,0,3.5-3.606,7.668,7.668,0,0,0,1.473-4.406Zm-2.22.047a5.045,5.045,0,0,1-1.045,3.019c-2.639,3.607-6.223,4.764-8.833,10.416-2.61-5.652-6.193-6.808-8.832-10.416a5.041,5.041,0,0,1-1.044-3.019,5.281,5.281,0,0,1,5.244-5.293,5.14,5.14,0,0,1,4.633,3.252,5.14,5.14,0,0,1,4.634-3.252,5.281,5.281,0,0,1,5.244,5.293Z" transform="translate(-561.677 -231.228)" fill="#375078"/>
    </g>
    <g id="Group_732" data-name="Group 732" transform="translate(57.755 59.127)">
      <path id="Path_24" data-name="Path 24" d="M74.194,179.1c1.829.92,22.185,12.679,39.3,49.662a11.173,11.173,0,0,1-20.27,9.408c-7.553-16.264-15.417-26.3-21.139-32.2a56.027,56.027,0,0,0-6.7-5.97c-.751-.557-1.295-.915-1.594-1.1-.15-.095-.239-.146-.262-.159l.135.073-.135-.073.135.073A11.173,11.173,0,1,1,74.194,179.1" transform="translate(-57.755 -129.644)" fill="url(#linear-gradient)"/>
      <path id="Path_25" data-name="Path 25" d="M143.673,158.209c.573-.879,29.24-63.089,90.045-97.64a11.173,11.173,0,0,1,10.975,19.466c-26.618,14.98-47.036,37-60.63,55.322A239.707,239.707,0,0,0,168.8,158.569c-1.684,2.928-2.935,5.269-3.749,6.848-.408.789-.707,1.388-.9,1.774s-.241.5-.243.5a11.173,11.173,0,0,1-20.234-9.483" transform="translate(-108.188 -59.127)" fill="url(#linear-gradient-2)"/>
      <path id="Path_26" data-name="Path 26" d="M143.677,285.91c.133.282.28.553.432.82.031.054.056.11.087.163q.284.477.609.918c.084.113.18.218.268.329.14.174.275.353.424.518s.285.289.429.432c.114.114.224.234.343.343.2.183.417.354.634.523.071.056.138.118.211.173q.441.327.92.615c.044.026.091.047.135.073.274.159.554.311.845.449.118.056.24.1.36.152.217.093.434.188.653.267.172.062.349.111.524.164s.341.108.513.151c.2.049.4.086.594.125.157.031.314.065.471.089.2.03.4.047.6.067.166.016.331.035.5.043.183.009.368.007.552.008s.367,0,.549-.006c.166-.008.333-.026.5-.042.2-.019.4-.035.592-.064.158-.023.315-.057.473-.088.2-.038.4-.074.594-.123.171-.043.341-.1.512-.149s.354-.1.527-.163c.216-.077.429-.169.643-.26.124-.053.251-.1.373-.155.277-.129.542-.274.8-.423.059-.034.122-.061.181-.1q.477-.284.916-.609c.114-.084.219-.181.33-.269.174-.139.353-.275.517-.423.148-.134.286-.282.428-.425.116-.116.238-.226.347-.347.183-.2.353-.416.521-.632.057-.072.12-.139.175-.213q.327-.441.615-.92c.028-.046.049-.1.076-.142.158-.271.309-.549.446-.838a11.151,11.151,0,0,0,.038-9.482,163.788,163.788,0,0,0-9.942-18.42c-6.728,10.82-10.117,18.087-10.31,18.383A11.148,11.148,0,0,0,143.677,285.91Z" transform="translate(-108.189 -177.345)" fill="#f0c639"/>
      <path id="Path_27" data-name="Path 27" d="M153.791,309.85a11.176,11.176,0,1,0-11.176-11.176,11.176,11.176,0,0,0,11.176,11.176" transform="translate(-108.188 -194.85)" fill="#ecb72b"/>
      <path id="Path_28" data-name="Path 28" d="M364.33,81.48A11.176,11.176,0,1,0,353.154,70.3,11.176,11.176,0,0,0,364.33,81.48" transform="translate(-233.313 -59.128)" fill="#7fdfad"/>
      <path id="Path_29" data-name="Path 29" d="M68.931,200.134a11.176,11.176,0,1,0-11.176-11.176,11.176,11.176,0,0,0,11.176,11.176" transform="translate(-57.755 -129.645)" fill="#e385a3"/>
    </g>
  </g>
</svg>
