<?xml version="1.0" encoding="utf-8"?>
<!-- Generator: Adobe Illustrator 22.0.1, SVG Export Plug-In . SVG Version: 6.00 Build 0)  -->
<svg version="1.1" id="Calque_1" xmlns="http://www.w3.org/2000/svg" xmlns:xlink="http://www.w3.org/1999/xlink" x="0px" y="0px"
	 viewBox="0 0 1021.3 284.4" style="enable-background:new 0 0 1021.3 284.4;" xml:space="preserve">
<style type="text/css">
	.st0{fill:#DB0032;}
</style>
<g>
	<path class="st0" d="M131.5,280.6l3.9-41.5c17.5,6.2,32.3,6.7,44.5,1.6c5.5-2.3,9.6-5.5,12.3-9.7c3.2-4.7,3.8-9.7,1.5-15
		c-2-4.8-6.1-7.8-12.4-8.9c-4.7-0.9-11.8-0.7-21.5,0.4c-11.8,1.3-19.2,1.9-22.4,1.8c-3,0-5.7-0.3-8.3-0.7c-7.7-0.5-15-2.4-22-5.6
		c-14.6-6.7-25.3-18-31.9-34c-6-14.3-6.2-29.2-0.7-44.5c0.6-1.8,1.4-3.4,2.2-5.1c-2.7-0.9-5.1-1.9-7.4-3.1
		c-8.3-4.5-14.7-12.1-19.2-22.9C38.5,66,43,43.1,63.6,24.7c1.7-1.5,3.4-2.9,5.2-4.3C5.9,58.3-18.4,138.7,14.9,205.6
		c27.7,55.6,86.8,85.1,145.1,77.8C150.7,283.7,141.2,282.8,131.5,280.6z"/>
	<path class="st0" d="M269.6,78.9C241.9,23.3,182.8-6.2,124.5,1.1c9.3-0.4,18.8,0.6,28.5,2.7l-3.9,41.5c-17.5-6.2-32.3-6.7-44.5-1.7
		c-5.5,2.3-9.6,5.5-12.3,9.7c-3.2,4.7-3.8,9.7-1.5,15c2,4.8,6.1,7.8,12.4,8.9c4.7,0.9,11.8,0.7,21.5-0.4c10.6-1.2,17.7-1.8,21.3-1.8
		l0.2-0.1c6.2,0.1,13.6,0.1,24.9,4.6c0,0,0,0,0,0c1.9,0.7,3.7,1.4,5.6,2.2c14.7,6.7,25.2,17.6,31.5,32.7c6.4,15.3,6.8,30.5,1.4,45.6
		c-0.6,1.6-1.3,3.1-2,4.6c2.8,0.9,5.4,2,7.8,3.3c8.3,4.5,14.7,12.1,19.2,22.9c11.5,27.4,6.9,50.3-13.7,68.7
		c-1.7,1.5-3.4,2.9-5.2,4.3C278.6,226.2,302.8,145.7,269.6,78.9z"/>
	<path class="st0" d="M129.3,167.2c7.6,3.9,15.4,4.2,23.4,0.9c2.3-1,4.3-2.2,6.2-3.6c3.9-2.9,6.9-6.7,8.9-11.4
		c2.8-6.9,2.8-13.9-0.1-21c-0.1-0.2-0.1-0.3-0.1-0.5c-3-7.2-8-12.2-15.1-15.1c-7.1-2.9-14.2-2.8-21.3,0.1c-8,3.4-13.3,9.1-15.8,17.3
		c-2.1,6.6-1.8,13,0.8,19.2C118.7,159.3,123.1,164,129.3,167.2z"/>
</g>
<g>
	<path class="st0" d="M432.5,163c0,21.1-9.3,34.9-27.8,41.3c-6.5,2.3-13.4,3.4-20.9,3.4c-15.6,0-30.1-4.7-43.5-14.2l13.9-26.2
		c9.8,8.8,19.3,13.3,28.7,13.3c4.2,0,7.8-1,10.7-3c3.4-2.2,5.1-5.4,5.1-9.4c0-3.7-1.9-6.8-5.7-9.2c-2.8-1.8-7.5-3.7-14.2-5.6
		c-8.1-2.4-13.1-4-15.2-4.9c-3.3-1.4-6.1-3-8.4-4.9c-6.7-5.5-10-13.8-10-24.9c0-11.6,3.4-21.2,10.3-28.8c8.1-9,18.8-13.4,32.2-13.4
		c13.5,0,26.7,3.4,39.6,10.2l-13,25.3c-7.1-5.6-14.3-8.3-21.5-8.3c-3.5,0-6.6,0.9-9.4,2.7c-3.1,2-4.7,4.7-4.7,8.1
		c0,3.3,2,6.2,6.1,8.5c1.8,1.1,7.3,3,16.5,5.7c11.5,3.4,19.7,8.1,24.6,14.3C430.4,148,432.5,154.7,432.5,163z"/>
	<path class="st0" d="M581,142.3c0,17-5.6,31.8-16.9,44.7c-12.9,14.6-30.3,21.9-52.2,21.9c-21.9,0-39.3-7.3-52.2-21.9
		c-11.3-12.8-16.9-27.7-16.9-44.7c0-7.7,1.5-15.7,4.6-23.8c3-8.1,7.1-15.1,12.3-20.9c12.9-14.6,30.3-21.9,52.2-21.9
		c22,0,39.4,7.3,52.2,21.9C575.4,110.3,581,125.2,581,142.3z M547.4,142.3c0-8.8-2.8-16.4-8.4-22.8c-7.2-8.2-16.2-12.3-27.1-12.3
		c-7.5,0-14.2,2.1-20.3,6.3c-6.1,4.2-10.4,9.8-12.9,16.7c-1.5,4-2.2,8-2.2,12.1c0,8.4,2.8,16,8.4,22.7c7,8.3,16,12.4,27,12.4
		s20-4.1,27.1-12.3C544.6,158.5,547.4,150.9,547.4,142.3z"/>
	<path class="st0" d="M668.4,204.3h-71.5V79.4h32.5v97.8h39V204.3z"/>
	<path class="st0" d="M766.9,163c0,21.1-9.3,34.9-27.8,41.3c-6.5,2.3-13.4,3.4-20.9,3.4c-15.6,0-30.1-4.7-43.5-14.2l13.9-26.2
		c9.8,8.8,19.3,13.3,28.7,13.3c4.2,0,7.8-1,10.7-3c3.4-2.2,5.1-5.4,5.1-9.4c0-3.7-1.9-6.8-5.7-9.2c-2.8-1.8-7.5-3.7-14.2-5.6
		c-8.1-2.4-13.1-4-15.2-4.9c-3.3-1.4-6.1-3-8.4-4.9c-6.7-5.5-10-13.8-10-24.9c0-11.6,3.4-21.2,10.3-28.8c8.1-9,18.8-13.4,32.2-13.4
		c13.5,0,26.7,3.4,39.6,10.2l-13,25.3c-7.1-5.6-14.3-8.3-21.5-8.3c-3.5,0-6.6,0.9-9.4,2.7c-3.1,2-4.7,4.7-4.7,8.1
		c0,3.3,2,6.2,6.1,8.5c1.8,1.1,7.3,3,16.5,5.7c11.5,3.4,19.7,8.1,24.6,14.3C764.8,148,766.9,154.7,766.9,163z"/>
	<path class="st0" d="M915.4,142.3c0,17-5.6,31.8-16.9,44.7c-12.9,14.6-30.3,21.9-52.2,21.9c-21.9,0-39.3-7.3-52.2-21.9
		c-11.3-12.8-16.9-27.7-16.9-44.7c0-7.7,1.5-15.7,4.6-23.8c3-8.1,7.1-15.1,12.3-20.9c12.9-14.6,30.3-21.9,52.2-21.9
		c22,0,39.4,7.3,52.2,21.9C909.8,110.3,915.4,125.2,915.4,142.3z M881.8,142.3c0-8.8-2.8-16.4-8.4-22.8
		c-7.2-8.2-16.2-12.3-27.1-12.3c-7.5,0-14.2,2.1-20.3,6.3c-6.1,4.2-10.4,9.8-12.9,16.7c-1.5,4-2.2,8-2.2,12.1c0,8.4,2.8,16,8.4,22.7
		c7,8.3,16,12.4,27,12.4s20-4.1,27.1-12.3C878.9,158.5,881.8,150.9,881.8,142.3z"/>
	<path class="st0" d="M1021.3,201.4c-10.6,4.2-20.4,6.3-29.5,6.3c-15.7,0-29.8-5-42.3-15.1c-15.9-12.9-23.8-29.6-23.8-50.3
		c0-20.7,7.9-37.5,23.8-50.4c12.4-10.1,26.6-15.1,42.5-15.1c8.7,0,18.4,2.1,29.2,6.3v38.9c-3.1-3.7-6.2-6.6-9.3-8.5
		c-5.8-3.5-12-5.3-18.7-5.3c-8.4,0-15.8,2.5-22,7.6c-7.9,6.4-11.8,15.2-11.8,26.4c0,11.1,3.9,19.9,11.8,26.3
		c6.2,5.1,13.6,7.6,22,7.6c6.7,0,12.9-1.8,18.7-5.3c3.1-1.8,6.2-4.7,9.3-8.5V201.4z"/>
</g>
</svg>
