<?xml version="1.0" standalone="no"?>
<!DOCTYPE svg PUBLIC "-//W3C//DTD SVG 1.0//EN" "http://www.w3.org/TR/2001/REC-SVG-20010904/DTD/svg10.dtd">
<svg xmlns="http://www.w3.org/2000/svg" xmlns:xlink="http://www.w3.org/1999/xlink" id="body_1" width="1024" height="768">

<g transform="matrix(3.9115322 0 0 3.9115322 -0 110.01674)">
	<g>
		<g>
            <path d="M30.15 140.09C 12.06 140.09 0 126.21 0 110.49L0 110.49L0 81.62C 0 65.9 12.06 52.020004 30.15 52.020004C 48.239998 52.020004 55.37 64.630005 56.83 67.920006C 57.56 69.57001 57.93 71.94 55.730003 73.40001L55.730003 73.40001L51.340004 76.51001C 49.330006 77.97001 47.320004 77.79001 45.860004 75.600006C 44.220005 73.04001 40.380005 65.00001 30.150005 65.00001C 19.910006 65.00001 14.070005 73.41 14.070005 81.630005L14.070005 81.630005L14.070005 110.50001C 14.070005 118.73001 19.920006 127.130005 30.150005 127.130005C 40.380005 127.130005 43.860004 119.64001 45.860004 116.89001C 47.510006 114.51001 49.330006 114.15001 51.340004 115.43001L51.340004 115.43001L55.540005 118.350006C 57.920006 120.00001 58.280006 121.82001 57.190006 123.83001C 55.18 127.85 48.24 140.09 30.15 140.09z" stroke="none" fill="#57738F" fill-rule="nonzero" />
            <path d="M105 138.27L74.73 138.27C 72.170006 138.27 70.71001 136.81 70.71001 134.25L70.71001 134.25L70.71001 130.23C 70.71001 127.659996 72.170006 126.21 74.73 126.21L74.73 126.21L79.29 126.21C 81.85 126.21 83.31 124.75 83.31 122.19L83.31 122.19L83.31 69.93C 83.31 67.37 81.85 65.91 79.29 65.91L79.29 65.91L79.47 65.91C 76.91 65.91 75.450005 64.450005 75.450005 61.890003L75.450005 61.890003L75.450005 57.870003C 75.450005 55.31 76.91 53.850002 79.47 53.850002L79.47 53.850002L100.520004 53.850002C 103.08 53.850002 104.54 55.31 104.54 57.870003L104.54 57.870003L104.54 61.890003C 104.54 64.44 103.08 65.91 100.520004 65.91L100.520004 65.91L101.22 65.91C 98.66 65.91 97.200005 67.37 97.200005 69.93L97.200005 69.93L97.200005 122.19C 97.200005 124.75 98.66 126.21 101.22 126.21L101.22 126.21L105 126.21C 107.56 126.21 109.02 127.67 109.02 130.23L109.02 130.23L109.02 134.25C 109.02 136.81 107.56 138.27 105 138.27z" stroke="none" fill="#57738F" fill-rule="nonzero" />
            <path d="M180.53 98.25C 179.06999 96.97 179.06999 95.51 180.53 94.41C 182.91 92.58 188.76 88.200005 188.76 77.96001C 188.76 61.700005 175.79 52.020004 158.62 52.010006C 158.62 52.010006 158.62 52.010006 158.61 52.010006C 158.61 52.010006 158.61 52.010006 158.6 52.010006C 158.58 52.010006 158.57 52.010006 158.55 52.010006C 158.08 52.010006 157.61 52.020004 157.15001 52.040005C 156.90001 52.050003 156.64001 52.070004 156.39001 52.080006C 156.20001 52.090004 156.01001 52.110004 155.83002 52.120007C 154.31001 52.240005 152.84001 52.470005 151.42001 52.780006C 151.34001 52.800007 151.27002 52.810005 151.20001 52.830006C 150.92001 52.900005 150.63 52.960007 150.35 53.030006C 147.1 53.86001 144.44 55.060005 142.67001 56.200005C 141.75002 56.750004 140.84001 56.750004 140.11002 55.470005C 139.56001 54.550007 138.65001 53.820004 137.18002 53.820004L137.18002 53.820004L132.42003 53.820004C 129.85002 53.820004 128.39003 55.290005 128.39003 57.850002L128.39003 57.850002L128.39003 110.61L128.45003 110.61L128.45003 134.22C 128.45003 136.78 129.91003 138.24 132.47003 138.24L132.47003 138.24L138.50003 138.24C 141.05003 138.24 142.52003 136.78 142.52003 134.22L142.52003 134.22L142.52003 106.08C 142.52003 103.520004 143.98004 102.060005 146.54004 102.060005L146.54004 102.060005L158.60004 102.060005C 168.83003 102.060005 174.68004 110.46001 174.68004 118.69L174.68004 118.69L174.68004 134.22C 174.68004 136.78 176.14005 138.24 178.70004 138.24L178.70004 138.24L184.73004 138.24C 187.29004 138.24 188.75005 136.78 188.75005 134.22L188.75005 134.22L188.75005 118.69C 188.75 107.39 184.55 101.72 180.53 98.25zM158.6 90.03L146.54001 90.03C 143.98001 90.03 142.52 88.57 142.52 86.01L142.52 86.01L142.52 81.630005C 142.52 79.07001 143.09001 76.48 144.18001 74.15C 144.28001 73.93 144.41 73.72 144.52 73.5C 144.64 73.26 144.76001 73.02 144.89 72.79C 145.09 72.46 145.3 72.14 145.52 71.82C 145.59001 71.71 145.66 71.6 145.73001 71.49C 145.95001 71.18 146.19002 70.89 146.43001 70.6C 146.52 70.49 146.6 70.369995 146.69 70.27C 146.89 70.03999 147.12 69.82 147.33 69.6C 147.48 69.45 147.62 69.28 147.78 69.14C 147.94 68.99 148.12 68.85 148.3 68.7C 148.53 68.5 148.75 68.299995 148.99 68.119995C 149.12001 68.02 149.25 67.939995 149.38 67.85C 149.68001 67.63 149.99 67.42 150.31 67.22C 150.43 67.15 150.56999 67.090004 150.69 67.020004C 151.03 66.83 151.37 66.64001 151.73 66.47C 151.95 66.37 152.19 66.28 152.43 66.19C 152.7 66.08 152.96999 65.96 153.25 65.87C 154.82 65.340004 156.55 65.05 158.43 65.05L158.43 65.05L158.43 65C 158.48999 65 158.54 64.99 158.59999 64.99C 167.18999 64.99 174.68 69.189995 174.68 77.97C 174.68 88.2 163.35 90.03 158.6 90.03z" stroke="none" fill="#57738F" fill-rule="nonzero" />
            <path d="M219.58 102.09L253.75 102.09C 258.87 102.09 261.79 99.159996 261.79 94.049995L261.79 94.049995L261.79 81.62C 261.79 65.9 249.73001 52.020004 231.64001 52.020004C 213.55002 52.020004 201.49002 65.91 201.49002 81.62L201.49002 81.62L201.49002 110.490005C 201.49002 126.21001 213.55002 140.09001 231.64001 140.09001C 246.99002 140.09001 255.94002 131.32 260.33002 124.19001C 261.24002 122.73001 261.61002 120.17001 259.41 118.52001L259.41 118.52001L255.39 115.60001C 253.56 114.320015 251.19 114.500015 249.91 116.33002C 246.8 120.540016 241.14 127.12002 231.64 127.12002C 221.41 127.12002 215.56 118.71002 215.56 110.49002L215.56 110.49002L215.56 106.11002C 215.56 103.55 217.02 102.09 219.58 102.09zM215.56 81.62C 215.56 73.39 221.41 64.990005 231.64 64.990005C 241.87 64.990005 247.72 73.40001 247.72 81.62L247.72 81.62L247.72 86C 247.72 88.56 246.26 90.02 243.7 90.02L243.7 90.02L219.58 90.02C 217.02 90.02 215.56 88.56 215.56 86L215.56 86L215.56 81.62z" stroke="none" fill="#57738F" fill-rule="nonzero" />
		</g>
		<g>
			<g>
                <path d="M249.73 17.71C 252.84 20.449999 250.83 24.109999 247.53 24.109999L247.53 24.109999L240.22 24.109999C 236.38 24.109999 233.46 22.279999 231.63 19.359999L231.63 19.359999L223.6 6.2C 219.95001 0.1699996 227.62001 -3.12 235.3 4.1899996L235.3 4.1899996L249.73 17.71z" stroke="none" fill="#F08A03" fill-rule="nonzero" />
                <path d="M235.3 37.58C 227.62001 44.890003 219.95 41.600002 223.6 35.56L223.6 35.56L231.64 22.410002C 233.47 19.480001 236.39 17.650002 240.23 17.650002L240.23 17.650002L247.54 17.650002C 250.82999 17.650002 252.84 21.310001 249.73999 24.050001L249.73999 24.050001L235.3 37.58z" stroke="none" fill="#57738F" fill-rule="nonzero" />
			</g>
			<g>
                <path d="M99.7 20.42C 99.7 25.85 95.299995 30.25 89.869995 30.25C 84.439995 30.25 80.03999 25.85 80.03999 20.42C 80.03999 14.99 84.439995 10.59 89.869995 10.59C 95.3 10.59 99.7 14.99 99.7 20.42z" stroke="none" fill="#F08A03" fill-rule="nonzero" />
                <path d="M147.6 20.42C 147.6 25.85 143.20001 30.25 137.77 30.25C 132.34001 30.25 127.93001 25.85 127.93001 20.42C 127.93001 14.99 132.33 10.59 137.77 10.59C 143.2 10.59 147.6 14.99 147.6 20.42z" stroke="none" fill="#F08A03" fill-rule="nonzero" />
                <path d="M195.51 20.42C 195.51 25.85 191.11 30.25 185.68 30.25C 180.25 30.25 175.84999 25.85 175.84999 20.42C 175.84999 14.99 180.24998 10.59 185.68 10.59C 191.11 10.59 195.51 14.99 195.51 20.42z" stroke="none" fill="#F08A03" fill-rule="nonzero" />
			</g>
		</g>
	</g>
</g>
</svg>