<?xml version="1.0" standalone="no"?>
<!DOCTYPE svg PUBLIC "-//W3C//DTD SVG 1.0//EN" "http://www.w3.org/TR/2001/REC-SVG-20010904/DTD/svg10.dtd">
<svg xmlns="http://www.w3.org/2000/svg" xmlns:xlink="http://www.w3.org/1999/xlink" id="body_1" width="1800" height="944">

<g transform="matrix(1.3333334 0 0 1.3333334 0 0)">
	<g transform="matrix(0.1 0 -0 -0.1 0 708)">
        <path d="M2170 4924C 2145 4917 2112 4910 2095 4910C 2079 4910 2054 4903 2040 4895C 2026 4887 2005 4881 1993 4880C 1981 4880 1954 4873 1933 4864C 1839 4824 1824 4817 1810 4809C 1802 4804 1791 4798 1785 4796C 1780 4794 1768 4789 1760 4786C 1752 4783 1732 4771 1715 4760C 1699 4749 1678 4737 1670 4733C 1656 4727 1638 4714 1535 4638C 1449 4574 1307 4415 1223 4289C 1166 4203 1088 4028 1071 3950C 1067 3931 1058 3905 1052 3893C 1045 3881 1040 3859 1040 3843C 1040 3828 1033 3793 1025 3766C 1004 3697 1004 3353 1025 3284C 1033 3257 1040 3222 1040 3205C 1041 3189 1047 3164 1055 3150C 1063 3136 1069 3115 1070 3103C 1070 3091 1077 3064 1086 3043C 1126 2949 1133 2934 1141 2920C 1146 2912 1153 2898 1156 2890C 1159 2882 1166 2868 1171 2860C 1176 2852 1183 2838 1187 2830C 1238 2713 1524 2390 1575 2390C 1586 2391 1608 2404 1624 2420C 1640 2437 1657 2450 1661 2450C 1665 2450 1689 2464 1713 2480C 1738 2497 1763 2510 1770 2510C 1777 2510 1794 2516 1808 2523C 1865 2552 1946 2584 2005 2600C 2033 2608 2053 2614 2133 2641C 2150 2647 2181 2656 2200 2660C 2219 2664 2250 2673 2268 2679C 2285 2685 2315 2695 2333 2701C 2350 2707 2382 2715 2403 2720C 2424 2724 2447 2733 2453 2739C 2459 2745 2472 2750 2481 2750C 2513 2750 2643 2823 2681 2862C 2737 2919 2744 3001 2698 3059C 2666 3100 2554 3170 2520 3170C 2511 3170 2500 3174 2495 3179C 2489 3183 2451 3197 2410 3210C 2369 3222 2323 3239 2308 3246C 2294 3254 2273 3260 2262 3260C 2251 3260 2237 3267 2230 3275C 2223 3283 2212 3290 2206 3290C 2200 3290 2182 3301 2167 3315C 2126 3354 2129 3412 2175 3455C 2210 3489 2285 3530 2311 3530C 2319 3530 2334 3536 2345 3544C 2356 3551 2383 3560 2405 3562C 2427 3565 2465 3572 2490 3578C 2570 3597 2653 3611 2741 3620C 2788 3625 2838 3634 2854 3639C 2869 3645 2907 3650 2938 3650C 2970 3650 3011 3655 3030 3661C 3049 3667 3092 3675 3125 3680C 3208 3691 3260 3715 3260 3741C 3260 3765 3223 3799 3196 3800C 3186 3800 3156 3808 3128 3818C 3048 3846 3051 3894 3135 3930C 3220 3966 3535 3993 3673 3976C 3726 3969 3730 3970 3730 3989C 3730 4000 3726 4012 3720 4015C 3715 4018 3710 4032 3710 4044C 3710 4057 3703 4073 3695 4080C 3687 4087 3680 4098 3680 4105C 3680 4126 3579 4310 3568 4310C 3563 4310 3560 4315 3560 4321C 3560 4339 3478 4440 3394 4525C 3293 4628 3170 4722 3065 4775C 3038 4789 3008 4805 3000 4809C 2943 4840 2920 4850 2903 4850C 2893 4850 2876 4857 2866 4865C 2855 4873 2835 4880 2821 4880C 2807 4881 2784 4887 2770 4895C 2756 4903 2729 4909 2710 4910C 2691 4910 2653 4917 2626 4925C 2559 4945 2235 4945 2170 4924zM2525 4845C 2694 4821 2855 4778 2936 4735C 2962 4721 2987 4710 2993 4710C 2998 4710 3025 4694 3051 4675C 3078 4656 3104 4640 3108 4640C 3113 4640 3127 4629 3140 4615C 3153 4601 3168 4590 3173 4590C 3199 4590 3324 4472 3405 4371C 3536 4209 3599 4078 3562 4048C 3547 4035 3525 4034 3282 4027C 3141 4023 3138 4022 3103 3993C 3038 3941 3025 3916 3024 3839C 3023 3800 3020 3766 3016 3763C 3013 3759 2973 3751 2928 3744C 2882 3737 2823 3726 2795 3720C 2768 3714 2716 3705 2680 3700C 2644 3696 2577 3685 2530 3676C 2483 3666 2421 3655 2392 3650C 2364 3645 2330 3634 2318 3626C 2306 3617 2288 3610 2279 3610C 2235 3610 2172 3570 2122 3510C 2071 3450 2070 3446 2070 3386C 2070 3317 2087 3286 2160 3224C 2193 3196 2342 3130 2373 3130C 2381 3130 2398 3121 2412 3111C 2425 3100 2454 3087 2475 3081C 2497 3075 2533 3057 2555 3042C 2588 3019 2596 3007 2598 2978C 2602 2936 2586 2900 2565 2900C 2557 2900 2546 2891 2540 2880C 2534 2869 2517 2858 2502 2854C 2487 2851 2462 2842 2445 2835C 2429 2828 2388 2814 2355 2805C 2322 2795 2280 2781 2262 2774C 2244 2766 2220 2760 2208 2760C 2196 2760 2162 2748 2132 2734C 2101 2720 2053 2705 2025 2701C 1997 2697 1955 2684 1931 2672C 1908 2660 1882 2650 1872 2650C 1863 2650 1842 2641 1825 2630C 1809 2619 1786 2610 1775 2610C 1764 2610 1722 2592 1682 2570C 1642 2548 1600 2530 1589 2530C 1562 2530 1514 2556 1507 2575C 1503 2583 1488 2598 1472 2607C 1445 2624 1340 2750 1340 2766C 1340 2770 1331 2783 1321 2794C 1296 2822 1210 2984 1210 3004C 1210 3013 1206 3020 1200 3020C 1195 3020 1190 3029 1190 3040C 1190 3052 1181 3078 1170 3100C 1159 3122 1150 3149 1150 3161C 1150 3173 1144 3191 1136 3199C 1129 3208 1118 3261 1111 3318C 1089 3522 1103 3763 1143 3852C 1152 3873 1160 3900 1160 3914C 1160 3927 1167 3951 1175 3966C 1183 3982 1190 4003 1190 4012C 1190 4021 1194 4031 1199 4035C 1204 4038 1212 4055 1216 4072C 1219 4090 1233 4121 1246 4142C 1259 4163 1270 4182 1270 4185C 1270 4195 1356 4316 1401 4370C 1511 4500 1700 4659 1762 4675C 1777 4679 1791 4688 1794 4696C 1797 4704 1805 4710 1813 4710C 1820 4710 1851 4722 1881 4738C 1932 4763 1973 4778 2095 4814C 2123 4822 2185 4832 2235 4835C 2284 4839 2333 4846 2345 4850C 2375 4863 2404 4862 2525 4845z" stroke="none" fill="#00B9B4" fill-rule="nonzero" />
        <path d="M4434 4675C 4430 4667 4435 4645 4444 4626C 4453 4607 4460 4579 4460 4563C 4460 4546 4467 4511 4475 4484C 4483 4457 4490 4419 4490 4399C 4490 4379 4497 4341 4505 4314C 4513 4287 4520 4249 4520 4229C 4520 4209 4527 4173 4535 4150C 4543 4127 4550 4092 4550 4073C 4550 4054 4556 4011 4564 3977C 4585 3890 4601 3805 4611 3735C 4628 3615 4633 3590 4644 3582C 4650 3578 4691 3577 4735 3580L4735 3580L4815 3585L4821 3650C 4824 3686 4830 3722 4835 3729C 4839 3737 4846 3770 4850 3804C 4859 3871 4874 3953 4896 4047C 4904 4081 4910 4124 4910 4143C 4910 4162 4917 4197 4925 4220C 4933 4243 4940 4279 4940 4299C 4940 4319 4947 4357 4955 4384C 4963 4411 4970 4447 4970 4465C 4970 4482 4979 4533 4991 4579C 5002 4624 5009 4668 5006 4676C 5002 4686 4982 4690 4926 4690C 4835 4690 4833 4688 4825 4569C 4821 4523 4812 4455 4804 4418C 4796 4381 4790 4332 4790 4308C 4790 4284 4785 4247 4779 4225C 4772 4203 4765 4127 4761 4055L4761 4055L4755 3925L4728 3922C 4712 3920 4699 3920 4699 3922C 4698 3924 4694 3986 4689 4060C 4678 4246 4663 4395 4652 4433C 4646 4451 4639 4507 4636 4558C 4628 4690 4627 4690 4524 4690C 4458 4690 4438 4687 4434 4675z" stroke="none" fill="#00B9B4" fill-rule="nonzero" />
        <path d="M5096 4682C 5089 4671 5087 3593 5094 3582C 5098 3575 5152 3574 5230 3580C 5233 3580 5235 3829 5235 4133L5235 4133L5235 4685L5168 4688C 5132 4690 5099 4687 5096 4682z" stroke="none" fill="#00B9B4" fill-rule="nonzero" />
        <path d="M6349 4683C 6344 4624 6352 3585 6357 3580C 6361 3576 6394 3576 6428 3579L6428 3579L6492 3585L6493 3908C 6495 4216 6496 4232 6514 4246C 6542 4266 6584 4263 6604 4241C 6619 4224 6621 4191 6619 3906C 6619 3731 6621 3586 6624 3582C 6629 3578 6718 3576 6761 3580C 6764 3580 6765 3730 6763 3913C 6759 4247 6754 4305 6721 4344C 6701 4367 6657 4390 6631 4390C 6606 4390 6540 4359 6540 4348C 6540 4334 6501 4300 6484 4300C 6471 4300 6469 4307 6474 4333C 6483 4377 6498 4662 6493 4678C 6487 4691 6351 4696 6349 4683z" stroke="none" fill="#00B9B4" fill-rule="nonzero" />
        <path d="M7720 4678C 7714 4446 7722 3585 7729 3581C 7740 3574 7849 3576 7856 3583C 7859 3586 7861 3835 7861 4136L7861 4136L7861 4685L7791 4688C 7738 4690 7720 4688 7720 4678z" stroke="none" fill="#00B9B4" fill-rule="nonzero" />
        <path d="M11840 4673C 11838 4389 11841 3587 11844 3582C 11846 3578 11879 3575 11917 3576L11917 3576L11985 3577L11985 3701C 11985 3778 11989 3833 11997 3845C 12003 3856 12011 3873 12014 3883C 12024 3916 12054 3898 12062 3855C 12080 3750 12089 3710 12099 3691C 12105 3680 12110 3656 12110 3637C 12110 3591 12123 3583 12200 3579C 12260 3575 12265 3577 12268 3597C 12270 3609 12263 3640 12252 3667C 12227 3731 12210 3778 12200 3815C 12190 3852 12172 3903 12151 3954C 12131 4003 12132 4061 12154 4091C 12163 4104 12170 4122 12170 4131C 12170 4148 12176 4162 12214 4238C 12223 4257 12230 4280 12230 4290C 12230 4299 12237 4313 12245 4320C 12253 4327 12260 4343 12260 4357C 12260 4380 12258 4381 12189 4378L12189 4378L12118 4375L12100 4320C 12091 4290 12075 4238 12065 4205C 12055 4172 12044 4137 12039 4128C 12034 4118 12030 4095 12030 4077C 12030 4038 12013 4013 11985 4008C 11968 4006 11965 4010 11967 4035C 11981 4207 11990 4424 11988 4541L11988 4541L11985 4685L11913 4688C 11848 4691 11840 4689 11840 4673z" stroke="none" fill="#00B9B4" fill-rule="nonzero" />
        <path d="M7972 4558L7975 4476L8042 4473C 8121 4470 8123 4474 8118 4575L8118 4575L8115 4635L8042 4638L7969 4641L7972 4558z" stroke="none" fill="#00B9B4" fill-rule="nonzero" />
        <path d="M7005 4538C 6995 4532 6972 4524 6955 4520C 6925 4514 6925 4514 6922 4442L6922 4442L6919 4370L6874 4370L6829 4370L6832 4313L6835 4255L6878 4252L6920 4249L6920 3936C 6920 3564 6916 3579 7022 3575C 7098 3571 7111 3583 7082 3628C 7067 3651 7064 3691 7060 3942C 7057 4101 7057 4235 7058 4240C 7060 4246 7081 4250 7105 4250L7105 4250L7148 4250L7152 4303C 7155 4331 7155 4358 7153 4363C 7151 4367 7128 4370 7103 4370L7103 4370L7057 4370L7064 4460C 7071 4550 7071 4550 7048 4550C 7035 4550 7016 4544 7005 4538z" stroke="none" fill="#00B9B4" fill-rule="nonzero" />
        <path d="M9086 4445C 9083 4436 9080 4421 9080 4413C 9080 4376 9024 4360 8975 4382C 8956 4391 8938 4390 8897 4381C 8772 4350 8728 4258 8745 4056C 8752 3976 8755 3968 8787 3935C 8821 3900 8821 3898 8804 3879C 8795 3869 8781 3860 8773 3860C 8766 3860 8750 3840 8738 3816L8738 3816L8717 3772L8737 3734C 8748 3712 8766 3691 8778 3685C 8808 3672 8806 3663 8760 3619C 8720 3580 8720 3579 8720 3506C 8720 3397 8754 3348 8858 3307C 8956 3268 9086 3304 9142 3386C 9167 3422 9169 3432 9170 3529C 9170 3614 9167 3638 9151 3664C 9118 3717 9081 3737 9004 3744C 8897 3754 8872 3760 8855 3776C 8836 3795 8836 3819 8856 3845C 8868 3861 8881 3864 8933 3862C 9022 3858 9081 3891 9122 3966C 9136 3993 9140 4023 9140 4116C 9140 4217 9137 4235 9120 4257C 9091 4295 9094 4310 9133 4310C 9180 4310 9198 4334 9202 4400L9202 4400L9205 4455L9149 4458C 9104 4460 9091 4458 9086 4445zM8971 4260C 9004 4242 9016 4200 9014 4114C 9011 4005 8993 3970 8938 3970C 8920 3970 8905 3979 8891 3999C 8873 4023 8870 4043 8870 4122C 8870 4195 8874 4220 8888 4236C 8914 4269 8940 4276 8971 4260zM9028 3607C 9046 3591 9050 3576 9050 3530C 9050 3471 9042 3454 8998 3427C 8959 3403 8919 3406 8887 3435C 8863 3458 8860 3468 8860 3528C 8860 3605 8864 3613 8905 3628C 8945 3643 9000 3633 9028 3607z" stroke="none" fill="#00B9B4" fill-rule="nonzero" />
        <path d="M5995 4377C 5946 4358 5913 4331 5888 4292C 5865 4256 5865 4250 5865 3975C 5865 3715 5866 3692 5884 3665C 5913 3620 5943 3590 5960 3590C 5968 3590 5984 3583 5994 3575C 6041 3540 6158 3572 6204 3633C 6234 3672 6262 3775 6258 3828L6258 3828L6255 3865L6195 3865L6135 3865L6134 3810C 6133 3734 6133 3733 6110 3710C 6082 3682 6044 3685 6015 3716L6015 3716L5990 3743L5990 3972C 5990 4188 5991 4204 6011 4231C 6039 4271 6090 4272 6119 4232C 6135 4209 6138 4193 6133 4149C 6126 4081 6137 4071 6205 4079C 6253 4085 6255 4086 6258 4119C 6260 4138 6254 4186 6244 4227C 6231 4284 6220 4307 6194 4332C 6140 4385 6062 4403 5995 4377z" stroke="none" fill="#00B9B4" fill-rule="nonzero" />
        <path d="M7357 4377C 7308 4361 7265 4319 7240 4263C 7222 4221 7220 4196 7220 3968C 7220 3750 7222 3714 7237 3687C 7266 3635 7302 3600 7349 3579C 7403 3555 7446 3555 7497 3578C 7574 3612 7605 3661 7619 3770C 7630 3860 7625 3865 7549 3864L7549 3864L7495 3864L7492 3794C 7490 3738 7486 3722 7469 3708C 7441 3684 7405 3685 7380 3710C 7361 3729 7360 3741 7362 3843L7362 3843L7365 3955L7490 3955L7615 3955L7614 4106C 7613 4256 7613 4258 7584 4301C 7536 4373 7442 4404 7357 4377zM7472 4243C 7487 4230 7490 4211 7490 4133L7490 4133L7490 4040L7424 4040L7358 4040L7362 4140C 7364 4216 7369 4243 7380 4250C 7404 4265 7452 4262 7472 4243z" stroke="none" fill="#00B9B4" fill-rule="nonzero" />
        <path d="M8445 4375C 8429 4368 8407 4348 8397 4331C 8372 4288 8350 4290 8350 4335C 8350 4373 8353 4372 8244 4374L8244 4374L8218 4375L8218 3982C 8218 3766 8220 3586 8223 3583C 8231 3576 8348 3575 8356 3582C 8359 3586 8361 3727 8360 3897L8360 3897L8359 4206L8384 4233C 8412 4264 8451 4268 8475 4244C 8489 4229 8491 4191 8489 3907C 8487 3543 8480 3571 8576 3580L8576 3580L8633 3585L8631 3940C 8629 4277 8628 4296 8608 4328C 8588 4361 8534 4391 8496 4389C 8485 4389 8462 4382 8445 4375z" stroke="none" fill="#00B9B4" fill-rule="nonzero" />
        <path d="M9372 4373C 9323 4356 9274 4303 9255 4246C 9235 4188 9232 3770 9251 3715C 9281 3626 9364 3560 9446 3560C 9519 3560 9600 3622 9627 3697C 9634 3718 9643 3763 9646 3798L9646 3798L9653 3861L9579 3858L9505 3855L9508 3789C 9512 3729 9510 3721 9489 3706C 9459 3686 9436 3686 9405 3706C 9381 3722 9380 3726 9380 3842L9380 3842L9380 3962L9513 3959L9645 3955L9642 4085C 9640 4162 9632 4233 9624 4258C 9606 4314 9558 4362 9506 4377C 9454 4393 9426 4392 9372 4373zM9490 4250C 9501 4243 9506 4216 9508 4140L9508 4140L9512 4040L9446 4040L9380 4040L9380 4132C 9380 4203 9384 4227 9397 4242C 9414 4261 9465 4266 9490 4250z" stroke="none" fill="#00B9B4" fill-rule="nonzero" />
        <path d="M9968 4376C 9953 4370 9926 4345 9908 4322C 9890 4299 9872 4280 9868 4280C 9864 4280 9860 4301 9858 4326L9858 4326L9855 4373L9798 4375C 9766 4377 9740 4374 9740 4369C 9737 4261 9740 3587 9744 3582C 9747 3577 9777 3575 9812 3576C 9847 3578 9878 3579 9882 3580C 9886 3580 9887 3712 9883 3873C 9880 4044 9881 4179 9887 4200C 9899 4245 9937 4268 9977 4254L9977 4254L10005 4245L10010 3910L10015 3576L10085 3576L10155 3576L10158 3910C 10160 4194 10158 4251 10145 4285C 10110 4374 10042 4409 9968 4376z" stroke="none" fill="#00B9B4" fill-rule="nonzero" />
        <path d="M11100 4376C 11052 4361 11025 4340 10993 4294L10993 4294L10965 4255L10965 3975C 10965 3715 10966 3693 10984 3665C 11010 3625 11036 3604 11089 3580C 11144 3555 11189 3555 11238 3580C 11322 3624 11363 3699 11358 3800L11358 3800L11355 3865L11305 3865C 11230 3865 11221 3859 11227 3806C 11234 3744 11224 3713 11192 3696C 11166 3683 11160 3683 11132 3700C 11093 3724 11088 3742 11092 3860L11092 3860L11095 3955L11225 3955L11355 3955L11358 4086C 11360 4199 11358 4222 11340 4262C 11294 4366 11202 4410 11100 4376zM11216 4230C 11223 4216 11230 4169 11232 4125L11232 4125L11235 4045L11163 4042L11090 4039L11090 4121C 11090 4187 11094 4207 11111 4231C 11129 4256 11138 4261 11168 4258C 11196 4256 11208 4249 11216 4230z" stroke="none" fill="#00B9B4" fill-rule="nonzero" />
        <path d="M11672 4370C 11654 4359 11636 4342 11633 4332C 11629 4323 11617 4305 11604 4292C 11576 4263 11566 4277 11575 4330C 11580 4360 11578 4370 11568 4371C 11561 4371 11533 4372 11505 4373L11505 4373L11455 4375L11455 3975L11455 3576L11525 3576L11595 3576L11598 3874C 11600 4171 11600 4173 11623 4196C 11640 4213 11660 4220 11700 4222L11700 4222L11754 4225L11755 4295C 11755 4334 11754 4371 11752 4378C 11746 4396 11709 4393 11672 4370z" stroke="none" fill="#00B9B4" fill-rule="nonzero" />
        <path d="M5337 4374C 5336 4373 5336 4217 5337 4028C 5339 3643 5341 3630 5407 3585C 5428 3571 5459 3560 5476 3560C 5512 3560 5590 3612 5597 3641C 5606 3674 5629 3662 5632 3623C 5635 3586 5636 3585 5685 3579C 5713 3575 5739 3576 5743 3580C 5747 3584 5751 3764 5751 3981L5751 3981L5752 4375L5693 4377C 5596 4379 5605 4411 5608 4055L5608 4055L5612 3740L5582 3710C 5550 3679 5532 3678 5497 3708C 5481 3722 5480 3749 5480 4043C 5481 4219 5478 4365 5475 4369C 5469 4375 5343 4380 5337 4374z" stroke="none" fill="#00B9B4" fill-rule="nonzero" />
        <path d="M7977 4374C 7968 4364 7968 3582 7978 3577C 7982 3575 8014 3576 8049 3579L8049 3579L8112 3585L8114 3978L8115 4370L8063 4370C 8035 4370 8005 4372 7998 4375C 7990 4378 7981 4377 7977 4374z" stroke="none" fill="#00B9B4" fill-rule="nonzero" />
        <path d="M10224 4368C 10220 4363 10224 4335 10233 4306C 10248 4256 10265 4169 10279 4060C 10283 4030 10292 3978 10298 3945C 10304 3912 10314 3860 10320 3830C 10326 3800 10335 3737 10340 3691C 10346 3644 10357 3599 10364 3591C 10374 3580 10395 3575 10432 3576L10432 3576L10485 3576L10491 3621C 10505 3726 10522 3851 10532 3930C 10552 4087 10581 4088 10591 3932C 10604 3742 10621 3605 10635 3590C 10644 3580 10667 3575 10701 3575L10701 3575L10753 3575L10771 3665C 10781 3715 10790 3769 10790 3785C 10790 3802 10797 3837 10805 3864C 10813 3891 10820 3930 10820 3951C 10820 3972 10825 4001 10831 4017C 10837 4032 10845 4074 10850 4110C 10859 4187 10878 4282 10892 4329C 10905 4372 10893 4381 10820 4378L10820 4378L10765 4375L10759 4315C 10755 4282 10747 4224 10741 4185C 10735 4147 10730 4085 10730 4048C 10730 3987 10706 3843 10695 3831C 10692 3829 10684 3832 10677 3839C 10666 3850 10660 3915 10644 4245C 10638 4370 10632 4380 10565 4380C 10499 4380 10492 4369 10487 4260C 10481 4121 10461 3857 10455 3843C 10437 3793 10400 3896 10400 3999C 10400 4041 10395 4116 10389 4165C 10383 4215 10375 4282 10371 4315L10371 4315L10365 4375L10298 4377C 10259 4378 10228 4375 10224 4368z" stroke="none" fill="#00B9B4" fill-rule="nonzero" />
        <path d="M3675 3919C 3653 3915 3568 3911 3485 3910C 3396 3910 3315 3904 3285 3896C 3240 3884 3234 3878 3239 3852C 3240 3841 3320 3806 3395 3784C 3476 3761 3518 3742 3541 3719C 3595 3665 3526 3609 3380 3589C 3344 3585 3299 3576 3280 3570C 3261 3565 3225 3560 3200 3560C 3175 3560 3137 3555 3115 3549C 3093 3544 3050 3535 3020 3531C 2871 3507 2791 3434 2832 3357C 2850 3323 2890 3294 2977 3251C 3003 3238 3032 3224 3040 3219C 3048 3214 3062 3207 3070 3204C 3095 3195 3193 3153 3250 3128C 3269 3119 3292 3109 3300 3106C 3338 3090 3417 3039 3460 3002C 3517 2953 3560 2868 3560 2806C 3560 2783 3563 2760 3567 2757C 3574 2749 3620 2788 3620 2802C 3620 2806 3634 2840 3651 2877C 3712 3013 3728 3055 3739 3111C 3743 3130 3751 3153 3755 3161C 3760 3169 3768 3200 3772 3230C 3776 3260 3784 3305 3789 3330C 3805 3400 3802 3655 3785 3725C 3777 3758 3771 3801 3770 3820C 3770 3857 3742 3923 3725 3926C 3720 3927 3697 3924 3675 3919zM3648 3844C 3655 3842 3658 3835 3655 3830C 3651 3824 3653 3813 3660 3806C 3674 3788 3680 3760 3687 3685C 3689 3652 3696 3621 3701 3616C 3706 3610 3705 3601 3698 3593C 3690 3583 3692 3570 3705 3540C 3719 3509 3720 3495 3712 3473C 3706 3458 3699 3418 3695 3385C 3684 3274 3678 3235 3669 3212C 3664 3199 3660 3177 3660 3162C 3660 3113 3606 3031 3573 3030C 3567 3030 3535 3052 3503 3080C 3471 3107 3440 3130 3433 3130C 3427 3130 3409 3140 3393 3153C 3361 3179 3175 3271 3115 3290C 3049 3311 2981 3366 2980 3397C 2980 3418 3051 3447 3120 3454C 3155 3457 3189 3465 3194 3470C 3200 3476 3229 3480 3260 3480C 3332 3481 3436 3504 3459 3524C 3469 3533 3488 3540 3501 3540C 3535 3540 3567 3565 3590 3609C 3600 3630 3616 3650 3625 3653C 3644 3661 3645 3680 3626 3680C 3610 3680 3600 3701 3600 3739C 3600 3767 3579 3806 3551 3828C 3518 3854 3582 3865 3648 3844z" stroke="none" fill="#00B9B4" fill-rule="nonzero" />
        <path d="M4631 3101C 4616 3091 4620 3061 4656 2918C 4664 2886 4670 2845 4670 2826C 4670 2808 4677 2773 4685 2750C 4693 2727 4700 2691 4701 2671C 4702 2617 4724 2520 4738 2511C 4744 2507 4766 2506 4785 2508C 4824 2513 4821 2508 4840 2625C 4846 2664 4856 2715 4862 2740C 4868 2765 4876 2810 4880 2840C 4884 2870 4892 2915 4898 2940C 4937 3102 4937 3109 4884 3110C 4838 3110 4827 3089 4819 2984C 4795 2688 4771 2632 4749 2820C 4743 2872 4735 2954 4732 3002C 4728 3049 4722 3091 4719 3095C 4707 3106 4645 3111 4631 3101z" stroke="none" fill="#00B9B4" fill-rule="nonzero" />
        <path d="M5142 3091C 5138 3080 5136 2945 5138 2791L5138 2791L5141 2510L5255 2510L5370 2510L5370 2556L5370 2602L5313 2600C 5281 2599 5250 2598 5245 2599C 5237 2600 5235 2677 5238 2840C 5241 3022 5239 3084 5230 3095C 5211 3118 5151 3115 5142 3091z" stroke="none" fill="#00B9B4" fill-rule="nonzero" />
        <path d="M5662 3092C 5657 3083 5648 3041 5641 3000C 5635 2959 5625 2900 5618 2870C 5612 2840 5604 2784 5600 2745C 5596 2707 5588 2664 5583 2650C 5577 2636 5570 2600 5566 2568C 5559 2517 5561 2511 5579 2505C 5603 2498 5642 2508 5652 2524C 5656 2530 5660 2556 5660 2583L5660 2583L5660 2630L5705 2630L5750 2630L5750 2576C 5750 2546 5754 2518 5760 2515C 5776 2505 5849 2505 5859 2515C 5866 2522 5864 2541 5855 2570C 5837 2629 5819 2719 5810 2801C 5806 2837 5800 2872 5796 2879C 5791 2886 5784 2932 5780 2981C 5772 3083 5760 3103 5705 3107C 5681 3108 5668 3104 5662 3092zM5725 2862C 5728 2836 5735 2795 5741 2772C 5754 2713 5746 2690 5710 2690C 5694 2690 5678 2695 5675 2700C 5669 2710 5686 2876 5696 2908C 5704 2933 5719 2909 5725 2862z" stroke="none" fill="#00B9B4" fill-rule="nonzero" />
        <path d="M6173 3103C 6144 3099 6140 3094 6135 3062C 6132 3042 6125 3003 6120 2977C 6114 2950 6110 2914 6110 2897C 6110 2879 6103 2843 6095 2816C 6087 2789 6080 2748 6080 2725C 6080 2701 6074 2665 6066 2644C 6059 2622 6050 2584 6046 2558C 6039 2514 6041 2510 6062 2505C 6075 2502 6098 2504 6113 2509C 6138 2519 6140 2524 6140 2575L6140 2575L6140 2631L6188 2628L6235 2625L6240 2571C 6244 2522 6248 2516 6273 2507C 6288 2502 6312 2501 6327 2504C 6347 2510 6351 2515 6347 2533C 6344 2545 6337 2573 6331 2595C 6316 2657 6299 2748 6290 2825C 6285 2864 6277 2908 6271 2923C 6265 2939 6260 2980 6260 3015C 6260 3070 6257 3081 6238 3094C 6226 3103 6213 3109 6210 3108C 6207 3108 6191 3105 6173 3103zM6216 2816C 6235 2711 6232 2690 6195 2690C 6160 2690 6157 2705 6165 2815C 6174 2942 6192 2943 6216 2816z" stroke="none" fill="#00B9B4" fill-rule="nonzero" />
        <path d="M6565 3099C 6561 3094 6557 2959 6557 2800C 6555 2575 6558 2509 6568 2505C 6583 2500 6639 2510 6645 2520C 6647 2523 6642 2595 6634 2679C 6626 2763 6623 2836 6626 2842C 6636 2859 6678 2810 6685 2773C 6688 2753 6695 2730 6699 2721C 6704 2712 6715 2680 6723 2650C 6759 2527 6762 2518 6785 2508C 6799 2502 6814 2501 6824 2507C 6839 2515 6841 2547 6842 2805C 6843 3121 6843 3121 6786 3106L6786 3106L6759 3099L6766 2931C 6775 2714 6755 2696 6703 2875C 6696 2903 6682 2948 6674 2975C 6665 3003 6656 3040 6653 3058C 6649 3081 6640 3094 6623 3101C 6591 3113 6573 3112 6565 3099z" stroke="none" fill="#00B9B4" fill-rule="nonzero" />
        <path d="M7705 3103C 7656 3101 7611 3095 7607 3091C 7602 3086 7598 2955 7598 2799L7598 2799L7598 2515L7717 2515L7835 2515L7835 2555L7835 2595L7762 2598L7689 2601L7692 2688L7695 2775L7737 2775C 7790 2775 7805 2789 7793 2827C 7784 2852 7779 2855 7739 2855L7739 2855L7695 2855L7695 2935L7695 3015L7765 3015L7835 3015L7838 3050C 7841 3074 7836 3088 7824 3097C 7814 3104 7804 3109 7801 3108C 7798 3107 7755 3104 7705 3103z" stroke="none" fill="#00B9B4" fill-rule="nonzero" />
        <path d="M8065 3100C 8057 3087 8058 2518 8066 2510C 8071 2506 8092 2505 8113 2507L8113 2507L8151 2512L8150 2624C 8149 2685 8149 2741 8149 2748C 8150 2754 8163 2760 8179 2760C 8239 2760 8240 2757 8240 2641C 8240 2583 8244 2529 8248 2522C 8259 2505 8321 2497 8340 2509C 8352 2518 8353 2523 8343 2540C 8335 2552 8330 2595 8330 2648C 8330 2733 8329 2737 8300 2765L8300 2765L8271 2793L8300 2823C 8328 2852 8330 2859 8330 2933C 8330 3067 8298 3095 8137 3103C 8099 3104 8067 3103 8065 3100zM8228 3008C 8244 2992 8244 2856 8227 2842C 8221 2836 8203 2829 8188 2825C 8151 2816 8143 2838 8148 2938L8148 2938L8152 3020L8184 3020C 8202 3020 8221 3015 8228 3008z" stroke="none" fill="#00B9B4" fill-rule="nonzero" />
        <path d="M8573 3097C 8570 3092 8567 2958 8567 2799L8567 2799L8565 2509L8685 2512L8805 2515L8805 2555L8805 2595L8731 2600L8656 2605L8656 2690L8655 2775L8705 2775C 8752 2775 8755 2776 8758 2803C 8763 2844 8746 2859 8701 2853C 8655 2847 8650 2858 8657 2955L8657 2955L8663 3021L8734 3018L8805 3015L8808 3045C 8812 3098 8802 3103 8685 3104C 8626 3105 8576 3101 8573 3097z" stroke="none" fill="#00B9B4" fill-rule="nonzero" />
        <path d="M9025 3097C 9022 3090 9021 2954 9022 2795C 9025 2523 9026 2505 9043 2502C 9053 2500 9073 2501 9087 2505L9087 2505L9112 2511L9108 2673C 9106 2808 9107 2835 9119 2835C 9128 2835 9142 2807 9158 2755C 9171 2711 9185 2666 9190 2655C 9194 2644 9206 2607 9217 2573C 9236 2509 9247 2500 9295 2508C 9314 2511 9315 2519 9315 2800C 9315 3001 9312 3092 9304 3100C 9298 3106 9280 3110 9264 3108L9264 3108L9235 3105L9234 2955C 9232 2761 9232 2758 9218 2762C 9208 2766 9195 2799 9156 2935C 9119 3061 9106 3096 9096 3102C 9078 3114 9030 3111 9025 3097z" stroke="none" fill="#00B9B4" fill-rule="nonzero" />
        <path d="M7088 3094C 7083 3090 7080 2957 7080 2798L7080 2798L7080 2510L7176 2510C 7287 2510 7330 2528 7350 2583C 7358 2602 7364 2687 7366 2797C 7369 2967 7368 2981 7347 3022C 7334 3047 7313 3071 7295 3080C 7263 3096 7100 3107 7088 3094zM7255 3000C 7271 2982 7273 2961 7273 2811C 7272 2718 7269 2632 7265 2621C 7258 2597 7214 2583 7192 2596C 7180 2604 7177 2640 7176 2800C 7175 2907 7178 3001 7183 3008C 7197 3026 7235 3022 7255 3000z" stroke="none" fill="#00B9B4" fill-rule="nonzero" />
	</g>
</g>
</svg>