<?xml version="1.0" encoding="UTF-8"?>
<svg xmlns="http://www.w3.org/2000/svg" xmlns:xlink="http://www.w3.org/1999/xlink" width="361px" height="271px" viewBox="0 0 361 271" version="1.1">
<g id="surface1">
<path style=" stroke:none;fill-rule:nonzero;fill:rgb(34.117647%,45.098039%,56.078431%);fill-opacity:1;" d="M 41.574219 232.179688 C 16.628906 232.179688 0 213.019531 0 191.324219 L 0 151.476562 C 0 129.777344 16.628906 110.621094 41.574219 110.621094 C 66.519531 110.621094 76.351562 128.027344 78.367188 132.566406 C 79.375 134.84375 79.882812 138.117188 76.851562 140.128906 L 70.796875 144.421875 C 68.023438 146.4375 65.253906 146.191406 63.238281 143.167969 C 60.976562 139.632812 55.683594 128.535156 41.574219 128.535156 C 27.457031 128.535156 19.402344 140.144531 19.402344 151.488281 L 19.402344 191.335938 C 19.402344 202.695312 27.46875 214.292969 41.574219 214.292969 C 55.683594 214.292969 60.480469 203.953125 63.238281 200.15625 C 65.515625 196.871094 68.023438 196.375 70.796875 198.140625 L 76.585938 202.171875 C 79.871094 204.449219 80.367188 206.960938 78.863281 209.734375 C 76.089844 215.285156 66.519531 232.179688 41.574219 232.179688 Z M 41.574219 232.179688 "/>
<path style=" stroke:none;fill-rule:nonzero;fill:rgb(34.117647%,45.098039%,56.078431%);fill-opacity:1;" d="M 144.792969 229.667969 L 103.050781 229.667969 C 99.519531 229.667969 97.507812 227.652344 97.507812 224.117188 L 97.507812 218.570312 C 97.507812 215.023438 99.519531 213.019531 103.050781 213.019531 L 109.339844 213.019531 C 112.867188 213.019531 114.882812 211.007812 114.882812 207.472656 L 114.882812 135.339844 C 114.882812 131.808594 112.867188 129.792969 109.339844 129.792969 L 109.585938 129.792969 C 106.054688 129.792969 104.042969 127.777344 104.042969 124.246094 L 104.042969 118.695312 C 104.042969 115.164062 106.054688 113.148438 109.585938 113.148438 L 138.613281 113.148438 C 142.144531 113.148438 144.15625 115.164062 144.15625 118.695312 L 144.15625 124.246094 C 144.15625 127.765625 142.144531 129.792969 138.613281 129.792969 L 139.578125 129.792969 C 136.050781 129.792969 134.035156 131.808594 134.035156 135.339844 L 134.035156 207.472656 C 134.035156 211.007812 136.050781 213.019531 139.578125 213.019531 L 144.792969 213.019531 C 148.320312 213.019531 150.335938 215.035156 150.335938 218.570312 L 150.335938 224.117188 C 150.335938 227.652344 148.320312 229.667969 144.792969 229.667969 Z M 144.792969 229.667969 "/>
<path style=" stroke:none;fill-rule:nonzero;fill:rgb(34.117647%,45.098039%,56.078431%);fill-opacity:1;" d="M 248.945312 174.429688 C 246.933594 172.664062 246.933594 170.648438 248.945312 169.128906 C 252.226562 166.605469 260.292969 160.558594 260.292969 146.425781 C 260.292969 123.980469 242.410156 110.621094 218.730469 110.605469 C 218.730469 110.605469 218.730469 110.605469 218.71875 110.605469 C 218.71875 110.605469 218.71875 110.605469 218.703125 110.605469 C 218.675781 110.605469 218.664062 110.605469 218.636719 110.605469 C 217.988281 110.605469 217.339844 110.621094 216.703125 110.648438 C 216.359375 110.664062 216 110.691406 215.65625 110.703125 C 215.394531 110.71875 215.132812 110.746094 214.882812 110.757812 C 212.789062 110.925781 210.761719 111.242188 208.804688 111.671875 C 208.691406 111.699219 208.597656 111.710938 208.5 111.738281 C 208.113281 111.835938 207.714844 111.917969 207.328125 112.015625 C 202.847656 113.160156 199.179688 114.816406 196.738281 116.390625 C 195.46875 117.148438 194.214844 117.148438 193.207031 115.382812 C 192.449219 114.113281 191.195312 113.105469 189.167969 113.105469 L 182.601562 113.105469 C 179.058594 113.105469 177.046875 115.132812 177.046875 118.667969 L 177.046875 191.488281 L 177.128906 191.488281 L 177.128906 224.078125 C 177.128906 227.609375 179.140625 229.625 182.671875 229.625 L 190.988281 229.625 C 194.503906 229.625 196.53125 227.609375 196.53125 224.078125 L 196.53125 185.238281 C 196.53125 181.703125 198.542969 179.6875 202.074219 179.6875 L 218.703125 179.6875 C 232.8125 179.6875 240.878906 191.28125 240.878906 202.640625 L 240.878906 224.078125 C 240.878906 227.609375 242.890625 229.625 246.421875 229.625 L 254.738281 229.625 C 258.265625 229.625 260.28125 227.609375 260.28125 224.078125 L 260.28125 202.640625 C 260.28125 187.046875 254.488281 179.21875 248.945312 174.429688 Z M 218.703125 163.085938 L 202.074219 163.085938 C 198.542969 163.085938 196.53125 161.070312 196.53125 157.535156 L 196.53125 151.488281 C 196.53125 147.957031 197.316406 144.382812 198.820312 141.164062 C 198.957031 140.863281 199.136719 140.574219 199.289062 140.269531 C 199.453125 139.9375 199.621094 139.605469 199.796875 139.289062 C 200.074219 138.832031 200.363281 138.390625 200.667969 137.949219 C 200.765625 137.796875 200.859375 137.644531 200.957031 137.496094 C 201.261719 137.066406 201.589844 136.667969 201.921875 136.265625 C 202.046875 136.113281 202.15625 135.949219 202.28125 135.8125 C 202.554688 135.492188 202.875 135.1875 203.164062 134.886719 C 203.371094 134.679688 203.5625 134.445312 203.785156 134.25 C 204.003906 134.042969 204.253906 133.851562 204.5 133.644531 C 204.816406 133.367188 205.121094 133.089844 205.453125 132.84375 C 205.632812 132.703125 205.8125 132.59375 205.988281 132.46875 C 206.402344 132.167969 206.832031 131.875 207.273438 131.601562 C 207.4375 131.503906 207.632812 131.421875 207.796875 131.324219 C 208.265625 131.0625 208.734375 130.800781 209.230469 130.566406 C 209.535156 130.425781 209.863281 130.304688 210.195312 130.179688 C 210.570312 130.027344 210.941406 129.863281 211.328125 129.738281 C 213.492188 129.007812 215.878906 128.605469 218.46875 128.605469 L 218.46875 128.535156 C 218.550781 128.535156 218.621094 128.523438 218.703125 128.523438 C 230.550781 128.523438 240.878906 134.320312 240.878906 146.4375 C 240.878906 160.558594 225.253906 163.085938 218.703125 163.085938 Z M 218.703125 163.085938 "/>
<path style=" stroke:none;fill-rule:nonzero;fill:rgb(34.117647%,45.098039%,56.078431%);fill-opacity:1;" d="M 302.792969 179.730469 L 349.914062 179.730469 C 356.972656 179.730469 361 175.6875 361 168.632812 L 361 151.476562 C 361 129.777344 344.371094 110.621094 319.425781 110.621094 C 294.480469 110.621094 277.847656 129.792969 277.847656 151.476562 L 277.847656 191.324219 C 277.847656 213.019531 294.480469 232.179688 319.425781 232.179688 C 340.589844 232.179688 352.933594 220.074219 358.988281 210.234375 C 360.242188 208.21875 360.75 204.683594 357.71875 202.40625 L 352.175781 198.375 C 349.652344 196.609375 346.382812 196.859375 344.617188 199.382812 C 340.328125 205.195312 332.523438 214.277344 319.425781 214.277344 C 305.316406 214.277344 297.25 202.667969 297.25 191.324219 L 297.25 185.277344 C 297.25 181.746094 299.261719 179.730469 302.792969 179.730469 Z M 297.25 151.476562 C 297.25 140.117188 305.316406 128.523438 319.425781 128.523438 C 333.53125 128.523438 341.597656 140.128906 341.597656 151.476562 L 341.597656 157.523438 C 341.597656 161.054688 339.585938 163.070312 336.054688 163.070312 L 302.792969 163.070312 C 299.261719 163.070312 297.25 161.054688 297.25 157.523438 Z M 297.25 151.476562 "/>
<path style=" stroke:none;fill-rule:nonzero;fill:rgb(94.117647%,54.117647%,1.176471%);fill-opacity:1;" d="M 344.371094 63.265625 C 348.660156 67.046875 345.886719 72.097656 341.335938 72.097656 L 331.253906 72.097656 C 325.960938 72.097656 321.933594 69.574219 319.410156 65.542969 L 308.335938 47.378906 C 303.304688 39.054688 313.878906 34.515625 324.472656 44.605469 Z M 344.371094 63.265625 "/>
<path style=" stroke:none;fill-rule:nonzero;fill:rgb(34.117647%,45.098039%,56.078431%);fill-opacity:1;" d="M 324.472656 90.691406 C 313.878906 100.78125 303.304688 96.238281 308.335938 87.902344 L 319.425781 69.753906 C 321.949219 65.707031 325.972656 63.183594 331.269531 63.183594 L 341.351562 63.183594 C 345.886719 63.183594 348.660156 68.234375 344.382812 72.015625 Z M 324.472656 90.691406 "/>
<path style=" stroke:none;fill-rule:nonzero;fill:rgb(94.117647%,54.117647%,1.176471%);fill-opacity:1;" d="M 137.484375 67.003906 C 137.484375 74.5 131.414062 80.574219 123.929688 80.574219 C 116.441406 80.574219 110.371094 74.5 110.371094 67.003906 C 110.371094 59.511719 116.441406 53.4375 123.929688 53.4375 C 131.414062 53.4375 137.484375 59.511719 137.484375 67.003906 Z M 137.484375 67.003906 "/>
<path style=" stroke:none;fill-rule:nonzero;fill:rgb(94.117647%,54.117647%,1.176471%);fill-opacity:1;" d="M 203.535156 67.003906 C 203.535156 74.5 197.46875 80.574219 189.980469 80.574219 C 182.492188 80.574219 176.410156 74.5 176.410156 67.003906 C 176.410156 59.511719 182.480469 53.4375 189.980469 53.4375 C 197.46875 53.4375 203.535156 59.511719 203.535156 67.003906 Z M 203.535156 67.003906 "/>
<path style=" stroke:none;fill-rule:nonzero;fill:rgb(94.117647%,54.117647%,1.176471%);fill-opacity:1;" d="M 269.601562 67.003906 C 269.601562 74.5 263.535156 80.574219 256.046875 80.574219 C 248.558594 80.574219 242.492188 74.5 242.492188 67.003906 C 242.492188 59.511719 248.558594 53.4375 256.046875 53.4375 C 263.535156 53.4375 269.601562 59.511719 269.601562 67.003906 Z M 269.601562 67.003906 "/>
</g>
</svg>
