<?xml version="1.0" encoding="utf-8"?>
<!-- Generator: Adobe Illustrator 24.0.0, SVG Export Plug-In . SVG Version: 6.00 Build 0)  -->
<svg version="1.1" id="Layer_1" xmlns="http://www.w3.org/2000/svg" xmlns:xlink="http://www.w3.org/1999/xlink" x="0px" y="0px"
	 viewBox="0 0 261.79 140.09" style="enable-background:new 0 0 261.79 140.09;" xml:space="preserve">
<style type="text/css">
	.st0{fill:#57738F;}
	.st1{fill:#F08A03;}
</style>
<g>
	<g>
		<path class="st0" d="M30.15,140.09C12.06,140.09,0,126.21,0,110.49V81.62c0-15.72,12.06-29.6,30.15-29.6
			c18.09,0,25.22,12.61,26.68,15.9c0.73,1.65,1.1,4.02-1.1,5.48l-4.39,3.11c-2.01,1.46-4.02,1.28-5.48-0.91
			c-1.64-2.56-5.48-10.6-15.71-10.6c-10.24,0-16.08,8.41-16.08,16.63v28.87c0,8.23,5.85,16.63,16.08,16.63
			c10.23,0,13.71-7.49,15.71-10.24c1.65-2.38,3.47-2.74,5.48-1.46l4.2,2.92c2.38,1.65,2.74,3.47,1.65,5.48
			C55.18,127.85,48.24,140.09,30.15,140.09z"/>
		<path class="st0" d="M105,138.27H74.73c-2.56,0-4.02-1.46-4.02-4.02v-4.02c0-2.57,1.46-4.02,4.02-4.02h4.56
			c2.56,0,4.02-1.46,4.02-4.02V69.93c0-2.56-1.46-4.02-4.02-4.02h0.18c-2.56,0-4.02-1.46-4.02-4.02v-4.02
			c0-2.56,1.46-4.02,4.02-4.02h21.05c2.56,0,4.02,1.46,4.02,4.02v4.02c0,2.55-1.46,4.02-4.02,4.02h0.7c-2.56,0-4.02,1.46-4.02,4.02
			v52.26c0,2.56,1.46,4.02,4.02,4.02H105c2.56,0,4.02,1.46,4.02,4.02v4.02C109.02,136.81,107.56,138.27,105,138.27z"/>
		<path class="st0" d="M180.53,98.25c-1.46-1.28-1.46-2.74,0-3.84c2.38-1.83,8.23-6.21,8.23-16.45c0-16.26-12.97-25.94-30.14-25.95
			l0,0c0,0,0,0-0.01,0c0,0,0,0-0.01,0c-0.02,0-0.03,0-0.05,0c-0.47,0-0.94,0.01-1.4,0.03c-0.25,0.01-0.51,0.03-0.76,0.04
			c-0.19,0.01-0.38,0.03-0.56,0.04c-1.52,0.12-2.99,0.35-4.41,0.66c-0.08,0.02-0.15,0.03-0.22,0.05c-0.28,0.07-0.57,0.13-0.85,0.2
			c-3.25,0.83-5.91,2.03-7.68,3.17c-0.92,0.55-1.83,0.55-2.56-0.73c-0.55-0.92-1.46-1.65-2.93-1.65h-4.76
			c-2.57,0-4.03,1.47-4.03,4.03v52.76h0.06v23.61c0,2.56,1.46,4.02,4.02,4.02h6.03c2.55,0,4.02-1.46,4.02-4.02v-28.14
			c0-2.56,1.46-4.02,4.02-4.02h12.06c10.23,0,16.08,8.4,16.08,16.63v15.53c0,2.56,1.46,4.02,4.02,4.02h6.03
			c2.56,0,4.02-1.46,4.02-4.02v-15.53C188.75,107.39,184.55,101.72,180.53,98.25z M158.6,90.03h-12.06c-2.56,0-4.02-1.46-4.02-4.02
			v-4.38c0-2.56,0.57-5.15,1.66-7.48c0.1-0.22,0.23-0.43,0.34-0.65c0.12-0.24,0.24-0.48,0.37-0.71c0.2-0.33,0.41-0.65,0.63-0.97
			c0.07-0.11,0.14-0.22,0.21-0.33c0.22-0.31,0.46-0.6,0.7-0.89c0.09-0.11,0.17-0.23,0.26-0.33c0.2-0.23,0.43-0.45,0.64-0.67
			c0.15-0.15,0.29-0.32,0.45-0.46c0.16-0.15,0.34-0.29,0.52-0.44c0.23-0.2,0.45-0.4,0.69-0.58c0.13-0.1,0.26-0.18,0.39-0.27
			c0.3-0.22,0.61-0.43,0.93-0.63c0.12-0.07,0.26-0.13,0.38-0.2c0.34-0.19,0.68-0.38,1.04-0.55c0.22-0.1,0.46-0.19,0.7-0.28
			c0.27-0.11,0.54-0.23,0.82-0.32c1.57-0.53,3.3-0.82,5.18-0.82V65c0.06,0,0.11-0.01,0.17-0.01c8.59,0,16.08,4.2,16.08,12.98
			C174.68,88.2,163.35,90.03,158.6,90.03z"/>
		<path class="st0" d="M219.58,102.09h34.17c5.12,0,8.04-2.93,8.04-8.04V81.62c0-15.72-12.06-29.6-30.15-29.6
			s-30.15,13.89-30.15,29.6v28.87c0,15.72,12.06,29.6,30.15,29.6c15.35,0,24.3-8.77,28.69-15.9c0.91-1.46,1.28-4.02-0.92-5.67
			l-4.02-2.92c-1.83-1.28-4.2-1.1-5.48,0.73c-3.11,4.21-8.77,10.79-18.27,10.79c-10.23,0-16.08-8.41-16.08-16.63v-4.38
			C215.56,103.55,217.02,102.09,219.58,102.09z M215.56,81.62c0-8.23,5.85-16.63,16.08-16.63c10.23,0,16.08,8.41,16.08,16.63V86
			c0,2.56-1.46,4.02-4.02,4.02h-24.12c-2.56,0-4.02-1.46-4.02-4.02V81.62z"/>
	</g>
	<g>
		<g>
			<path class="st1" d="M249.73,17.71c3.11,2.74,1.1,6.4-2.2,6.4h-7.31c-3.84,0-6.76-1.83-8.59-4.75L223.6,6.2
				c-3.65-6.03,4.02-9.32,11.7-2.01L249.73,17.71z"/>
			<path class="st0" d="M235.3,37.58c-7.68,7.31-15.35,4.02-11.7-2.02l8.04-13.15c1.83-2.93,4.75-4.76,8.59-4.76h7.31
				c3.29,0,5.3,3.66,2.2,6.4L235.3,37.58z"/>
		</g>
		<g>
			<path class="st1" d="M99.7,20.42c0,5.43-4.4,9.83-9.83,9.83c-5.43,0-9.83-4.4-9.83-9.83c0-5.43,4.4-9.83,9.83-9.83
				C95.3,10.59,99.7,14.99,99.7,20.42z"/>
			<path class="st1" d="M147.6,20.42c0,5.43-4.4,9.83-9.83,9.83c-5.43,0-9.84-4.4-9.84-9.83c0-5.43,4.4-9.83,9.84-9.83
				C143.2,10.59,147.6,14.99,147.6,20.42z"/>
			<path class="st1" d="M195.51,20.42c0,5.43-4.4,9.83-9.83,9.83c-5.43,0-9.83-4.4-9.83-9.83c0-5.43,4.4-9.83,9.83-9.83
				C191.11,10.59,195.51,14.99,195.51,20.42z"/>
		</g>
	</g>
</g>
</svg>
