<?xml version="1.0" encoding="UTF-8"?>
<svg xmlns="http://www.w3.org/2000/svg" xmlns:xlink="http://www.w3.org/1999/xlink" width="294.76pt" height="204.23pt" viewBox="0 0 294.76 204.23" version="1.1">
<defs>
<clipPath id="clip1">
  <path d="M 27 186 L 230 186 L 230 204.230469 L 27 204.230469 Z M 27 186 "/>
</clipPath>
<clipPath id="clip2">
  <path d="M 0 0 L 294.761719 0 L 294.761719 171 L 0 171 Z M 0 0 "/>
</clipPath>
</defs>
<g id="surface1">
<g clip-path="url(#clip1)" clip-rule="nonzero">
<path style=" stroke:none;fill-rule:nonzero;fill:rgb(91.398621%,37.298584%,7.499695%);fill-opacity:1;" d="M 229.816406 186.910156 C 228.488281 189.644531 222.078125 202.90625 221.542969 204.039063 C 220.070313 204.050781 30.351563 204.230469 27.109375 204.230469 C 27.96875 201.699219 32.453125 188.453125 32.917969 187.105469 C 34.589844 187.105469 226.113281 186.910156 229.816406 186.910156 "/>
</g>
<path style=" stroke:none;fill-rule:nonzero;fill:rgb(61.599731%,6.698608%,17.999268%);fill-opacity:1;" d="M 90.566406 82.242188 C 108.085938 82.734375 124.277344 86.492188 124.296875 110.335938 C 124.308594 110.574219 124.308594 110.816406 124.296875 111.054688 C 124.082031 128.433594 109.335938 142.582031 91.40625 142.613281 L 67.734375 142.605469 C 67.734375 142.605469 58.621094 169.292969 58.097656 170.800781 C 56.660156 170.816406 41.25 170.824219 38.535156 170.824219 C 39.550781 167.8125 64.601563 93.6875 64.601563 93.6875 C 64.953125 92.621094 65.128906 91.632813 65.128906 90.734375 C 65.128906 89.546875 64.816406 88.53125 64.199219 87.683594 C 62.414063 85.226563 58.644531 85.050781 56.25 85.046875 C 56.660156 83.871094 56.945313 83.015625 57.1875 82.28125 C 58.808594 82.273438 90.527344 82.253906 90.566406 82.242188 M 82.34375 100.121094 L 73.574219 125.542969 L 89.101563 125.53125 C 93.085938 125.523438 97.128906 123.832031 99.921875 121 C 102.726563 118.152344 104.179688 114.363281 104.101563 110.042969 C 104.0625 106.789063 103.15625 104.363281 101.367188 102.632813 C 98.136719 99.527344 92.433594 99.214844 86.738281 99.34375 C 86.769531 99.34375 83.46875 99.324219 83.46875 99.324219 L 82.617188 99.324219 "/>
<path style=" stroke:none;fill-rule:nonzero;fill:rgb(61.599731%,6.698608%,17.999268%);fill-opacity:1;" d="M 223.507813 82.097656 C 223.378906 84.507813 219.816406 153.664063 219.816406 153.664063 L 225.675781 153.65625 C 225.675781 153.65625 259.316406 83.386719 259.941406 82.066406 C 261.230469 82.066406 277.65625 82.035156 280.753906 82.035156 C 279.171875 85.289063 238.652344 169.328125 238.019531 170.621094 C 236.632813 170.617188 202.648438 170.660156 200.363281 170.660156 C 200.480469 168.332031 202.109375 135.71875 202.109375 135.71875 C 202.109375 135.707031 203.945313 94.015625 203.945313 94.015625 L 203.945313 93.992188 C 203.914063 88.296875 200.605469 84.90625 195.089844 84.898438 L 194.871094 84.898438 C 195.292969 83.71875 195.605469 82.847656 195.859375 82.121094 C 197.371094 82.121094 221.28125 82.097656 223.507813 82.097656 "/>
<g clip-path="url(#clip2)" clip-rule="nonzero">
<path style=" stroke:none;fill-rule:nonzero;fill:rgb(61.599731%,6.698608%,17.999268%);fill-opacity:1;" d="M 15.371094 98.980469 C 25.566406 76.050781 40.636719 55.484375 58.957031 39.507813 C 76.269531 24.425781 96.171875 13.472656 118.117188 6.933594 C 141.699219 -0.0820313 167.128906 -1.78125 193.683594 1.882813 C 210.585938 4.21875 228.339844 9.714844 245.019531 17.785156 C 264.230469 27.089844 280.957031 39.214844 294.757813 53.816406 C 294.140625 55.066406 287.570313 68.691406 286.347656 71.238281 C 271.71875 54.488281 254.308594 41.433594 234.523438 32.488281 C 214.628906 23.484375 193.222656 18.980469 170.890625 19.097656 C 129.667969 19.3125 91.296875 35.199219 62.84375 63.824219 C 34.746094 92.082031 19.199219 129.839844 18.945313 170.242188 C 17.023438 170.242188 1.984375 170.269531 0 170.261719 C 0.148438 145.953125 5.457031 121.324219 15.371094 98.980469 "/>
</g>
<path style=" stroke:none;fill-rule:nonzero;fill:rgb(61.599731%,6.698608%,17.999268%);fill-opacity:1;" d="M 188.761719 172.121094 L 187.414063 171.183594 C 179.621094 165.679688 177.207031 163.804688 173.039063 160.320313 C 168.613281 163.949219 166.875 165.160156 163.242188 167.042969 C 156.796875 170.410156 149.152344 172.417969 142.304688 172.4375 C 128.46875 172.449219 119.199219 163.863281 119.179688 151.246094 C 119.179688 144.929688 122.140625 137.808594 127.089844 132.035156 C 130.714844 127.859375 134.871094 124.507813 143.730469 119.265625 C 141.847656 115.375 140.761719 110.40625 140.761719 105.167969 C 140.742188 90.808594 151.085938 80.054688 164.902344 80.035156 C 174.570313 80.035156 181.027344 85.660156 181.027344 94.117188 C 181.035156 100.5625 177.824219 106.742188 171.777344 111.714844 C 167.226563 115.613281 161.453125 119.382813 155.546875 122.351563 C 157.433594 126.5 159.453125 129.851563 163.476563 135.359375 C 167.785156 141.257813 171.28125 145.289063 174.230469 147.707031 C 176.925781 145.015625 177.988281 143.792969 179.738281 140.847656 C 181.875 137.351563 182.550781 135.871094 184.6875 130.90625 L 193.417969 130.898438 C 191.28125 137.210938 190.203125 139.625 186.855469 145.132813 C 184.160156 149.304688 183.242188 150.640625 180.292969 153.738281 C 182.570313 156.011719 183.371094 156.6875 187.140625 159.773438 C 190.761719 162.589844 191.574219 163.257813 194.53125 165.40625 Z M 166.183594 153.476563 L 162.023438 149.058594 C 158.789063 145.574219 154.765625 140.199219 151.523438 135.230469 C 149.523438 132.011719 148.839844 130.539063 147.5 127.179688 C 135.285156 133.90625 129.523438 141.292969 129.523438 149.761719 C 129.539063 158.492188 135.441406 163.855469 144.980469 163.84375 C 151.964844 163.832031 161.484375 159.800781 166.992188 154.28125 Z M 164.238281 88.230469 C 156.59375 88.238281 150.410156 95.757813 150.429688 105.160156 C 150.441406 109.050781 150.839844 111.066406 152.1875 114.558594 C 156.746094 112.402344 161.035156 109.574219 164.933594 106.222656 C 168.683594 102.859375 171.230469 98.292969 171.242188 94.402344 C 171.230469 90.769531 168.398438 88.21875 164.238281 88.230469 "/>
</g>
</svg>
