<svg xmlns="http://www.w3.org/2000/svg" width="295" height="119" viewBox="0 0 295 119" version="1.1"><path d="M 150 47.500 L 150 66 153 66 L 156 66 156 47.500 L 156 29 153 29 L 150 29 150 47.500 M 163.750 30.080 C 161.372 31.465, 161.542 34.685, 164.064 36.034 C 167.753 38.008, 170.819 33.219, 167.800 30.200 C 166.367 28.767, 166.022 28.757, 163.750 30.080 M 195 35.500 C 195 41.998, 194.448 43.048, 192.208 40.808 C 190.393 38.993, 181.912 39.350, 178.835 41.369 C 172.655 45.426, 171.636 56.323, 176.888 62.200 C 180.227 65.937, 187.122 67.083, 191.907 64.696 C 194.526 63.390, 195 63.371, 195 64.577 C 195 65.491, 196.072 66, 198 66 L 201 66 201 47.500 L 201 29 198 29 L 195 29 195 35.500 M 262.040 30.452 C 259.392 33.642, 263.299 38.657, 266.416 36.070 C 268.297 34.508, 268.470 31.870, 266.800 30.200 C 265.197 28.597, 263.505 28.686, 262.040 30.452 M 126.415 40.375 C 121.497 42.590, 119 46.535, 119 52.088 C 119 61.688, 124.150 66.624, 133.252 65.750 C 137.547 65.337, 138.912 64.673, 141.688 61.643 C 144.470 58.608, 144.999 57.267, 144.996 53.265 C 144.992 48.127, 142.474 42.859, 139.179 41.096 C 135.754 39.263, 129.650 38.918, 126.415 40.375 M 213.071 40.752 C 207.884 43.397, 205.799 46.880, 205.845 52.827 C 205.867 55.626, 206.389 58.859, 207.006 60.012 C 209.816 65.261, 219.988 67.798, 224.777 64.443 C 226.789 63.034, 227 63.034, 227 64.443 C 227 65.506, 227.951 66, 230 66 L 233 66 233 53 L 233 40 230 40 C 228.350 40, 227 40.427, 227 40.949 C 227 41.471, 225.439 41.246, 223.532 40.449 C 219.041 38.572, 217.243 38.624, 213.071 40.752 M 247.750 40.447 C 246.238 41.236, 245 41.458, 245 40.941 C 245 40.423, 243.650 40, 242 40 L 239 40 239 53 L 239 66 242 66 L 245 66 245 58.135 C 245 51.692, 245.375 49.793, 247.073 47.635 C 249.155 44.988, 253.309 44.073, 254.500 46 C 255.520 47.651, 256.613 47.145, 257.839 44.453 C 259.357 41.121, 259.465 41.358, 255.851 40.098 C 251.801 38.686, 251.064 38.718, 247.750 40.447 M 277.400 40.428 C 274.032 41.894, 273 43.653, 273 47.927 C 273 51.370, 275.593 53.802, 280.066 54.554 C 287.381 55.785, 288 56.046, 288 57.911 C 288 61.494, 280.693 61.689, 276.734 58.212 C 275.128 56.802, 274.837 56.835, 273.516 58.581 C 271.538 61.195, 271.612 61.550, 274.635 63.927 C 276.629 65.496, 278.715 66, 283.212 66 C 288.492 66, 289.491 65.663, 292.179 62.975 C 294.601 60.553, 295.077 59.406, 294.564 57.225 C 293.652 53.339, 289.525 50, 285.635 50 C 283.846 50, 281.509 49.325, 280.441 48.500 C 278.531 47.024, 278.531 46.976, 280.412 45.522 C 282.379 44, 286.341 44.362, 288.781 46.286 C 289.697 47.008, 290.473 46.755, 291.499 45.398 C 293.522 42.726, 293.380 42.248, 290.050 40.526 C 286.448 38.663, 281.541 38.625, 277.400 40.428 M 163 53 L 163 66 166 66 L 169 66 169 53 L 169 40 166 40 L 163 40 163 53 M 261.220 52.750 L 261.500 65.500 264.500 65.500 L 267.500 65.500 267.780 52.750 L 268.060 40 264.500 40 L 260.940 40 261.220 52.750 M 127.635 47.073 C 122.351 51.229, 125.313 60, 132 60 C 138.275 60, 141.092 52.930, 136.927 47.635 C 134.428 44.458, 131.207 44.263, 127.635 47.073 M 182 47 C 179.386 49.614, 179.288 56.046, 181.829 58.345 C 184.345 60.622, 189.555 60.445, 192 58 C 193.198 56.802, 194 54.667, 194 52.674 C 194 46.216, 186.385 42.615, 182 47 M 214.174 47.314 C 211.619 50.035, 211.348 54.624, 213.557 57.777 C 215.889 61.107, 222.163 60.880, 224.927 57.365 C 227.677 53.870, 227.545 50.454, 224.545 47.455 C 221.396 44.305, 217.057 44.246, 214.174 47.314" stroke="none" fill="#61696d" fill-rule="evenodd"/><path d="M 42.907 1.015 C 31.413 2.996, 13.341 18.578, 5.516 33.256 C 2.076 39.708, 3.222 38.635, 9.528 29.500 C 16.074 20.017, 20.941 14, 22.067 14 C 22.580 14, 23.032 15.012, 23.070 16.250 C 23.256 22.188, 24.142 22.333, 30.771 17.510 C 34.917 14.493, 37 12.290, 37 10.923 C 37 5.366, 42.709 1.482, 49.715 2.271 C 52.126 2.543, 53.887 2.554, 53.629 2.295 C 52.529 1.196, 46.226 0.443, 42.907 1.015 M 56 4.378 C 56 4.585, 56.788 5.373, 57.750 6.128 C 59.336 7.371, 59.371 7.336, 58.128 5.750 C 56.821 4.084, 56 3.555, 56 4.378 M 91.775 30.559 C 88.427 32.376, 87 34.899, 87 39 C 87 45.184, 89.476 47.396, 98.223 49.024 C 106.935 50.646, 109 51.824, 109 55.172 C 109 61.216, 98.166 62.535, 91.891 57.255 C 89.026 54.844, 88.856 54.820, 86.947 56.548 C 84.980 58.328, 84.982 58.352, 87.234 60.798 C 90.183 64, 94.992 66.001, 99.718 65.994 C 109.143 65.981, 115 61.882, 115 55.299 C 115 48.627, 111.853 45.998, 101.593 44.102 C 95.089 42.900, 93 41.647, 93 38.949 C 93 34.116, 100.795 32.358, 106.580 35.886 C 109.478 37.653, 109.793 37.665, 111.885 36.087 C 114.017 34.479, 114.034 34.344, 112.305 32.833 C 111.312 31.966, 109.517 30.749, 108.316 30.128 C 105.229 28.534, 95.017 28.800, 91.775 30.559 M 66.500 36 C 66.160 36.550, 64.097 37, 61.916 37 L 57.951 37 58.147 44.995 C 58.256 49.392, 58.124 53.209, 57.856 53.478 C 57.587 53.746, 55.825 53.523, 53.940 52.983 C 47.975 51.272, 41.620 51.783, 37.898 54.273 C 29.724 59.742, 28.798 78.698, 35.897 95.259 L 37.929 100 43.214 99.986 C 50.714 99.967, 53.164 99.181, 52.089 97.140 C 50.010 93.193, 47.845 85.123, 47.369 79.545 C 47.085 76.220, 46.598 72.825, 46.288 72 C 45.977 71.175, 45.813 69.116, 45.923 67.424 C 46.039 65.644, 45.465 63.801, 44.562 63.051 C 42.670 61.481, 42.517 57.645, 44.288 56.176 C 44.996 55.588, 48.371 55.147, 51.788 55.195 C 57.546 55.277, 58 55.448, 58 57.544 C 58 59.143, 58.855 60.102, 60.923 60.823 C 67.192 63.009, 67.450 70.641, 61.434 75.924 C 59.507 77.616, 56.858 79, 55.547 79 C 52.517 79, 50 79.956, 50 81.107 C 50 82.589, 56.700 82.111, 60.357 80.367 C 64.141 78.562, 67.466 73.455, 68.508 67.848 L 69.186 64.197 75.454 68.579 C 78.902 70.989, 82.290 73.644, 82.984 74.480 C 83.677 75.316, 84.827 76, 85.539 76 C 86.251 76, 87.060 76.563, 87.338 77.250 C 87.636 77.988, 87.874 77.775, 87.921 76.728 C 88.019 74.525, 80.954 66.753, 75.346 62.894 C 71.620 60.331, 71.094 60.202, 70.689 61.752 C 70.438 62.713, 70.180 58.494, 70.116 52.375 C 69.961 37.518, 68.803 32.274, 66.500 36 M 1.023 50.426 C 2.177 55.784, 6.462 61.582, 13.016 66.655 C 18.756 71.098, 20.647 71.338, 24.156 68.070 C 25.885 66.459, 25.755 66.224, 21.232 62.768 C 18.630 60.779, 15.242 57.833, 13.704 56.223 C 11.719 54.144, 10.225 53.426, 8.552 53.745 C 6.189 54.197, 3.763 52.403, 1.338 48.412 C 0.403 46.872, 0.341 47.263, 1.023 50.426 M 87.079 82.583 C 87.127 83.748, 87.364 83.985, 87.683 83.188 C 87.972 82.466, 87.936 81.603, 87.604 81.271 C 87.272 80.939, 87.036 81.529, 87.079 82.583 M 70.500 106.427 C 68.850 108.860, 66.328 111.545, 64.896 112.395 C 61.321 114.517, 52.805 113.493, 47 110.245 L 42.500 107.728 46 111.449 C 52.731 118.606, 57.342 119.571, 64.970 115.420 C 70.064 112.648, 77.505 104.625, 76.496 102.994 C 75.282 101.030, 73.449 102.079, 70.500 106.427" stroke="none" fill="#db0029" fill-rule="evenodd"/><path d="M 42.907 1.015 C 31.413 2.996, 13.341 18.578, 5.516 33.256 C 2.076 39.708, 3.222 38.635, 9.528 29.500 C 16.074 20.017, 20.941 14, 22.067 14 C 22.580 14, 23.032 15.012, 23.070 16.250 C 23.256 22.188, 24.142 22.333, 30.771 17.510 C 34.917 14.493, 37 12.290, 37 10.923 C 37 5.366, 42.709 1.482, 49.715 2.271 C 52.126 2.543, 53.887 2.554, 53.629 2.295 C 52.529 1.196, 46.226 0.443, 42.907 1.015 M 56 4.378 C 56 4.585, 56.788 5.373, 57.750 6.128 C 59.336 7.371, 59.371 7.336, 58.128 5.750 C 56.821 4.084, 56 3.555, 56 4.378 M 91.775 30.559 C 88.427 32.376, 87 34.899, 87 39 C 87 45.184, 89.476 47.396, 98.223 49.024 C 106.935 50.646, 109 51.824, 109 55.172 C 109 61.216, 98.166 62.535, 91.891 57.255 C 89.026 54.844, 88.856 54.820, 86.947 56.548 C 84.980 58.328, 84.982 58.352, 87.234 60.798 C 90.183 64, 94.992 66.001, 99.718 65.994 C 109.143 65.981, 115 61.882, 115 55.299 C 115 48.627, 111.853 45.998, 101.593 44.102 C 95.089 42.900, 93 41.647, 93 38.949 C 93 34.116, 100.795 32.358, 106.580 35.886 C 109.478 37.653, 109.793 37.665, 111.885 36.087 C 114.017 34.479, 114.034 34.344, 112.305 32.833 C 111.312 31.966, 109.517 30.749, 108.316 30.128 C 105.229 28.534, 95.017 28.800, 91.775 30.559 M 66.500 36 C 66.160 36.550, 64.097 37, 61.916 37 L 57.951 37 58.147 44.995 C 58.256 49.392, 58.124 53.209, 57.856 53.478 C 57.587 53.746, 55.825 53.523, 53.940 52.983 C 47.975 51.272, 41.620 51.783, 37.898 54.273 C 29.724 59.742, 28.798 78.698, 35.897 95.259 L 37.929 100 43.214 99.986 C 50.714 99.967, 53.164 99.181, 52.089 97.140 C 50.010 93.193, 47.845 85.123, 47.369 79.545 C 47.085 76.220, 46.598 72.825, 46.288 72 C 45.977 71.175, 45.813 69.116, 45.923 67.424 C 46.039 65.644, 45.465 63.801, 44.562 63.051 C 42.670 61.481, 42.517 57.645, 44.288 56.176 C 44.996 55.588, 48.371 55.147, 51.788 55.195 C 57.546 55.277, 58 55.448, 58 57.544 C 58 59.143, 58.855 60.102, 60.923 60.823 C 67.192 63.009, 67.450 70.641, 61.434 75.924 C 59.507 77.616, 56.858 79, 55.547 79 C 52.517 79, 50 79.956, 50 81.107 C 50 82.589, 56.700 82.111, 60.357 80.367 C 64.141 78.562, 67.466 73.455, 68.508 67.848 L 69.186 64.197 75.454 68.579 C 78.902 70.989, 82.290 73.644, 82.984 74.480 C 83.677 75.316, 84.827 76, 85.539 76 C 86.251 76, 87.060 76.563, 87.338 77.250 C 87.636 77.988, 87.874 77.775, 87.921 76.728 C 88.019 74.525, 80.954 66.753, 75.346 62.894 C 71.620 60.331, 71.094 60.202, 70.689 61.752 C 70.438 62.713, 70.180 58.494, 70.116 52.375 C 69.961 37.518, 68.803 32.274, 66.500 36 M 1.023 50.426 C 2.177 55.784, 6.462 61.582, 13.016 66.655 C 18.756 71.098, 20.647 71.338, 24.156 68.070 C 25.885 66.459, 25.755 66.224, 21.232 62.768 C 18.630 60.779, 15.242 57.833, 13.704 56.223 C 11.719 54.144, 10.225 53.426, 8.552 53.745 C 6.189 54.197, 3.763 52.403, 1.338 48.412 C 0.403 46.872, 0.341 47.263, 1.023 50.426 M 87.079 82.583 C 87.127 83.748, 87.364 83.985, 87.683 83.188 C 87.972 82.466, 87.936 81.603, 87.604 81.271 C 87.272 80.939, 87.036 81.529, 87.079 82.583 M 70.500 106.427 C 68.850 108.860, 66.328 111.545, 64.896 112.395 C 61.321 114.517, 52.805 113.493, 47 110.245 L 42.500 107.728 46 111.449 C 52.731 118.606, 57.342 119.571, 64.970 115.420 C 70.064 112.648, 77.505 104.625, 76.496 102.994 C 75.282 101.030, 73.449 102.079, 70.500 106.427" stroke="none" fill="#db0029" fill-rule="evenodd"/><path d="M 48 1.929 C 40.755 2.996, 37 5.957, 37 10.606 C 37 11.561, 36.234 13.189, 35.298 14.223 C 33.658 16.036, 33.697 16.066, 36.363 15.052 C 40.390 13.521, 45.216 13.763, 47.881 15.629 C 50.726 17.622, 55.709 27.880, 56.548 33.469 L 57.163 37.574 61.332 37.037 C 68.443 36.121, 69.270 35.178, 67.999 29.435 C 66.722 23.666, 62.251 11.945, 60.776 10.500 C 60.205 9.941, 60.250 10.464, 60.878 11.684 C 62.608 15.051, 62.288 15.136, 58.250 12.380 C 54.994 10.157, 53.677 9.871, 48.250 10.207 C 41.334 10.636, 40.371 9.629, 44.117 5.883 C 46.926 3.074, 53.958 3.719, 57.756 7.134 L 60.387 9.500 57.944 6.305 C 56.600 4.548, 54.686 3.086, 53.691 3.055 C 52.696 3.025, 52.160 2.550, 52.500 2 C 52.840 1.450, 52.979 1.060, 52.809 1.134 C 52.639 1.207, 50.475 1.565, 48 1.929 M 17.736 18.250 C 9.961 27.976, 3.123 38.832, 1.655 43.781 C 0.794 46.686, 0.453 48.838, 0.898 48.563 C 1.343 48.288, 2.208 49.161, 2.820 50.504 C 3.893 52.859, 8.431 54.902, 9.722 53.611 C 10.068 53.265, 11.450 53.998, 12.791 55.241 C 15.224 57.493, 15.223 57.488, 12.616 53.610 C 11.177 51.471, 10.004 48.321, 10.010 46.610 C 10.025 41.649, 14.486 33.396, 20.727 26.780 C 23.902 23.415, 25.946 20.984, 25.269 21.378 C 24.413 21.876, 23.842 20.862, 23.392 18.047 C 23.036 15.821, 22.382 14, 21.939 14 C 21.496 14, 19.605 15.912, 17.736 18.250 M 4.449 40.468 C 3.652 42.375, 3 44.750, 3 45.745 C 3 48.191, 5.775 52, 7.557 52 C 9.350 52, 9.341 51.562, 7.425 46.060 C 6.574 43.618, 6.140 40.580, 6.458 39.310 C 7.333 35.823, 6.090 36.540, 4.449 40.468 M 44.181 56.219 C 42.513 57.887, 42.715 61.519, 44.562 63.051 C 45.500 63.830, 46.017 65.581, 45.857 67.438 C 45.711 69.138, 45.882 71, 46.237 71.575 C 46.593 72.150, 46.990 74.956, 47.121 77.811 C 47.251 80.665, 47.433 83, 47.526 83 C 47.618 83, 48.732 82.100, 50 81 C 51.268 79.900, 53.572 79, 55.118 79 C 58.990 79, 64.767 73.761, 65.561 69.529 C 66.373 65.201, 64.749 62.340, 60.464 60.549 C 58.261 59.629, 57 58.421, 57 57.230 C 57 55.634, 56.144 55.334, 51.181 55.198 C 47.828 55.105, 44.862 55.538, 44.181 56.219 M 16 58.378 C 16 58.585, 16.788 59.373, 17.750 60.128 C 19.336 61.371, 19.371 61.336, 18.128 59.750 C 16.821 58.084, 16 57.555, 16 58.378 M 56.015 61.802 C 56.007 62.518, 54.712 63.553, 53.138 64.102 C 49.855 65.246, 46.977 70, 49.567 70 C 51.381 70, 56 65.605, 56 63.879 C 56 63.212, 56.241 62.907, 56.535 63.202 C 56.830 63.496, 56.124 66.265, 54.968 69.356 C 52.661 75.521, 53.029 77.426, 56.334 76.426 C 62.921 74.432, 65.180 67.433, 60.250 64.296 C 58.737 63.334, 57.169 62.086, 56.765 61.523 C 56.304 60.881, 56.025 60.985, 56.015 61.802 M 23.244 64.311 C 25.970 66.550, 25.975 66.577, 23.983 68.283 C 22.880 69.227, 21.532 70, 20.989 70 C 18.500 70, 20.445 72.192, 24.967 74.483 C 27.698 75.867, 30.173 77, 30.467 77 C 30.760 77, 30.996 74.862, 30.992 72.250 C 30.983 67.536, 30.943 67.479, 25.742 64.778 C 21.134 62.385, 20.832 62.329, 23.244 64.311 M 81.306 73.827 C 82.987 75.903, 83.992 78.346, 83.978 80.327 C 83.926 87.900, 74.483 102.014, 67.361 105.165 C 62.112 107.486, 60.101 107.018, 56.189 102.563 L 53.255 99.221 45.631 99.860 L 38.007 100.500 39.965 103.710 C 42.922 108.560, 49.184 112.219, 56.159 113.173 C 63.475 114.174, 66.075 112.951, 70.500 106.427 C 73.560 101.916, 74.815 101.215, 76.614 103.014 C 77.967 104.367, 85.631 90.876, 86.563 85.500 C 86.944 83.300, 87.600 80.856, 88.019 80.069 C 88.753 78.692, 87.004 76, 85.376 76 C 84.954 76, 83.260 74.763, 81.611 73.250 L 78.612 70.500 81.306 73.827" stroke="none" fill="#b61435" fill-rule="evenodd"/></svg>