 <svg  version="1.0" xmlns="http://www.w3.org/2000/svg"  width="1350.000000pt" height="708.000000pt" viewBox="0 0 1350.000000 708.000000"  preserveAspectRatio="xMidYMid meet">  <g transform="translate(0.000000,708.000000) scale(0.100000,-0.100000)" fill="#00b9b4" stroke="none"> <path d="M2170 4924 c-25 -7 -58 -14 -75 -14 -16 0 -41 -7 -55 -15 -14 -8 -35 -14 -47 -15 -12 0 -39 -7 -60 -16 -94 -40 -109 -47 -123 -55 -8 -5 -19 -11 -25 -13 -5 -2 -17 -7 -25 -10 -8 -3 -28 -15 -45 -26 -16 -11 -37 -23 -45 -27 -14 -6 -32 -19 -135 -95 -86 -64 -228 -223 -312 -349 -57 -86 -135 -261 -152 -339 -4 -19 -13 -45 -19 -57 -7 -12 -12 -34 -12 -50 0 -15 -7 -50 -15 -77 -21 -69 -21 -413 0 -482 8 -27 15 -62 15 -79 1 -16 7 -41 15 -55 8 -14 14 -35 15 -47 0 -12 7 -39 16 -60 40 -94 47 -109 55 -123 5 -8 12 -22 15 -30 3 -8 10 -22 15 -30 5 -8 12 -22 16 -30 51 -117 337 -440 388 -440 11 1 33 14 49 30 16 17 33 30 37 30 4 0 28 14 52 30 25 17 50 30 57 30 7 0 24 6 38 13 57 29 138 61 197 77 28 8 48 14 128 41 17 6 48 15 67 19 19 4 50 13 68 19 17 6 47 16 65 22 17 6 49 14 70 19 21 4 44 13 50 19 6 6 19 11 28 11 32 0 162 73 200 112 56 57 63 139 17 197 -32 41 -144 111 -178 111 -9 0 -20 4 -25 9 -6 4 -44 18 -85 31 -41 12 -87 29 -102 36 -14 8 -35 14 -46 14 -11 0 -25 7 -32 15 -7 8 -18 15 -24 15 -6 0 -24 11 -39 25 -41 39 -38 97 8 140 35 34 110 75 136 75 8 0 23 6 34 14 11 7 38 16 60 18 22 3 60 10 85 16 80 19 163 33 251 42 47 5 97 14 113 19 15 6 53 11 84 11 32 0 73 5 92 11 19 6 62 14 95 19 83 11 135 35 135 61 0 24 -37 58 -64 59 -10 0 -40 8 -68 18 -80 28 -77 76 7 112 85 36 400 63 538 46 53 -7 57 -6 57 13 0 11 -4 23 -10 26 -5 3 -10 17 -10 29 0 13 -7 29 -15 36 -8 7 -15 18 -15 25 0 21 -101 205 -112 205 -5 0 -8 5 -8 11 0 18 -82 119 -166 204 -101 103 -224 197 -329 250 -27 14 -57 30 -65 34 -57 31 -80 41 -97 41 -10 0 -27 7 -37 15 -11 8 -31 15 -45 15 -14 1 -37 7 -51 15 -14 8 -41 14 -60 15 -19 0 -57 7 -84 15 -67 20 -391 20 -456 -1z m355 -79 c169 -24 330 -67 411 -110 26 -14 51 -25 57 -25 5 0 32 -16 58 -35 27 -19 53 -35 57 -35 5 0 19 -11 32 -25 13 -14 28 -25 33 -25 26 0 151 -118 232 -219 131 -162 194 -293 157 -323 -15 -13 -37 -14 -280 -21 -141 -4 -144 -5 -179 -34 -65 -52 -78 -77 -79 -154 -1 -39 -4 -73 -8 -76 -3 -4 -43 -12 -88 -19 -46 -7 -105 -18 -133 -24 -27 -6 -79 -15 -115 -20 -36 -4 -103 -15 -150 -24 -47 -10 -109 -21 -138 -26 -28 -5 -62 -16 -74 -24 -12 -9 -30 -16 -39 -16 -44 0 -107 -40 -157 -100 -51 -60 -52 -64 -52 -124 0 -69 17 -100 90 -162 33 -28 182 -94 213 -94 8 0 25 -9 39 -19 13 -11 42 -24 63 -30 22 -6 58 -24 80 -39 33 -23 41 -35 43 -64 4 -42 -12 -78 -33 -78 -8 0 -19 -9 -25 -20 -6 -11 -23 -22 -38 -26 -15 -3 -40 -12 -57 -19 -16 -7 -57 -21 -90 -30 -33 -10 -75 -24 -93 -31 -18 -8 -42 -14 -54 -14 -12 0 -46 -12 -76 -26 -31 -14 -79 -29 -107 -33 -28 -4 -70 -17 -94 -29 -23 -12 -49 -22 -59 -22 -9 0 -30 -9 -47 -20 -16 -11 -39 -20 -50 -20 -11 0 -53 -18 -93 -40 -40 -22 -82 -40 -93 -40 -27 0 -75 26 -82 45 -4 8 -19 23 -35 32 -27 17 -132 143 -132 159 0 4 -9 17 -19 28 -25 28 -111 190 -111 210 0 9 -4 16 -10 16 -5 0 -10 9 -10 20 0 12 -9 38 -20 60 -11 22 -20 49 -20 61 0 12 -6 30 -14 38 -7 9 -18 62 -25 119 -22 204 -8 445 32 534 9 21 17 48 17 62 0 13 7 37 15 52 8 16 15 37 15 46 0 9 4 19 9 23 5 3 13 20 17 37 3 18 17 49 30 70 13 21 24 40 24 43 0 10 86 131 131 185 110 130 299 289 361 305 15 4 29 13 32 21 3 8 11 14 19 14 7 0 38 12 68 28 51 25 92 40 214 76 28 8 90 18 140 21 49 4 98 11 110 15 30 13 59 12 180 -5z"/> <path d="M4434 4675 c-4 -8 1 -30 10 -49 9 -19 16 -47 16 -63 0 -17 7 -52 15 -79 8 -27 15 -65 15 -85 0 -20 7 -58 15 -85 8 -27 15 -65 15 -85 0 -20 7 -56 15 -79 8 -23 15 -58 15 -77 0 -19 6 -62 14 -96 21 -87 37 -172 47 -242 17 -120 22 -145 33 -153 6 -4 47 -5 91 -2 l80 5 6 65 c3 36 9 72 14 79 4 8 11 41 15 75 9 67 24 149 46 243 8 34 14 77 14 96 0 19 7 54 15 77 8 23 15 59 15 79 0 20 7 58 15 85 8 27 15 63 15 81 0 17 9 68 21 114 11 45 18 89 15 97 -4 10 -24 14 -80 14 -91 0 -93 -2 -101 -121 -4 -46 -13 -114 -21 -151 -8 -37 -14 -86 -14 -110 0 -24 -5 -61 -11 -83 -7 -22 -14 -98 -18 -170 l-6 -130 -27 -3 c-16 -2 -29 -2 -29 0 -1 2 -5 64 -10 138 -11 186 -26 335 -37 373 -6 18 -13 74 -16 125 -8 132 -9 132 -112 132 -66 0 -86 -3 -90 -15z"/> <path d="M5096 4682 c-7 -11 -9 -1089 -2 -1100 4 -7 58 -8 136 -2 3 0 5 249 5 553 l0 552 -67 3 c-36 2 -69 -1 -72 -6z"/> <path d="M6349 4683 c-5 -59 3 -1098 8 -1103 4 -4 37 -4 71 -1 l64 6 1 323 c2 308 3 324 21 338 28 20 70 17 90 -5 15 -17 17 -50 15 -335 0 -175 2 -320 5 -324 5 -4 94 -6 137 -2 3 0 4 150 2 333 -4 334 -9 392 -42 431 -20 23 -64 46 -90 46 -25 0 -91 -31 -91 -42 0 -14 -39 -48 -56 -48 -13 0 -15 7 -10 33 9 44 24 329 19 345 -6 13 -142 18 -144 5z"/> <path d="M7720 4678 c-6 -232 2 -1093 9 -1097 11 -7 120 -5 127 2 3 3 5 252 5 553 l0 549 -70 3 c-53 2 -71 0 -71 -10z"/> <path d="M11840 4673 c-2 -284 1 -1086 4 -1091 2 -4 35 -7 73 -6 l68 1 0 124 c0 77 4 132 12 144 6 11 14 28 17 38 10 33 40 15 48 -28 18 -105 27 -145 37 -164 6 -11 11 -35 11 -54 0 -46 13 -54 90 -58 60 -4 65 -2 68 18 2 12 -5 43 -16 70 -25 64 -42 111 -52 148 -10 37 -28 88 -49 139 -20 49 -19 107 3 137 9 13 16 31 16 40 0 17 6 31 44 107 9 19 16 42 16 52 0 9 7 23 15 30 8 7 15 23 15 37 0 23 -2 24 -71 21 l-71 -3 -18 -55 c-9 -30 -25 -82 -35 -115 -10 -33 -21 -68 -26 -77 -5 -10 -9 -33 -9 -51 0 -39 -17 -64 -45 -69 -17 -2 -20 2 -18 27 14 172 23 389 21 506 l-3 144 -72 3 c-65 3 -73 1 -73 -15z"/> <path d="M7972 4558 l3 -82 67 -3 c79 -3 81 1 76 102 l-3 60 -73 3 -73 3 3 -83z"/> <path d="M7005 4538 c-10 -6 -33 -14 -50 -18 -30 -6 -30 -6 -33 -78 l-3 -72 -45 0 -45 0 3 -57 3 -58 43 -3 42 -3 0 -313 c0 -372 -4 -357 102 -361 76 -4 89 8 60 53 -15 23 -18 63 -22 314 -3 159 -3 293 -2 298 2 6 23 10 47 10 l43 0 4 53 c3 28 3 55 1 60 -2 4 -25 7 -50 7 l-46 0 7 90 c7 90 7 90 -16 90 -13 0 -32 -6 -43 -12z"/> <path d="M9086 4445 c-3 -9 -6 -24 -6 -32 0 -37 -56 -53 -105 -31 -19 9 -37 8 -78 -1 -125 -31 -169 -123 -152 -325 7 -80 10 -88 42 -121 34 -35 34 -37 17 -56 -9 -10 -23 -19 -31 -19 -7 0 -23 -20 -35 -44 l-21 -44 20 -38 c11 -22 29 -43 41 -49 30 -13 28 -22 -18 -66 -40 -39 -40 -40 -40 -113 0 -109 34 -158 138 -199 98 -39 228 -3 284 79 25 36 27 46 28 143 0 85 -3 109 -19 135 -33 53 -70 73 -147 80 -107 10 -132 16 -149 32 -19 19 -19 43 1 69 12 16 25 19 77 17 89 -4 148 29 189 104 14 27 18 57 18 150 0 101 -3 119 -20 141 -29 38 -26 53 13 53 47 0 65 24 69 90 l3 55 -56 3 c-45 2 -58 0 -63 -13z m-115 -185 c33 -18 45 -60 43 -146 -3 -109 -21 -144 -76 -144 -18 0 -33 9 -47 29 -18 24 -21 44 -21 123 0 73 4 98 18 114 26 33 52 40 83 24z m57 -653 c18 -16 22 -31 22 -77 0 -59 -8 -76 -52 -103 -39 -24 -79 -21 -111 8 -24 23 -27 33 -27 93 0 77 4 85 45 100 40 15 95 5 123 -21z"/> <path d="M5995 4377 c-49 -19 -82 -46 -107 -85 -23 -36 -23 -42 -23 -317 0 -260 1 -283 19 -310 29 -45 59 -75 76 -75 8 0 24 -7 34 -15 47 -35 164 -3 210 58 30 39 58 142 54 195 l-3 37 -60 0 -60 0 -1 -55 c-1 -76 -1 -77 -24 -100 -28 -28 -66 -25 -95 6 l-25 27 0 229 c0 216 1 232 21 259 28 40 79 41 108 1 16 -23 19 -39 14 -83 -7 -68 4 -78 72 -70 48 6 50 7 53 40 2 19 -4 67 -14 108 -13 57 -24 80 -50 105 -54 53 -132 71 -199 45z"/> <path d="M7357 4377 c-49 -16 -92 -58 -117 -114 -18 -42 -20 -67 -20 -295 0 -218 2 -254 17 -281 29 -52 65 -87 112 -108 54 -24 97 -24 148 -1 77 34 108 83 122 192 11 90 6 95 -70 94 l-54 0 -3 -70 c-2 -56 -6 -72 -23 -86 -28 -24 -64 -23 -89 2 -19 19 -20 31 -18 133 l3 112 125 0 125 0 -1 151 c-1 150 -1 152 -30 195 -48 72 -142 103 -227 76z m115 -134 c15 -13 18 -32 18 -110 l0 -93 -66 0 -66 0 4 100 c2 76 7 103 18 110 24 15 72 12 92 -7z"/> <path d="M8445 4375 c-16 -7 -38 -27 -48 -44 -25 -43 -47 -41 -47 4 0 38 3 37 -106 39 l-26 1 0 -393 c0 -216 2 -396 5 -399 8 -7 125 -8 133 -1 3 4 5 145 4 315 l-1 309 25 27 c28 31 67 35 91 11 14 -15 16 -53 14 -337 -2 -364 -9 -336 87 -327 l57 5 -2 355 c-2 337 -3 356 -23 388 -20 33 -74 63 -112 61 -11 0 -34 -7 -51 -14z"/> <path d="M9372 4373 c-49 -17 -98 -70 -117 -127 -20 -58 -23 -476 -4 -531 30 -89 113 -155 195 -155 73 0 154 62 181 137 7 21 16 66 19 101 l7 63 -74 -3 -74 -3 3 -66 c4 -60 2 -68 -19 -83 -30 -20 -53 -20 -84 0 -24 16 -25 20 -25 136 l0 120 133 -3 132 -4 -3 130 c-2 77 -10 148 -18 173 -18 56 -66 104 -118 119 -52 16 -80 15 -134 -4z m118 -123 c11 -7 16 -34 18 -110 l4 -100 -66 0 -66 0 0 92 c0 71 4 95 17 110 17 19 68 24 93 8z"/> <path d="M9968 4376 c-15 -6 -42 -31 -60 -54 -18 -23 -36 -42 -40 -42 -4 0 -8 21 -10 46 l-3 47 -57 2 c-32 2 -58 -1 -58 -6 -3 -108 0 -782 4 -787 3 -5 33 -7 68 -6 35 2 66 3 70 4 4 0 5 132 1 293 -3 171 -2 306 4 327 12 45 50 68 90 54 l28 -9 5 -335 5 -334 70 0 70 0 3 334 c2 284 0 341 -13 375 -35 89 -103 124 -177 91z"/> <path d="M11100 4376 c-48 -15 -75 -36 -107 -82 l-28 -39 0 -280 c0 -260 1 -282 19 -310 26 -40 52 -61 105 -85 55 -25 100 -25 149 0 84 44 125 119 120 220 l-3 65 -50 0 c-75 0 -84 -6 -78 -59 7 -62 -3 -93 -35 -110 -26 -13 -32 -13 -60 4 -39 24 -44 42 -40 160 l3 95 130 0 130 0 3 131 c2 113 0 136 -18 176 -46 104 -138 148 -240 114z m116 -146 c7 -14 14 -61 16 -105 l3 -80 -72 -3 -73 -3 0 82 c0 66 4 86 21 110 18 25 27 30 57 27 28 -2 40 -9 48 -28z"/> <path d="M11672 4370 c-18 -11 -36 -28 -39 -38 -4 -9 -16 -27 -29 -40 -28 -29 -38 -15 -29 38 5 30 3 40 -7 41 -7 0 -35 1 -63 2 l-50 2 0 -400 0 -399 70 0 70 0 3 298 c2 297 2 299 25 322 17 17 37 24 77 26 l54 3 1 70 c0 39 -1 76 -3 83 -6 18 -43 15 -80 -8z"/> <path d="M5337 4374 c-1 -1 -1 -157 0 -346 2 -385 4 -398 70 -443 21 -14 52 -25 69 -25 36 0 114 52 121 81 9 33 32 21 35 -18 3 -37 4 -38 53 -44 28 -4 54 -3 58 1 4 4 8 184 8 401 l1 394 -59 2 c-97 2 -88 34 -85 -322 l4 -315 -30 -30 c-32 -31 -50 -32 -85 -2 -16 14 -17 41 -17 335 1 176 -2 322 -5 326 -6 6 -132 11 -138 5z"/> <path d="M7977 4374 c-9 -10 -9 -792 1 -797 4 -2 36 -1 71 2 l63 6 2 393 1 392 -52 0 c-28 0 -58 2 -65 5 -8 3 -17 2 -21 -1z"/> <path d="M10224 4368 c-4 -5 0 -33 9 -62 15 -50 32 -137 46 -246 4 -30 13 -82 19 -115 6 -33 16 -85 22 -115 6 -30 15 -93 20 -139 6 -47 17 -92 24 -100 10 -11 31 -16 68 -15 l53 0 6 45 c14 105 31 230 41 309 20 157 49 158 59 2 13 -190 30 -327 44 -342 9 -10 32 -15 66 -15 l52 0 18 90 c10 50 19 104 19 120 0 17 7 52 15 79 8 27 15 66 15 87 0 21 5 50 11 66 6 15 14 57 19 93 9 77 28 172 42 219 13 43 1 52 -72 49 l-55 -3 -6 -60 c-4 -33 -12 -91 -18 -130 -6 -38 -11 -100 -11 -137 0 -61 -24 -205 -35 -217 -3 -2 -11 1 -18 8 -11 11 -17 76 -33 406 -6 125 -12 135 -79 135 -66 0 -73 -11 -78 -120 -6 -139 -26 -403 -32 -417 -18 -50 -55 53 -55 156 0 42 -5 117 -11 166 -6 50 -14 117 -18 150 l-6 60 -67 2 c-39 1 -70 -2 -74 -9z"/> <path d="M3675 3919 c-22 -4 -107 -8 -190 -9 -89 0 -170 -6 -200 -14 -45 -12 -51 -18 -46 -44 1 -11 81 -46 156 -68 81 -23 123 -42 146 -65 54 -54 -15 -110 -161 -130 -36 -4 -81 -13 -100 -19 -19 -5 -55 -10 -80 -10 -25 0 -63 -5 -85 -11 -22 -5 -65 -14 -95 -18 -149 -24 -229 -97 -188 -174 18 -34 58 -63 145 -106 26 -13 55 -27 63 -32 8 -5 22 -12 30 -15 25 -9 123 -51 180 -76 19 -9 42 -19 50 -22 38 -16 117 -67 160 -104 57 -49 100 -134 100 -196 0 -23 3 -46 7 -49 7 -8 53 31 53 45 0 4 14 38 31 75 61 136 77 178 88 234 4 19 12 42 16 50 5 8 13 39 17 69 4 30 12 75 17 100 16 70 13 325 -4 395 -8 33 -14 76 -15 95 0 37 -28 103 -45 106 -5 1 -28 -2 -50 -7z m-27 -75 c7 -2 10 -9 7 -14 -4 -6 -2 -17 5 -24 14 -18 20 -46 27 -121 2 -33 9 -64 14 -69 5 -6 4 -15 -3 -23 -8 -10 -6 -23 7 -53 14 -31 15 -45 7 -67 -6 -15 -13 -55 -17 -88 -11 -111 -17 -150 -26 -173 -5 -13 -9 -35 -9 -50 0 -49 -54 -131 -87 -132 -6 0 -38 22 -70 50 -32 27 -63 50 -70 50 -6 0 -24 10 -40 23 -32 26 -218 118 -278 137 -66 21 -134 76 -135 107 0 21 71 50 140 57 35 3 69 11 74 16 6 6 35 10 66 10 72 1 176 24 199 44 10 9 29 16 42 16 34 0 66 25 89 69 10 21 26 41 35 44 19 8 20 27 1 27 -16 0 -26 21 -26 59 0 28 -21 67 -49 89 -33 26 31 37 97 16z"/> <path d="M4631 3101 c-15 -10 -11 -40 25 -183 8 -32 14 -73 14 -92 0 -18 7 -53 15 -76 8 -23 15 -59 16 -79 1 -54 23 -151 37 -160 6 -4 28 -5 47 -3 39 5 36 0 55 117 6 39 16 90 22 115 6 25 14 70 18 100 4 30 12 75 18 100 39 162 39 169 -14 170 -46 0 -57 -21 -65 -126 -24 -296 -48 -352 -70 -164 -6 52 -14 134 -17 182 -4 47 -10 89 -13 93 -12 11 -74 16 -88 6z"/> <path d="M5142 3091 c-4 -11 -6 -146 -4 -300 l3 -281 114 0 115 0 0 46 0 46 -57 -2 c-32 -1 -63 -2 -68 -1 -8 1 -10 78 -7 241 3 182 1 244 -8 255 -19 23 -79 20 -88 -4z"/> <path d="M5662 3092 c-5 -9 -14 -51 -21 -92 -6 -41 -16 -100 -23 -130 -6 -30 -14 -86 -18 -125 -4 -38 -12 -81 -17 -95 -6 -14 -13 -50 -17 -82 -7 -51 -5 -57 13 -63 24 -7 63 3 73 19 4 6 8 32 8 59 l0 47 45 0 45 0 0 -54 c0 -30 4 -58 10 -61 16 -10 89 -10 99 0 7 7 5 26 -4 55 -18 59 -36 149 -45 231 -4 36 -10 71 -14 78 -5 7 -12 53 -16 102 -8 102 -20 122 -75 126 -24 1 -37 -3 -43 -15z m63 -230 c3 -26 10 -67 16 -90 13 -59 5 -82 -31 -82 -16 0 -32 5 -35 10 -6 10 11 176 21 208 8 25 23 1 29 -46z"/> <path d="M6173 3103 c-29 -4 -33 -9 -38 -41 -3 -20 -10 -59 -15 -85 -6 -27 -10 -63 -10 -80 0 -18 -7 -54 -15 -81 -8 -27 -15 -68 -15 -91 0 -24 -6 -60 -14 -81 -7 -22 -16 -60 -20 -86 -7 -44 -5 -48 16 -53 13 -3 36 -1 51 4 25 10 27 15 27 66 l0 56 48 -3 47 -3 5 -54 c4 -49 8 -55 33 -64 15 -5 39 -6 54 -3 20 6 24 11 20 29 -3 12 -10 40 -16 62 -15 62 -32 153 -41 230 -5 39 -13 83 -19 98 -6 16 -11 57 -11 92 0 55 -3 66 -22 79 -12 9 -25 15 -28 14 -3 0 -19 -3 -37 -5z m43 -287 c19 -105 16 -126 -21 -126 -35 0 -38 15 -30 125 9 127 27 128 51 1z"/> <path d="M6565 3099 c-4 -5 -8 -140 -8 -299 -2 -225 1 -291 11 -295 15 -5 71 5 77 15 2 3 -3 75 -11 159 -8 84 -11 157 -8 163 10 17 52 -32 59 -69 3 -20 10 -43 14 -52 5 -9 16 -41 24 -71 36 -123 39 -132 62 -142 14 -6 29 -7 39 -1 15 8 17 40 18 298 1 316 1 316 -56 301 l-27 -7 7 -168 c9 -217 -11 -235 -63 -56 -7 28 -21 73 -29 100 -9 28 -18 65 -21 83 -4 23 -13 36 -30 43 -32 12 -50 11 -58 -2z"/> <path d="M7705 3103 c-49 -2 -94 -8 -98 -12 -5 -5 -9 -136 -9 -292 l0 -284 119 0 118 0 0 40 0 40 -73 3 -73 3 3 87 3 87 42 0 c53 0 68 14 56 52 -9 25 -14 28 -54 28 l-44 0 0 80 0 80 70 0 70 0 3 35 c3 24 -2 38 -14 47 -10 7 -20 12 -23 11 -3 -1 -46 -4 -96 -5z"/> <path d="M8065 3100 c-8 -13 -7 -582 1 -590 5 -4 26 -5 47 -3 l38 5 -1 112 c-1 61 -1 117 -1 124 1 6 14 12 30 12 60 0 61 -3 61 -119 0 -58 4 -112 8 -119 11 -17 73 -25 92 -13 12 9 13 14 3 31 -8 12 -13 55 -13 108 0 85 -1 89 -30 117 l-29 28 29 30 c28 29 30 36 30 110 0 134 -32 162 -193 170 -38 1 -70 0 -72 -3z m163 -92 c16 -16 16 -152 -1 -166 -6 -6 -24 -13 -39 -17 -37 -9 -45 13 -40 113 l4 82 32 0 c18 0 37 -5 44 -12z"/> <path d="M8573 3097 c-3 -5 -6 -139 -6 -298 l-2 -290 120 3 120 3 0 40 0 40 -74 5 -75 5 0 85 -1 85 50 0 c47 0 50 1 53 28 5 41 -12 56 -57 50 -46 -6 -51 5 -44 102 l6 66 71 -3 71 -3 3 30 c4 53 -6 58 -123 59 -59 1 -109 -3 -112 -7z"/> <path d="M9025 3097 c-3 -7 -4 -143 -3 -302 3 -272 4 -290 21 -293 10 -2 30 -1 44 3 l25 6 -4 162 c-2 135 -1 162 11 162 9 0 23 -28 39 -80 13 -44 27 -89 32 -100 4 -11 16 -48 27 -82 19 -64 30 -73 78 -65 19 3 20 11 20 292 0 201 -3 292 -11 300 -6 6 -24 10 -40 8 l-29 -3 -1 -150 c-2 -194 -2 -197 -16 -193 -10 4 -23 37 -62 173 -37 126 -50 161 -60 167 -18 12 -66 9 -71 -5z"/> <path d="M7088 3094 c-5 -4 -8 -137 -8 -296 l0 -288 96 0 c111 0 154 18 174 73 8 19 14 104 16 214 3 170 2 184 -19 225 -13 25 -34 49 -52 58 -32 16 -195 27 -207 14z m167 -94 c16 -18 18 -39 18 -189 -1 -93 -4 -179 -8 -190 -7 -24 -51 -38 -73 -25 -12 8 -15 44 -16 204 -1 107 2 201 7 208 14 18 52 14 72 -8z"/> </g> </svg> 