<?xml version="1.0" encoding="UTF-8" standalone="no"?>
<!-- Generator: $$$/GeneralStr/196=Adobe Illustrator 27.6.0, SVG Export Plug-In . SVG Version: 6.00 Build 0)  -->

<svg
   version="1.1"
   id="Calque_1"
   x="0px"
   y="0px"
   viewBox="0 0 249.99999 160"
   xml:space="preserve"
   sodipodi:docname="_fdss_fr.svg"
   width="250"
   height="160"
   inkscape:version="1.2.2 (732a01da63, 2022-12-09)"
   xmlns:inkscape="http://www.inkscape.org/namespaces/inkscape"
   xmlns:sodipodi="http://sodipodi.sourceforge.net/DTD/sodipodi-0.dtd"
   xmlns="http://www.w3.org/2000/svg"
   xmlns:svg="http://www.w3.org/2000/svg"><defs
   id="defs115" /><sodipodi:namedview
   id="namedview113"
   pagecolor="#ffffff"
   bordercolor="#000000"
   borderopacity="0.25"
   inkscape:showpageshadow="2"
   inkscape:pageopacity="0.0"
   inkscape:pagecheckerboard="0"
   inkscape:deskcolor="#d1d1d1"
   showgrid="false"
   inkscape:zoom="1.1212866"
   inkscape:cx="360.30039"
   inkscape:cy="200.66234"
   inkscape:window-width="1354"
   inkscape:window-height="487"
   inkscape:window-x="65"
   inkscape:window-y="108"
   inkscape:window-maximized="0"
   inkscape:current-layer="Calque_1" />
<style
   type="text/css"
   id="style2">
	.st0{fill:#9D9D9C;}
	.st1{fill:#CD1719;}
	.st2{fill:#FDC300;}
	.st3{fill:#009FE3;}
	.st4{fill:#F39200;}
	.st5{fill:#6E3784;}
	.st6{fill:#3AAA35;}
	.st7{fill:#0085A1;}
	.st8{fill:#00A1BD;}
</style>
<g
   id="g110"
   transform="matrix(2.1065949,0,0,2.1065949,-515.03431,-808.38478)">
	<g
   id="g108">
		<g
   id="g12">
			<path
   class="st0"
   d="m 300.98,389.26 c 0,0.3 -0.01,0.56 -0.04,0.76 -0.03,0.21 -0.07,0.37 -0.12,0.49 -0.06,0.12 -0.12,0.21 -0.19,0.27 -0.07,0.06 -0.15,0.09 -0.24,0.09 h -6.4 v 5.27 H 300 c 0.09,0 0.17,0.03 0.24,0.08 0.07,0.05 0.13,0.14 0.19,0.26 0.06,0.12 0.1,0.28 0.12,0.48 0.02,0.2 0.04,0.45 0.04,0.76 0,0.31 -0.01,0.56 -0.04,0.76 -0.03,0.2 -0.07,0.37 -0.12,0.5 -0.06,0.13 -0.12,0.22 -0.19,0.28 -0.07,0.06 -0.15,0.08 -0.24,0.08 h -6.01 v 7.3 c 0,0.11 -0.03,0.21 -0.09,0.29 -0.06,0.08 -0.17,0.15 -0.33,0.2 -0.16,0.06 -0.36,0.1 -0.61,0.13 -0.25,0.03 -0.58,0.05 -0.97,0.05 -0.38,0 -0.7,-0.02 -0.96,-0.05 -0.26,-0.03 -0.46,-0.07 -0.61,-0.13 -0.15,-0.06 -0.26,-0.12 -0.33,-0.2 -0.07,-0.08 -0.1,-0.18 -0.1,-0.29 v -17.76 c 0,-0.44 0.11,-0.76 0.34,-0.96 0.23,-0.2 0.51,-0.29 0.84,-0.29 h 9.22 c 0.09,0 0.17,0.03 0.24,0.08 0.07,0.06 0.13,0.15 0.19,0.27 0.06,0.13 0.1,0.3 0.12,0.51 0.03,0.21 0.04,0.47 0.04,0.77 z"
   id="path4" />
			<path
   class="st0"
   d="m 316.5,406.7 c 0,0.11 -0.03,0.2 -0.08,0.28 -0.05,0.08 -0.14,0.14 -0.26,0.19 -0.12,0.05 -0.29,0.09 -0.49,0.11 -0.21,0.02 -0.46,0.03 -0.76,0.03 -0.32,0 -0.59,-0.01 -0.79,-0.03 -0.2,-0.02 -0.37,-0.06 -0.49,-0.11 -0.13,-0.05 -0.22,-0.11 -0.27,-0.19 -0.06,-0.08 -0.08,-0.17 -0.08,-0.28 v -1.5 c -0.7,0.75 -1.43,1.33 -2.19,1.74 -0.76,0.41 -1.61,0.62 -2.54,0.62 -1.03,0 -1.9,-0.2 -2.61,-0.6 -0.71,-0.4 -1.29,-0.94 -1.74,-1.61 -0.45,-0.68 -0.77,-1.47 -0.98,-2.37 -0.2,-0.9 -0.3,-1.85 -0.3,-2.85 0,-1.2 0.13,-2.28 0.39,-3.24 0.26,-0.96 0.63,-1.78 1.13,-2.45 0.49,-0.68 1.11,-1.2 1.85,-1.56 0.74,-0.36 1.58,-0.54 2.54,-0.54 0.76,0 1.44,0.15 2.06,0.46 0.62,0.31 1.23,0.76 1.83,1.35 v -7.31 c 0,-0.1 0.03,-0.19 0.08,-0.27 0.06,-0.08 0.16,-0.15 0.3,-0.2 0.15,-0.06 0.34,-0.1 0.58,-0.13 0.24,-0.03 0.55,-0.05 0.92,-0.05 0.37,0 0.68,0.02 0.92,0.05 0.24,0.03 0.43,0.07 0.58,0.13 0.14,0.06 0.24,0.12 0.3,0.2 0.06,0.08 0.09,0.17 0.09,0.27 v 19.86 z m -3.79,-9.03 c -0.54,-0.69 -1.07,-1.21 -1.57,-1.57 -0.5,-0.36 -1.02,-0.54 -1.57,-0.54 -0.49,0 -0.92,0.12 -1.28,0.37 -0.36,0.25 -0.65,0.58 -0.86,0.99 -0.22,0.41 -0.38,0.88 -0.48,1.38 -0.11,0.51 -0.16,1.03 -0.16,1.57 0,0.57 0.05,1.12 0.14,1.65 0.09,0.54 0.24,1.01 0.45,1.43 0.21,0.42 0.48,0.75 0.83,1.01 0.34,0.25 0.78,0.38 1.3,0.38 0.26,0 0.52,-0.04 0.76,-0.11 0.25,-0.08 0.5,-0.2 0.76,-0.37 0.26,-0.17 0.52,-0.4 0.79,-0.67 0.27,-0.28 0.57,-0.62 0.89,-1.02 z"
   id="path6" />
			<path
   class="st0"
   d="m 332.16,401.34 c 0,1.03 -0.19,1.93 -0.58,2.71 -0.38,0.78 -0.9,1.43 -1.56,1.94 -0.66,0.52 -1.42,0.91 -2.3,1.17 -0.88,0.26 -1.82,0.39 -2.82,0.39 -0.68,0 -1.3,-0.06 -1.88,-0.17 -0.58,-0.11 -1.09,-0.24 -1.54,-0.4 -0.44,-0.16 -0.81,-0.32 -1.11,-0.49 -0.3,-0.17 -0.51,-0.32 -0.64,-0.45 -0.13,-0.13 -0.22,-0.32 -0.28,-0.57 -0.06,-0.25 -0.08,-0.6 -0.08,-1.07 0,-0.31 0.01,-0.58 0.03,-0.79 0.02,-0.21 0.05,-0.38 0.1,-0.51 0.05,-0.13 0.11,-0.22 0.18,-0.28 0.08,-0.06 0.16,-0.08 0.27,-0.08 0.14,0 0.34,0.08 0.6,0.25 0.26,0.17 0.59,0.35 0.99,0.55 0.4,0.2 0.89,0.39 1.45,0.55 0.56,0.17 1.21,0.25 1.95,0.25 0.48,0 0.92,-0.06 1.3,-0.17 0.38,-0.12 0.71,-0.28 0.98,-0.49 0.27,-0.21 0.47,-0.47 0.61,-0.79 0.14,-0.31 0.21,-0.66 0.21,-1.04 0,-0.44 -0.12,-0.83 -0.36,-1.14 -0.24,-0.32 -0.56,-0.6 -0.95,-0.85 -0.39,-0.25 -0.83,-0.48 -1.32,-0.7 -0.49,-0.22 -1,-0.45 -1.53,-0.69 -0.52,-0.24 -1.03,-0.52 -1.53,-0.82 -0.49,-0.31 -0.94,-0.68 -1.32,-1.11 -0.39,-0.43 -0.7,-0.94 -0.95,-1.52 -0.24,-0.58 -0.36,-1.29 -0.36,-2.1 0,-0.94 0.17,-1.76 0.52,-2.47 0.35,-0.71 0.82,-1.3 1.41,-1.77 0.59,-0.47 1.29,-0.82 2.09,-1.05 0.8,-0.23 1.65,-0.35 2.55,-0.35 0.46,0 0.93,0.04 1.39,0.11 0.46,0.07 0.9,0.17 1.3,0.29 0.4,0.12 0.76,0.26 1.07,0.41 0.31,0.15 0.52,0.28 0.62,0.38 0.1,0.1 0.17,0.19 0.2,0.26 0.04,0.07 0.07,0.16 0.09,0.28 0.02,0.12 0.04,0.26 0.05,0.44 0.01,0.18 0.02,0.4 0.02,0.66 0,0.29 -0.01,0.54 -0.02,0.74 -0.01,0.2 -0.04,0.37 -0.08,0.5 -0.04,0.13 -0.09,0.23 -0.15,0.29 -0.07,0.06 -0.15,0.09 -0.27,0.09 -0.11,0 -0.29,-0.07 -0.53,-0.21 -0.24,-0.14 -0.54,-0.29 -0.89,-0.46 -0.35,-0.17 -0.76,-0.32 -1.23,-0.45 -0.46,-0.14 -0.97,-0.2 -1.53,-0.2 -0.43,0 -0.81,0.05 -1.14,0.16 -0.32,0.11 -0.59,0.25 -0.81,0.44 -0.22,0.19 -0.38,0.41 -0.48,0.67 -0.11,0.26 -0.16,0.54 -0.16,0.83 0,0.43 0.12,0.81 0.36,1.13 0.24,0.32 0.56,0.6 0.95,0.85 0.4,0.25 0.85,0.48 1.35,0.7 0.5,0.22 1.02,0.45 1.54,0.69 0.52,0.24 1.04,0.52 1.54,0.82 0.5,0.31 0.95,0.68 1.35,1.11 0.39,0.43 0.71,0.93 0.95,1.51 0.26,0.55 0.38,1.23 0.38,2.02 z"
   id="path8" />
			<path
   class="st0"
   d="m 346.82,401.34 c 0,1.03 -0.19,1.93 -0.58,2.71 -0.38,0.78 -0.9,1.43 -1.56,1.94 -0.66,0.52 -1.42,0.91 -2.3,1.17 -0.88,0.26 -1.82,0.39 -2.82,0.39 -0.68,0 -1.3,-0.06 -1.88,-0.17 -0.58,-0.11 -1.09,-0.24 -1.54,-0.4 -0.44,-0.16 -0.81,-0.32 -1.11,-0.49 -0.3,-0.17 -0.51,-0.32 -0.64,-0.45 -0.13,-0.13 -0.22,-0.32 -0.28,-0.57 -0.06,-0.25 -0.08,-0.6 -0.08,-1.07 0,-0.31 0.01,-0.58 0.03,-0.79 0.02,-0.21 0.05,-0.38 0.1,-0.51 0.05,-0.13 0.11,-0.22 0.18,-0.28 0.08,-0.06 0.16,-0.08 0.27,-0.08 0.14,0 0.34,0.08 0.6,0.25 0.26,0.17 0.59,0.35 0.99,0.55 0.4,0.2 0.89,0.39 1.45,0.55 0.56,0.17 1.21,0.25 1.95,0.25 0.48,0 0.92,-0.06 1.3,-0.17 0.38,-0.12 0.71,-0.28 0.98,-0.49 0.27,-0.21 0.47,-0.47 0.61,-0.79 0.14,-0.31 0.21,-0.66 0.21,-1.04 0,-0.44 -0.12,-0.83 -0.36,-1.14 -0.24,-0.32 -0.56,-0.6 -0.95,-0.85 -0.39,-0.25 -0.83,-0.48 -1.32,-0.7 -0.49,-0.22 -1,-0.45 -1.53,-0.69 -0.52,-0.24 -1.03,-0.52 -1.53,-0.82 -0.49,-0.31 -0.94,-0.68 -1.32,-1.11 -0.39,-0.43 -0.7,-0.94 -0.95,-1.52 -0.24,-0.58 -0.36,-1.29 -0.36,-2.1 0,-0.94 0.17,-1.76 0.52,-2.47 0.35,-0.71 0.82,-1.3 1.41,-1.77 0.59,-0.47 1.29,-0.82 2.09,-1.05 0.8,-0.23 1.65,-0.35 2.55,-0.35 0.46,0 0.93,0.04 1.39,0.11 0.46,0.07 0.9,0.17 1.3,0.29 0.4,0.12 0.76,0.26 1.07,0.41 0.31,0.15 0.52,0.28 0.62,0.38 0.1,0.1 0.17,0.19 0.2,0.26 0.04,0.07 0.07,0.16 0.09,0.28 0.02,0.12 0.04,0.26 0.05,0.44 0.01,0.18 0.02,0.4 0.02,0.66 0,0.29 -0.01,0.54 -0.02,0.74 -0.01,0.2 -0.04,0.37 -0.08,0.5 -0.04,0.13 -0.09,0.23 -0.15,0.29 -0.07,0.06 -0.15,0.09 -0.27,0.09 -0.11,0 -0.29,-0.07 -0.53,-0.21 -0.24,-0.14 -0.54,-0.29 -0.89,-0.46 -0.35,-0.17 -0.76,-0.32 -1.23,-0.45 -0.46,-0.14 -0.97,-0.2 -1.53,-0.2 -0.43,0 -0.81,0.05 -1.14,0.16 -0.32,0.11 -0.59,0.25 -0.81,0.44 -0.22,0.19 -0.38,0.41 -0.48,0.67 -0.11,0.26 -0.16,0.54 -0.16,0.83 0,0.43 0.12,0.81 0.36,1.13 0.24,0.32 0.56,0.6 0.95,0.85 0.4,0.25 0.85,0.48 1.35,0.7 0.5,0.22 1.02,0.45 1.54,0.69 0.52,0.24 1.04,0.52 1.54,0.82 0.5,0.31 0.95,0.68 1.35,1.11 0.39,0.43 0.71,0.93 0.95,1.51 0.25,0.55 0.38,1.23 0.38,2.02 z"
   id="path10" />
		</g>
		<g
   id="g38">
			<g
   id="g16">
				
					<rect
   x="346.13"
   y="411.73001"
   transform="rotate(90,347.31835,415.80785)"
   class="st1"
   width="2.3800001"
   height="8.1499996"
   id="rect14" />
			</g>
			<g
   id="g20">
				
					<rect
   x="334.32001"
   y="411.73001"
   transform="rotate(90,335.50735,415.80785)"
   class="st2"
   width="2.3800001"
   height="8.1499996"
   id="rect18" />
			</g>
			<g
   id="g24">
				
					<rect
   x="322.5"
   y="411.73001"
   transform="rotate(90,323.69645,415.80785)"
   class="st3"
   width="2.3800001"
   height="8.1499996"
   id="rect22" />
			</g>
			<g
   id="g28">
				
					<rect
   x="310.69"
   y="411.73001"
   transform="rotate(90,311.88545,415.80785)"
   class="st4"
   width="2.3800001"
   height="8.1499996"
   id="rect26" />
			</g>
			<g
   id="g32">
				
					<rect
   x="298.88"
   y="411.73001"
   transform="rotate(90,300.07455,415.80785)"
   class="st5"
   width="2.3800001"
   height="8.1499996"
   id="rect30" />
			</g>
			<g
   id="g36">
				
					<rect
   x="287.07001"
   y="411.73001"
   transform="rotate(90,288.26355,415.80785)"
   class="st6"
   width="2.3800001"
   height="8.1499996"
   id="rect34" />
			</g>
		</g>
		<g
   id="g48">
			<g
   id="g42">
				<path
   class="st7"
   d="m 275.68,387.53 c 0,-0.74 -0.6,-1.34 -1.33,-1.34 -0.11,0 -0.52,0.1 -0.52,0.11 -20.2,4.94 -20.05,24.15 -20.05,24.15 h 0.02 v 0 h -0.02 c 0,0 0.01,8.76 0.01,8.76 0.06,0.68 0.61,1.21 1.3,1.22 0,0 0,0.01 0,0.01 0,0 19.24,-0.01 19.24,-0.01 0.69,-0.01 1.24,-0.54 1.3,-1.22 0,0 0,-7.54 0,-7.53 -0.06,-0.68 -0.61,-1.21 -1.3,-1.22 0,0 0,0 0,-0.01 0,0 -5.25,0 -5.26,0 -0.72,0 -1.29,-0.57 -1.32,-1.28 -0.01,0 -0.73,-10.19 7.52,-17.84 0,-0.01 0,-0.01 0,-0.01 0.24,-0.23 0.38,-0.55 0.4,-0.9 0,0 0,0 0,0 0,-0.01 0.01,-2.87 0.01,-2.89"
   id="path40" />
			</g>
			<g
   id="g46">
				<path
   class="st8"
   d="m 245.82,455.72 c 0,0.74 0.6,1.34 1.33,1.34 0.1,0 0.52,-0.1 0.52,-0.11 20.2,-4.94 20.05,-24.15 20.05,-24.15 h -0.02 v 0 h 0.02 c 0,0 -0.01,-8.76 -0.01,-8.76 -0.06,-0.68 -0.61,-1.21 -1.3,-1.22 0,0 0,-0.01 0,-0.01 0,0 -19.24,0.01 -19.24,0.01 -0.69,0.01 -1.24,0.54 -1.3,1.22 0,0 0,7.54 0,7.53 0.06,0.68 0.61,1.21 1.3,1.22 0,0 0,0 0,0.01 0,0 5.25,0 5.26,0 0.72,0 1.29,0.57 1.32,1.28 0.01,0 0.73,10.19 -7.52,17.84 0,0 0,0.01 0,0.01 -0.24,0.23 -0.38,0.55 -0.4,0.9 0,0 0,0 0,0 0,0.01 -0.01,2.87 -0.01,2.89"
   id="path44" />
			</g>
		</g>
		<g
   id="g106">
			<path
   class="st0"
   d="m 291.81,427.87 c 0,0.06 0,0.12 -0.01,0.16 -0.01,0.04 -0.02,0.08 -0.03,0.11 -0.02,0.03 -0.03,0.05 -0.06,0.06 -0.02,0.01 -0.04,0.02 -0.07,0.02 h -2.31 v 2.14 h 2.18 c 0.02,0 0.04,0.01 0.07,0.02 0.03,0.01 0.04,0.03 0.06,0.06 0.02,0.03 0.03,0.06 0.03,0.1 0.01,0.04 0.01,0.1 0.01,0.17 0,0.06 0,0.11 -0.01,0.16 -0.01,0.04 -0.02,0.08 -0.03,0.11 -0.02,0.03 -0.04,0.05 -0.06,0.06 -0.02,0.01 -0.04,0.02 -0.07,0.02 h -2.18 v 2.62 c 0,0.02 -0.01,0.04 -0.02,0.07 -0.01,0.02 -0.04,0.04 -0.07,0.05 -0.03,0.01 -0.07,0.02 -0.13,0.03 -0.05,0.01 -0.12,0.01 -0.2,0.01 -0.08,0 -0.14,0 -0.2,-0.01 -0.06,-0.01 -0.1,-0.02 -0.13,-0.03 -0.03,-0.01 -0.06,-0.03 -0.07,-0.05 -0.01,-0.02 -0.02,-0.04 -0.02,-0.07 v -5.83 c 0,-0.13 0.03,-0.21 0.1,-0.27 0.07,-0.05 0.14,-0.08 0.21,-0.08 h 2.83 c 0.02,0 0.04,0.01 0.07,0.02 0.02,0.01 0.04,0.03 0.06,0.06 0.02,0.03 0.03,0.07 0.03,0.11 0.02,0.06 0.02,0.12 0.02,0.18 z"
   id="path50" />
			<path
   class="st0"
   d="m 297.59,433.46 c 0,0.06 0,0.11 -0.01,0.15 -0.01,0.04 -0.02,0.08 -0.03,0.11 -0.02,0.03 -0.03,0.05 -0.06,0.06 -0.02,0.01 -0.04,0.02 -0.07,0.02 h -3.02 c -0.07,0 -0.15,-0.02 -0.21,-0.08 -0.07,-0.05 -0.1,-0.14 -0.1,-0.27 v -5.62 c 0,-0.13 0.03,-0.21 0.1,-0.27 0.07,-0.05 0.14,-0.08 0.21,-0.08 h 2.99 c 0.03,0 0.05,0.01 0.07,0.02 0.02,0.01 0.04,0.03 0.05,0.06 0.01,0.03 0.02,0.07 0.03,0.11 0.01,0.04 0.01,0.1 0.01,0.16 0,0.06 0,0.11 -0.01,0.15 -0.01,0.04 -0.02,0.08 -0.03,0.11 -0.01,0.03 -0.03,0.05 -0.05,0.06 -0.02,0.01 -0.04,0.02 -0.07,0.02 h -2.46 v 1.98 h 2.11 c 0.03,0 0.05,0.01 0.07,0.02 0.02,0.01 0.04,0.03 0.05,0.06 0.01,0.03 0.03,0.06 0.03,0.11 0,0.05 0.01,0.1 0.01,0.16 0,0.06 0,0.11 -0.01,0.15 -0.01,0.04 -0.02,0.08 -0.03,0.1 -0.01,0.02 -0.03,0.04 -0.05,0.06 -0.02,0.01 -0.04,0.02 -0.07,0.02 h -2.11 v 2.25 h 2.5 c 0.03,0 0.05,0.01 0.07,0.02 0.02,0.01 0.04,0.03 0.06,0.06 0.02,0.03 0.03,0.06 0.03,0.11 0,0.05 0,0.13 0,0.19 z m -1.16,-7.69 c 0.04,-0.04 0.07,-0.07 0.1,-0.1 0.03,-0.02 0.07,-0.04 0.11,-0.05 0.04,-0.01 0.09,-0.02 0.15,-0.03 0.06,0 0.13,-0.01 0.21,-0.01 0.1,0 0.17,0.01 0.23,0.02 0.06,0.01 0.09,0.03 0.12,0.06 0.02,0.02 0.03,0.05 0.02,0.08 -0.01,0.03 -0.03,0.06 -0.06,0.09 l -1.1,1.03 c -0.03,0.03 -0.06,0.06 -0.09,0.08 -0.03,0.02 -0.06,0.03 -0.09,0.04 -0.04,0.01 -0.08,0.02 -0.12,0.02 -0.05,0 -0.1,0.01 -0.17,0.01 -0.07,0 -0.13,0 -0.18,-0.01 -0.04,-0.01 -0.07,-0.02 -0.09,-0.04 -0.02,-0.02 -0.02,-0.04 -0.01,-0.07 0.01,-0.03 0.02,-0.06 0.05,-0.09 z"
   id="path52" />
			<path
   class="st0"
   d="m 304.79,430.57 c 0,0.55 -0.07,1.02 -0.21,1.43 -0.14,0.41 -0.34,0.75 -0.61,1.01 -0.27,0.27 -0.6,0.47 -0.99,0.6 -0.39,0.13 -0.85,0.2 -1.39,0.2 h -1.33 c -0.07,0 -0.15,-0.02 -0.21,-0.08 -0.07,-0.05 -0.1,-0.14 -0.1,-0.27 v -5.62 c 0,-0.13 0.03,-0.21 0.1,-0.27 0.07,-0.05 0.14,-0.08 0.21,-0.08 h 1.43 c 0.55,0 1.01,0.07 1.38,0.21 0.38,0.14 0.69,0.34 0.95,0.61 0.26,0.27 0.45,0.59 0.58,0.96 0.13,0.4 0.19,0.82 0.19,1.3 z m -0.88,0.03 c 0,-0.34 -0.04,-0.66 -0.13,-0.95 -0.09,-0.29 -0.22,-0.55 -0.4,-0.76 -0.18,-0.21 -0.41,-0.38 -0.68,-0.5 -0.27,-0.12 -0.63,-0.18 -1.07,-0.18 h -0.85 v 4.9 h 0.86 c 0.4,0 0.74,-0.05 1.02,-0.15 0.28,-0.1 0.51,-0.25 0.69,-0.46 0.19,-0.21 0.32,-0.47 0.42,-0.78 0.1,-0.32 0.14,-0.69 0.14,-1.12 z"
   id="path54" />
			<path
   class="st0"
   d="m 310.59,433.46 c 0,0.06 0,0.11 -0.01,0.15 -0.01,0.04 -0.02,0.08 -0.03,0.11 -0.02,0.03 -0.03,0.05 -0.06,0.06 -0.02,0.01 -0.04,0.02 -0.07,0.02 h -3.02 c -0.07,0 -0.15,-0.02 -0.21,-0.08 -0.07,-0.05 -0.1,-0.14 -0.1,-0.27 v -5.62 c 0,-0.13 0.03,-0.21 0.1,-0.27 0.07,-0.05 0.14,-0.08 0.21,-0.08 h 2.99 c 0.03,0 0.05,0.01 0.07,0.02 0.02,0.01 0.04,0.03 0.05,0.06 0.01,0.03 0.02,0.07 0.03,0.11 0.01,0.04 0.01,0.1 0.01,0.16 0,0.06 0,0.11 -0.01,0.15 -0.01,0.04 -0.02,0.08 -0.03,0.11 -0.01,0.03 -0.03,0.05 -0.05,0.06 -0.02,0.01 -0.04,0.02 -0.07,0.02 h -2.46 v 1.98 h 2.11 c 0.03,0 0.05,0.01 0.07,0.02 0.02,0.01 0.04,0.03 0.05,0.06 0.01,0.03 0.03,0.06 0.03,0.11 0,0.05 0.01,0.1 0.01,0.16 0,0.06 0,0.11 -0.01,0.15 -0.01,0.04 -0.02,0.08 -0.03,0.1 -0.01,0.02 -0.03,0.04 -0.05,0.06 -0.02,0.01 -0.04,0.02 -0.07,0.02 h -2.11 v 2.25 h 2.5 c 0.03,0 0.05,0.01 0.07,0.02 0.02,0.01 0.04,0.03 0.06,0.06 0.02,0.03 0.03,0.06 0.03,0.11 0,0.05 0,0.13 0,0.19 z m -1.16,-7.69 c 0.04,-0.04 0.07,-0.07 0.1,-0.1 0.03,-0.02 0.07,-0.04 0.11,-0.05 0.04,-0.01 0.09,-0.02 0.15,-0.03 0.06,0 0.13,-0.01 0.21,-0.01 0.1,0 0.17,0.01 0.23,0.02 0.06,0.01 0.09,0.03 0.12,0.06 0.02,0.02 0.03,0.05 0.02,0.08 -0.01,0.03 -0.03,0.06 -0.06,0.09 l -1.1,1.03 c -0.03,0.03 -0.06,0.06 -0.09,0.08 -0.03,0.02 -0.06,0.03 -0.09,0.04 -0.04,0.01 -0.08,0.02 -0.12,0.02 -0.05,0 -0.1,0.01 -0.17,0.01 -0.07,0 -0.13,0 -0.18,-0.01 -0.04,-0.01 -0.07,-0.02 -0.09,-0.04 -0.02,-0.02 -0.02,-0.04 -0.01,-0.07 0.01,-0.03 0.02,-0.06 0.05,-0.09 z"
   id="path56" />
			<path
   class="st0"
   d="m 317.15,433.68 c 0,0.03 0,0.05 -0.01,0.07 -0.01,0.02 -0.03,0.04 -0.06,0.05 -0.03,0.01 -0.08,0.02 -0.14,0.03 -0.06,0.01 -0.14,0.01 -0.23,0.01 -0.08,0 -0.15,0 -0.21,-0.01 -0.05,-0.01 -0.1,-0.02 -0.13,-0.03 -0.03,-0.01 -0.06,-0.03 -0.08,-0.06 -0.02,-0.03 -0.03,-0.06 -0.05,-0.1 l -0.58,-1.49 c -0.07,-0.17 -0.14,-0.32 -0.21,-0.46 -0.07,-0.14 -0.16,-0.26 -0.26,-0.37 -0.1,-0.1 -0.22,-0.18 -0.36,-0.24 -0.14,-0.06 -0.3,-0.08 -0.49,-0.08 h -0.56 v 2.68 c 0,0.03 -0.01,0.05 -0.02,0.07 -0.01,0.02 -0.04,0.04 -0.07,0.05 -0.03,0.01 -0.07,0.02 -0.13,0.03 -0.05,0.01 -0.12,0.01 -0.2,0.01 -0.08,0 -0.15,0 -0.2,-0.01 -0.05,-0.01 -0.1,-0.02 -0.13,-0.03 -0.03,-0.01 -0.06,-0.03 -0.07,-0.05 -0.01,-0.02 -0.02,-0.04 -0.02,-0.07 v -5.83 c 0,-0.13 0.03,-0.21 0.1,-0.27 0.07,-0.05 0.14,-0.08 0.21,-0.08 h 1.34 c 0.16,0 0.29,0 0.4,0.01 0.11,0.01 0.2,0.02 0.28,0.03 0.24,0.04 0.46,0.11 0.65,0.2 0.19,0.09 0.34,0.21 0.47,0.35 0.13,0.14 0.22,0.3 0.29,0.48 0.06,0.18 0.09,0.38 0.09,0.6 0,0.21 -0.03,0.4 -0.08,0.57 -0.06,0.17 -0.14,0.31 -0.25,0.44 -0.11,0.13 -0.24,0.24 -0.38,0.33 -0.14,0.09 -0.32,0.17 -0.5,0.24 0.1,0.05 0.2,0.1 0.28,0.17 0.08,0.07 0.16,0.15 0.24,0.25 0.07,0.1 0.14,0.21 0.21,0.34 0.06,0.13 0.13,0.27 0.19,0.43 l 0.56,1.39 c 0.05,0.12 0.07,0.2 0.09,0.25 0.02,0.04 0.02,0.08 0.02,0.1 z m -1.26,-4.42 c 0,-0.25 -0.06,-0.46 -0.17,-0.63 -0.11,-0.17 -0.3,-0.29 -0.56,-0.37 -0.08,-0.02 -0.17,-0.04 -0.27,-0.05 -0.1,-0.01 -0.24,-0.01 -0.4,-0.01 h -0.71 v 2.12 h 0.82 c 0.22,0 0.41,-0.03 0.57,-0.08 0.16,-0.05 0.29,-0.13 0.4,-0.22 0.11,-0.1 0.19,-0.21 0.24,-0.34 0.06,-0.13 0.08,-0.27 0.08,-0.42 z"
   id="path58" />
			<path
   class="st0"
   d="m 324.08,433.51 c 0.03,0.07 0.04,0.13 0.04,0.17 0,0.04 -0.01,0.08 -0.04,0.1 -0.03,0.02 -0.07,0.04 -0.13,0.04 -0.06,0.01 -0.14,0.01 -0.24,0.01 -0.1,0 -0.18,0 -0.24,-0.01 -0.06,-0.01 -0.11,-0.01 -0.14,-0.02 -0.03,-0.01 -0.05,-0.03 -0.07,-0.05 -0.02,-0.02 -0.03,-0.04 -0.04,-0.07 l -0.54,-1.53 h -2.62 l -0.52,1.51 c -0.01,0.03 -0.02,0.05 -0.04,0.08 -0.02,0.02 -0.04,0.04 -0.07,0.05 -0.03,0.01 -0.07,0.02 -0.13,0.03 -0.06,0.01 -0.13,0.01 -0.22,0.01 -0.09,0 -0.17,0 -0.23,-0.01 -0.06,-0.01 -0.1,-0.02 -0.13,-0.05 -0.02,-0.02 -0.04,-0.06 -0.03,-0.1 0,-0.04 0.02,-0.1 0.04,-0.17 l 2.11,-5.85 c 0.01,-0.04 0.03,-0.06 0.05,-0.09 0.02,-0.02 0.05,-0.04 0.09,-0.05 0.04,-0.01 0.09,-0.02 0.16,-0.03 0.06,0 0.14,-0.01 0.24,-0.01 0.1,0 0.19,0 0.26,0.01 0.07,0 0.12,0.01 0.17,0.03 0.04,0.01 0.07,0.03 0.1,0.06 0.02,0.02 0.04,0.05 0.05,0.09 z m -2.71,-5.16 v 0 l -1.09,3.14 h 2.19 z"
   id="path60" />
			<path
   class="st0"
   d="m 329.3,427.87 c 0,0.06 0,0.12 -0.01,0.16 -0.01,0.05 -0.02,0.08 -0.03,0.11 -0.01,0.03 -0.03,0.05 -0.05,0.06 -0.02,0.01 -0.04,0.02 -0.07,0.02 h -1.77 v 5.46 c 0,0.03 -0.01,0.05 -0.02,0.07 -0.01,0.02 -0.04,0.04 -0.07,0.05 -0.03,0.01 -0.08,0.02 -0.13,0.03 -0.05,0.01 -0.12,0.01 -0.2,0.01 -0.08,0 -0.14,0 -0.2,-0.01 -0.06,-0.01 -0.1,-0.02 -0.13,-0.03 -0.03,-0.01 -0.06,-0.03 -0.07,-0.05 -0.01,-0.02 -0.02,-0.04 -0.02,-0.07 v -5.46 h -1.77 c -0.03,0 -0.05,-0.01 -0.07,-0.02 -0.02,-0.01 -0.04,-0.03 -0.05,-0.06 -0.01,-0.03 -0.02,-0.06 -0.03,-0.11 -0.01,-0.05 -0.01,-0.1 -0.01,-0.16 0,-0.06 0,-0.12 0.01,-0.16 0.01,-0.05 0.02,-0.09 0.03,-0.11 0.01,-0.03 0.03,-0.05 0.05,-0.06 0.02,-0.01 0.04,-0.02 0.07,-0.02 h 4.38 c 0.03,0 0.05,0.01 0.07,0.02 0.02,0.01 0.04,0.03 0.05,0.06 0.01,0.03 0.02,0.07 0.03,0.11 0.01,0.04 0.01,0.1 0.01,0.16 z"
   id="path62" />
			<path
   class="st0"
   d="m 332.04,433.68 c 0,0.03 -0.01,0.05 -0.02,0.07 -0.01,0.02 -0.04,0.04 -0.07,0.05 -0.03,0.01 -0.08,0.02 -0.13,0.03 -0.05,0.01 -0.12,0.01 -0.2,0.01 -0.08,0 -0.14,0 -0.2,-0.01 -0.06,-0.01 -0.1,-0.02 -0.13,-0.03 -0.03,-0.01 -0.06,-0.03 -0.07,-0.05 -0.01,-0.02 -0.02,-0.04 -0.02,-0.07 v -6.05 c 0,-0.03 0.01,-0.05 0.02,-0.07 0.01,-0.02 0.04,-0.03 0.07,-0.05 0.03,-0.02 0.08,-0.02 0.13,-0.03 0.05,-0.01 0.12,-0.01 0.19,-0.01 0.08,0 0.15,0 0.2,0.01 0.05,0.01 0.1,0.02 0.13,0.03 0.03,0.01 0.06,0.03 0.07,0.05 0.01,0.02 0.02,0.04 0.02,0.07 v 6.05 z"
   id="path64" />
			<path
   class="st0"
   d="m 340,430.59 c 0,0.51 -0.06,0.97 -0.18,1.38 -0.12,0.41 -0.3,0.76 -0.54,1.04 -0.24,0.29 -0.54,0.51 -0.9,0.66 -0.36,0.15 -0.78,0.23 -1.26,0.23 -0.47,0 -0.88,-0.07 -1.23,-0.21 -0.35,-0.14 -0.63,-0.35 -0.86,-0.62 -0.23,-0.27 -0.39,-0.6 -0.5,-1 -0.11,-0.4 -0.17,-0.86 -0.17,-1.38 0,-0.5 0.06,-0.95 0.18,-1.35 0.12,-0.4 0.3,-0.75 0.54,-1.04 0.24,-0.28 0.54,-0.5 0.9,-0.66 0.36,-0.16 0.78,-0.23 1.26,-0.23 0.46,0 0.87,0.07 1.21,0.21 0.34,0.14 0.63,0.34 0.86,0.61 0.23,0.27 0.4,0.6 0.51,0.99 0.12,0.4 0.18,0.86 0.18,1.37 z m -0.89,0.05 c 0,-0.36 -0.03,-0.69 -0.09,-1 -0.06,-0.31 -0.17,-0.57 -0.32,-0.8 -0.15,-0.23 -0.34,-0.4 -0.59,-0.53 -0.25,-0.13 -0.55,-0.19 -0.91,-0.19 -0.36,0 -0.67,0.07 -0.91,0.2 -0.24,0.13 -0.45,0.32 -0.6,0.55 -0.15,0.23 -0.26,0.49 -0.33,0.8 -0.07,0.3 -0.1,0.62 -0.1,0.96 0,0.37 0.03,0.71 0.09,1.02 0.06,0.31 0.17,0.58 0.31,0.81 0.15,0.23 0.34,0.4 0.59,0.53 0.25,0.12 0.55,0.19 0.92,0.19 0.37,0 0.67,-0.07 0.92,-0.2 0.25,-0.14 0.45,-0.32 0.6,-0.55 0.15,-0.23 0.26,-0.5 0.33,-0.81 0.07,-0.31 0.09,-0.63 0.09,-0.98 z"
   id="path66" />
			<path
   class="st0"
   d="m 347.08,433.46 c 0,0.06 -0.01,0.12 -0.03,0.17 -0.02,0.05 -0.05,0.08 -0.09,0.11 -0.04,0.03 -0.07,0.05 -0.12,0.06 -0.04,0.01 -0.09,0.02 -0.13,0.02 h -0.28 c -0.09,0 -0.16,-0.01 -0.23,-0.03 -0.07,-0.02 -0.13,-0.05 -0.19,-0.1 -0.06,-0.05 -0.12,-0.11 -0.18,-0.19 -0.06,-0.08 -0.12,-0.19 -0.19,-0.31 l -1.92,-3.58 c -0.1,-0.19 -0.2,-0.38 -0.3,-0.58 -0.1,-0.2 -0.2,-0.4 -0.29,-0.59 h -0.01 c 0.01,0.23 0.01,0.47 0.01,0.72 0,0.24 0,0.49 0,0.73 v 3.8 c 0,0.02 -0.01,0.04 -0.02,0.07 -0.01,0.02 -0.04,0.04 -0.07,0.05 -0.03,0.01 -0.08,0.02 -0.13,0.03 -0.05,0.01 -0.12,0.01 -0.2,0.01 -0.08,0 -0.15,0 -0.2,-0.01 -0.05,-0.01 -0.1,-0.02 -0.13,-0.03 -0.03,-0.01 -0.05,-0.03 -0.07,-0.05 -0.01,-0.02 -0.02,-0.04 -0.02,-0.07 v -5.81 c 0,-0.13 0.04,-0.22 0.11,-0.28 0.07,-0.06 0.15,-0.08 0.24,-0.08 h 0.41 c 0.1,0 0.18,0.01 0.24,0.02 0.07,0.02 0.12,0.04 0.18,0.08 0.05,0.04 0.1,0.09 0.15,0.16 0.05,0.07 0.1,0.15 0.15,0.25 l 1.48,2.77 c 0.09,0.17 0.18,0.33 0.26,0.49 0.08,0.16 0.17,0.32 0.24,0.47 0.07,0.15 0.16,0.31 0.23,0.46 0.08,0.15 0.15,0.3 0.23,0.46 v 0 c -0.01,-0.26 -0.01,-0.52 -0.01,-0.8 0,-0.28 0,-0.54 0,-0.8 v -3.42 c 0,-0.02 0.01,-0.04 0.02,-0.06 0.01,-0.02 0.04,-0.04 0.07,-0.05 0.03,-0.01 0.08,-0.03 0.13,-0.03 0.05,0 0.12,-0.01 0.21,-0.01 0.08,0 0.14,0 0.2,0.01 0.06,0.01 0.1,0.02 0.13,0.03 0.03,0.01 0.05,0.03 0.07,0.05 0.02,0.02 0.02,0.04 0.02,0.06 v 5.8 z"
   id="path68" />
			<path
   class="st0"
   d="m 289.84,445.32 c 0,0.03 -0.01,0.05 -0.02,0.07 -0.01,0.02 -0.03,0.04 -0.06,0.05 -0.03,0.01 -0.06,0.02 -0.11,0.03 -0.05,0.01 -0.1,0.01 -0.17,0.01 -0.07,0 -0.12,0 -0.17,-0.01 -0.05,-0.01 -0.08,-0.02 -0.11,-0.03 -0.03,-0.01 -0.05,-0.03 -0.06,-0.05 -0.01,-0.02 -0.02,-0.04 -0.02,-0.07 v -0.58 c -0.23,0.25 -0.47,0.44 -0.72,0.58 -0.25,0.14 -0.52,0.21 -0.82,0.21 -0.32,0 -0.6,-0.06 -0.82,-0.19 -0.23,-0.12 -0.41,-0.29 -0.55,-0.51 -0.14,-0.21 -0.24,-0.46 -0.31,-0.75 -0.06,-0.29 -0.1,-0.59 -0.1,-0.91 0,-0.38 0.04,-0.72 0.12,-1.02 0.08,-0.3 0.2,-0.56 0.36,-0.78 0.16,-0.21 0.36,-0.38 0.59,-0.49 0.23,-0.11 0.51,-0.17 0.82,-0.17 0.26,0 0.49,0.06 0.7,0.17 0.21,0.11 0.42,0.28 0.63,0.49 v -2.55 c 0,-0.02 0.01,-0.04 0.02,-0.07 0.01,-0.02 0.03,-0.04 0.07,-0.05 0.03,-0.01 0.07,-0.02 0.12,-0.03 0.05,-0.01 0.11,-0.01 0.19,-0.01 0.08,0 0.15,0 0.2,0.01 0.05,0.01 0.09,0.02 0.12,0.03 0.03,0.01 0.05,0.03 0.07,0.05 0.02,0.02 0.02,0.04 0.02,0.07 v 6.5 z m -0.81,-3.08 c -0.22,-0.27 -0.43,-0.48 -0.63,-0.62 -0.2,-0.14 -0.41,-0.21 -0.64,-0.21 -0.2,0 -0.38,0.05 -0.52,0.15 -0.14,0.1 -0.26,0.23 -0.35,0.38 -0.09,0.16 -0.15,0.34 -0.19,0.54 -0.04,0.2 -0.06,0.41 -0.06,0.61 0,0.22 0.02,0.44 0.05,0.65 0.03,0.21 0.09,0.4 0.18,0.56 0.08,0.16 0.2,0.3 0.34,0.39 0.14,0.1 0.31,0.15 0.53,0.15 0.11,0 0.21,-0.01 0.31,-0.04 0.1,-0.03 0.2,-0.08 0.3,-0.15 0.1,-0.07 0.21,-0.16 0.33,-0.27 0.11,-0.11 0.23,-0.24 0.36,-0.4 v -1.74 z"
   id="path70" />
			<path
   class="st0"
   d="m 296.06,442.94 c 0,0.13 -0.03,0.22 -0.1,0.27 -0.06,0.05 -0.14,0.08 -0.22,0.08 h -2.89 c 0,0.24 0.02,0.46 0.07,0.66 0.05,0.2 0.13,0.36 0.24,0.5 0.11,0.14 0.26,0.25 0.45,0.32 0.19,0.07 0.41,0.11 0.67,0.11 0.21,0 0.39,-0.02 0.56,-0.05 0.16,-0.03 0.3,-0.07 0.42,-0.11 0.12,-0.04 0.22,-0.08 0.29,-0.11 0.08,-0.03 0.13,-0.05 0.17,-0.05 0.02,0 0.04,0.01 0.06,0.02 0.02,0.01 0.03,0.03 0.04,0.05 0.01,0.02 0.02,0.05 0.02,0.09 0,0.04 0.01,0.09 0.01,0.15 0,0.04 0,0.08 0,0.11 0,0.03 -0.01,0.06 -0.01,0.08 0,0.02 -0.01,0.05 -0.02,0.07 -0.01,0.02 -0.03,0.04 -0.04,0.06 -0.02,0.02 -0.07,0.05 -0.16,0.09 -0.09,0.04 -0.2,0.08 -0.34,0.12 -0.14,0.04 -0.3,0.07 -0.48,0.1 -0.18,0.03 -0.38,0.05 -0.59,0.05 -0.36,0 -0.68,-0.05 -0.95,-0.15 -0.27,-0.1 -0.5,-0.25 -0.68,-0.45 -0.19,-0.2 -0.32,-0.45 -0.42,-0.75 -0.09,-0.3 -0.14,-0.65 -0.14,-1.04 0,-0.38 0.05,-0.72 0.15,-1.02 0.1,-0.3 0.24,-0.56 0.42,-0.76 0.18,-0.21 0.41,-0.37 0.67,-0.48 0.26,-0.11 0.55,-0.17 0.87,-0.17 0.34,0 0.64,0.06 0.88,0.17 0.24,0.11 0.44,0.26 0.6,0.45 0.16,0.19 0.27,0.41 0.34,0.66 0.07,0.25 0.11,0.52 0.11,0.81 z m -0.81,-0.24 c 0.01,-0.42 -0.08,-0.75 -0.28,-0.99 -0.2,-0.24 -0.49,-0.36 -0.88,-0.36 -0.2,0 -0.37,0.04 -0.52,0.11 -0.15,0.07 -0.28,0.17 -0.38,0.3 -0.1,0.12 -0.18,0.27 -0.24,0.43 -0.06,0.16 -0.09,0.34 -0.09,0.51 z"
   id="path72" />
			<path
   class="st0"
   d="m 301.03,444.13 c 0,0.22 -0.04,0.42 -0.12,0.6 -0.08,0.18 -0.2,0.32 -0.35,0.44 -0.15,0.12 -0.33,0.21 -0.55,0.27 -0.22,0.06 -0.44,0.09 -0.7,0.09 -0.16,0 -0.3,-0.01 -0.45,-0.04 -0.14,-0.02 -0.27,-0.06 -0.38,-0.09 -0.11,-0.04 -0.21,-0.08 -0.29,-0.12 -0.08,-0.04 -0.13,-0.08 -0.17,-0.11 -0.04,-0.03 -0.06,-0.08 -0.08,-0.14 -0.02,-0.06 -0.02,-0.14 -0.02,-0.24 0,-0.06 0,-0.11 0.01,-0.16 0.01,-0.04 0.01,-0.08 0.02,-0.1 0.01,-0.02 0.02,-0.04 0.04,-0.06 0.02,-0.01 0.04,-0.02 0.06,-0.02 0.04,0 0.09,0.02 0.16,0.07 0.07,0.05 0.16,0.09 0.26,0.14 0.1,0.05 0.22,0.1 0.36,0.14 0.14,0.04 0.3,0.07 0.48,0.07 0.14,0 0.26,-0.01 0.37,-0.04 0.11,-0.03 0.21,-0.07 0.29,-0.13 0.08,-0.06 0.14,-0.13 0.19,-0.22 0.04,-0.09 0.07,-0.19 0.07,-0.31 0,-0.12 -0.03,-0.23 -0.09,-0.31 -0.06,-0.08 -0.15,-0.16 -0.25,-0.22 -0.1,-0.06 -0.22,-0.12 -0.35,-0.17 -0.13,-0.05 -0.26,-0.1 -0.4,-0.16 -0.14,-0.06 -0.27,-0.12 -0.4,-0.19 -0.13,-0.07 -0.25,-0.16 -0.35,-0.26 -0.1,-0.1 -0.19,-0.22 -0.25,-0.36 -0.06,-0.14 -0.1,-0.31 -0.1,-0.5 0,-0.17 0.03,-0.34 0.1,-0.49 0.07,-0.16 0.17,-0.3 0.3,-0.41 0.13,-0.11 0.3,-0.21 0.5,-0.28 0.2,-0.07 0.43,-0.11 0.7,-0.11 0.12,0 0.23,0.01 0.35,0.03 0.12,0.02 0.22,0.04 0.32,0.07 0.09,0.03 0.17,0.06 0.24,0.09 0.07,0.03 0.12,0.06 0.15,0.09 0.03,0.03 0.06,0.05 0.07,0.07 0.01,0.02 0.02,0.04 0.02,0.07 0,0.03 0.01,0.05 0.01,0.09 0,0.04 0.01,0.08 0.01,0.13 0,0.06 0,0.1 -0.01,0.14 -0.01,0.04 -0.01,0.07 -0.02,0.1 -0.01,0.03 -0.02,0.04 -0.04,0.06 -0.02,0.01 -0.03,0.02 -0.05,0.02 -0.03,0 -0.07,-0.02 -0.13,-0.05 -0.06,-0.03 -0.13,-0.07 -0.21,-0.11 -0.09,-0.04 -0.19,-0.08 -0.31,-0.11 -0.12,-0.04 -0.25,-0.05 -0.41,-0.05 -0.14,0 -0.26,0.02 -0.36,0.05 -0.1,0.03 -0.19,0.07 -0.26,0.13 -0.07,0.06 -0.12,0.12 -0.15,0.2 -0.03,0.08 -0.05,0.16 -0.05,0.25 0,0.13 0.03,0.23 0.1,0.32 0.06,0.09 0.15,0.16 0.25,0.23 0.1,0.07 0.22,0.12 0.36,0.18 0.13,0.05 0.27,0.11 0.41,0.16 0.14,0.06 0.27,0.12 0.41,0.19 0.13,0.07 0.25,0.15 0.36,0.25 0.1,0.1 0.19,0.21 0.25,0.35 0.05,0.12 0.08,0.28 0.08,0.47 z"
   id="path74" />
			<path
   class="st0"
   d="m 309.91,443.68 c 0,0.3 -0.05,0.56 -0.16,0.79 -0.11,0.23 -0.26,0.43 -0.45,0.59 -0.19,0.16 -0.42,0.28 -0.68,0.36 -0.26,0.08 -0.54,0.12 -0.84,0.12 -0.21,0 -0.41,-0.02 -0.59,-0.05 -0.18,-0.03 -0.34,-0.08 -0.48,-0.13 -0.14,-0.05 -0.26,-0.11 -0.36,-0.16 -0.1,-0.06 -0.16,-0.1 -0.2,-0.14 -0.04,-0.04 -0.06,-0.09 -0.08,-0.15 -0.02,-0.06 -0.03,-0.14 -0.03,-0.24 0,-0.07 0,-0.13 0.01,-0.18 0.01,-0.05 0.02,-0.08 0.03,-0.11 0.01,-0.03 0.03,-0.05 0.05,-0.06 0.02,-0.01 0.04,-0.02 0.07,-0.02 0.05,0 0.11,0.03 0.19,0.08 0.08,0.06 0.19,0.12 0.32,0.18 0.13,0.06 0.29,0.13 0.47,0.18 0.18,0.06 0.4,0.08 0.64,0.08 0.18,0 0.35,-0.02 0.5,-0.07 0.15,-0.05 0.28,-0.12 0.39,-0.21 0.11,-0.09 0.19,-0.2 0.25,-0.33 0.06,-0.13 0.09,-0.28 0.09,-0.44 0,-0.18 -0.04,-0.33 -0.12,-0.46 -0.08,-0.13 -0.19,-0.24 -0.32,-0.33 -0.13,-0.09 -0.28,-0.18 -0.46,-0.26 -0.17,-0.08 -0.34,-0.16 -0.52,-0.24 -0.18,-0.08 -0.35,-0.17 -0.52,-0.27 -0.17,-0.1 -0.32,-0.22 -0.45,-0.36 -0.13,-0.14 -0.24,-0.3 -0.32,-0.48 -0.08,-0.18 -0.12,-0.4 -0.12,-0.66 0,-0.26 0.05,-0.5 0.14,-0.7 0.09,-0.2 0.23,-0.38 0.4,-0.52 0.17,-0.14 0.37,-0.25 0.61,-0.32 0.24,-0.07 0.49,-0.11 0.76,-0.11 0.14,0 0.28,0.01 0.42,0.04 0.14,0.02 0.27,0.06 0.4,0.1 0.13,0.04 0.24,0.09 0.33,0.14 0.1,0.05 0.16,0.09 0.19,0.12 0.03,0.03 0.05,0.06 0.06,0.07 0.01,0.02 0.02,0.04 0.02,0.07 0.01,0.03 0.01,0.06 0.01,0.1 0,0.04 0,0.09 0,0.15 0,0.06 0,0.11 -0.01,0.16 -0.01,0.05 -0.01,0.08 -0.02,0.11 -0.01,0.03 -0.02,0.05 -0.04,0.07 -0.02,0.01 -0.04,0.02 -0.06,0.02 -0.04,0 -0.09,-0.02 -0.17,-0.07 -0.08,-0.05 -0.17,-0.1 -0.28,-0.15 -0.11,-0.06 -0.24,-0.11 -0.39,-0.16 -0.15,-0.05 -0.32,-0.07 -0.51,-0.07 -0.18,0 -0.33,0.02 -0.46,0.07 -0.13,0.05 -0.24,0.11 -0.32,0.19 -0.08,0.08 -0.15,0.17 -0.19,0.28 -0.04,0.11 -0.06,0.22 -0.06,0.34 0,0.18 0.04,0.33 0.12,0.45 0.08,0.12 0.19,0.24 0.32,0.34 0.13,0.1 0.29,0.19 0.46,0.27 0.17,0.08 0.35,0.16 0.53,0.25 0.18,0.08 0.35,0.17 0.53,0.27 0.17,0.1 0.33,0.22 0.46,0.35 0.13,0.13 0.24,0.29 0.33,0.48 0.07,0.16 0.11,0.38 0.11,0.63 z"
   id="path76" />
			<path
   class="st0"
   d="m 315.61,445.1 c 0,0.06 0,0.11 -0.01,0.15 -0.01,0.04 -0.02,0.08 -0.03,0.11 -0.02,0.03 -0.03,0.05 -0.06,0.06 -0.02,0.01 -0.04,0.02 -0.07,0.02 h -3.02 c -0.07,0 -0.15,-0.02 -0.21,-0.08 -0.07,-0.05 -0.1,-0.14 -0.1,-0.27 v -5.62 c 0,-0.13 0.03,-0.21 0.1,-0.27 0.07,-0.05 0.14,-0.08 0.21,-0.08 h 2.99 c 0.03,0 0.05,0.01 0.07,0.02 0.02,0.01 0.04,0.03 0.05,0.06 0.01,0.03 0.02,0.07 0.03,0.11 0.01,0.04 0.01,0.1 0.01,0.16 0,0.06 0,0.11 -0.01,0.15 -0.01,0.04 -0.02,0.08 -0.03,0.11 -0.01,0.03 -0.03,0.05 -0.05,0.06 -0.02,0.01 -0.04,0.02 -0.07,0.02 h -2.46 v 1.98 h 2.11 c 0.03,0 0.05,0.01 0.07,0.02 0.02,0.01 0.04,0.03 0.05,0.06 0.01,0.03 0.03,0.06 0.03,0.11 0,0.05 0.01,0.1 0.01,0.16 0,0.06 0,0.11 -0.01,0.15 -0.01,0.04 -0.02,0.08 -0.03,0.1 -0.01,0.02 -0.03,0.04 -0.05,0.06 -0.02,0.01 -0.04,0.02 -0.07,0.02 h -2.11 v 2.25 h 2.5 c 0.03,0 0.05,0.01 0.07,0.02 0.02,0.01 0.04,0.03 0.06,0.06 0.02,0.03 0.03,0.06 0.03,0.11 0,0.05 0,0.12 0,0.19 z"
   id="path78" />
			<path
   class="st0"
   d="m 322.17,445.32 c 0,0.03 0,0.05 -0.01,0.07 -0.01,0.02 -0.03,0.04 -0.06,0.05 -0.03,0.01 -0.08,0.02 -0.14,0.03 -0.06,0.01 -0.14,0.01 -0.23,0.01 -0.08,0 -0.15,0 -0.21,-0.01 -0.05,-0.01 -0.1,-0.02 -0.13,-0.03 -0.03,-0.01 -0.06,-0.03 -0.08,-0.06 -0.02,-0.03 -0.03,-0.06 -0.05,-0.1 l -0.58,-1.49 c -0.07,-0.17 -0.14,-0.32 -0.21,-0.46 -0.07,-0.14 -0.16,-0.26 -0.26,-0.37 -0.1,-0.1 -0.22,-0.18 -0.36,-0.24 -0.14,-0.06 -0.3,-0.08 -0.49,-0.08 h -0.56 v 2.68 c 0,0.03 -0.01,0.05 -0.02,0.07 -0.01,0.02 -0.04,0.04 -0.07,0.05 -0.03,0.01 -0.07,0.02 -0.13,0.03 -0.05,0.01 -0.12,0.01 -0.2,0.01 -0.08,0 -0.15,0 -0.2,-0.01 -0.05,-0.01 -0.1,-0.02 -0.13,-0.03 -0.03,-0.01 -0.06,-0.03 -0.07,-0.05 -0.01,-0.02 -0.02,-0.04 -0.02,-0.07 v -5.83 c 0,-0.13 0.03,-0.21 0.1,-0.27 0.07,-0.05 0.14,-0.08 0.21,-0.08 h 1.34 c 0.16,0 0.29,0 0.4,0.01 0.11,0.01 0.2,0.02 0.28,0.03 0.24,0.04 0.46,0.11 0.65,0.2 0.19,0.09 0.34,0.21 0.47,0.35 0.13,0.14 0.22,0.3 0.29,0.48 0.06,0.18 0.09,0.38 0.09,0.6 0,0.21 -0.03,0.4 -0.08,0.57 -0.06,0.17 -0.14,0.31 -0.25,0.44 -0.11,0.13 -0.24,0.24 -0.38,0.33 -0.14,0.09 -0.32,0.17 -0.5,0.24 0.1,0.05 0.2,0.1 0.28,0.17 0.08,0.07 0.16,0.15 0.24,0.25 0.07,0.1 0.14,0.21 0.21,0.34 0.06,0.13 0.13,0.27 0.19,0.43 l 0.56,1.39 c 0.05,0.12 0.07,0.2 0.09,0.25 0.02,0.04 0.02,0.07 0.02,0.1 z m -1.26,-4.43 c 0,-0.25 -0.06,-0.46 -0.17,-0.63 -0.11,-0.17 -0.3,-0.29 -0.56,-0.37 -0.08,-0.02 -0.17,-0.04 -0.27,-0.05 -0.1,-0.01 -0.24,-0.01 -0.4,-0.01 h -0.71 v 2.12 h 0.82 c 0.22,0 0.41,-0.03 0.57,-0.08 0.16,-0.05 0.29,-0.13 0.4,-0.22 0.11,-0.1 0.19,-0.21 0.24,-0.34 0.06,-0.12 0.08,-0.27 0.08,-0.42 z"
   id="path80" />
			<path
   class="st0"
   d="m 326.79,445.3 c -0.01,0.04 -0.03,0.06 -0.05,0.09 -0.02,0.02 -0.05,0.04 -0.1,0.05 -0.04,0.01 -0.09,0.02 -0.16,0.03 -0.07,0.01 -0.14,0.01 -0.24,0.01 -0.07,0 -0.13,0 -0.19,0 -0.05,0 -0.1,-0.01 -0.14,-0.01 -0.04,0 -0.07,-0.01 -0.1,-0.02 -0.03,-0.01 -0.05,-0.02 -0.07,-0.03 -0.02,-0.01 -0.03,-0.03 -0.05,-0.05 -0.01,-0.02 -0.02,-0.04 -0.03,-0.07 l -2.06,-5.85 c -0.03,-0.07 -0.04,-0.13 -0.04,-0.17 0,-0.04 0.01,-0.08 0.04,-0.1 0.03,-0.02 0.08,-0.04 0.14,-0.04 0.06,0 0.15,-0.01 0.26,-0.01 0.09,0 0.16,0 0.22,0.01 0.05,0 0.1,0.01 0.12,0.03 0.03,0.01 0.05,0.03 0.07,0.05 0.01,0.02 0.03,0.05 0.04,0.08 l 1.81,5.3 v 0 l 1.76,-5.29 c 0.01,-0.04 0.02,-0.06 0.03,-0.09 0.01,-0.02 0.04,-0.04 0.07,-0.05 0.03,-0.01 0.08,-0.02 0.14,-0.03 0.06,-0.01 0.14,-0.01 0.23,-0.01 0.1,0 0.18,0 0.24,0.01 0.06,0.01 0.1,0.02 0.12,0.05 0.02,0.02 0.03,0.06 0.02,0.1 -0.01,0.04 -0.02,0.1 -0.05,0.17 z"
   id="path82" />
			<path
   class="st0"
   d="m 331.74,445.32 c 0,0.03 -0.01,0.05 -0.02,0.07 -0.01,0.02 -0.04,0.04 -0.07,0.05 -0.03,0.01 -0.08,0.02 -0.13,0.03 -0.05,0.01 -0.12,0.01 -0.2,0.01 -0.08,0 -0.14,0 -0.2,-0.01 -0.06,-0.01 -0.1,-0.02 -0.13,-0.03 -0.03,-0.01 -0.06,-0.03 -0.07,-0.05 -0.01,-0.02 -0.02,-0.04 -0.02,-0.07 v -6.05 c 0,-0.03 0.01,-0.05 0.02,-0.07 0.01,-0.02 0.04,-0.03 0.07,-0.05 0.03,-0.02 0.08,-0.02 0.13,-0.03 0.05,-0.01 0.12,-0.01 0.19,-0.01 0.08,0 0.15,0 0.2,0.01 0.05,0.01 0.1,0.02 0.13,0.03 0.03,0.01 0.06,0.03 0.07,0.05 0.01,0.02 0.02,0.04 0.02,0.07 v 6.05 z"
   id="path84" />
			<path
   class="st0"
   d="m 338.62,444.55 c 0,0.05 0,0.1 0,0.14 0,0.04 -0.01,0.07 -0.02,0.1 -0.01,0.03 -0.02,0.06 -0.03,0.08 -0.01,0.02 -0.04,0.05 -0.07,0.08 -0.03,0.03 -0.1,0.08 -0.2,0.15 -0.1,0.07 -0.23,0.13 -0.39,0.19 -0.15,0.06 -0.33,0.12 -0.53,0.16 -0.2,0.04 -0.42,0.07 -0.65,0.07 -0.41,0 -0.78,-0.07 -1.11,-0.2 -0.33,-0.14 -0.61,-0.34 -0.84,-0.6 -0.23,-0.27 -0.41,-0.59 -0.54,-0.99 -0.12,-0.39 -0.19,-0.84 -0.19,-1.35 0,-0.52 0.07,-0.99 0.2,-1.4 0.13,-0.41 0.32,-0.76 0.57,-1.04 0.24,-0.28 0.53,-0.5 0.87,-0.65 0.34,-0.15 0.72,-0.22 1.13,-0.22 0.18,0 0.36,0.02 0.53,0.05 0.17,0.03 0.33,0.08 0.48,0.13 0.15,0.05 0.28,0.11 0.39,0.18 0.11,0.07 0.19,0.12 0.24,0.17 0.04,0.04 0.07,0.08 0.09,0.1 0.01,0.02 0.02,0.05 0.03,0.08 0.01,0.03 0.01,0.07 0.02,0.11 0,0.04 0.01,0.09 0.01,0.15 0,0.06 0,0.12 -0.01,0.17 -0.01,0.05 -0.02,0.08 -0.03,0.11 -0.01,0.03 -0.03,0.05 -0.05,0.07 -0.02,0.02 -0.04,0.02 -0.07,0.02 -0.05,0 -0.11,-0.03 -0.19,-0.1 -0.08,-0.06 -0.19,-0.13 -0.32,-0.21 -0.13,-0.08 -0.29,-0.15 -0.47,-0.21 -0.18,-0.06 -0.41,-0.1 -0.66,-0.1 -0.28,0 -0.54,0.06 -0.77,0.17 -0.23,0.11 -0.43,0.28 -0.59,0.49 -0.16,0.22 -0.29,0.48 -0.38,0.8 -0.09,0.31 -0.13,0.67 -0.13,1.07 0,0.4 0.04,0.75 0.13,1.06 0.09,0.31 0.21,0.56 0.37,0.77 0.16,0.21 0.36,0.36 0.59,0.47 0.24,0.11 0.5,0.16 0.8,0.16 0.25,0 0.47,-0.03 0.66,-0.09 0.19,-0.06 0.35,-0.13 0.48,-0.21 0.13,-0.08 0.24,-0.15 0.33,-0.21 0.08,-0.06 0.15,-0.09 0.2,-0.09 0.02,0 0.04,0 0.06,0.01 0.02,0.01 0.03,0.03 0.04,0.06 0.01,0.03 0.02,0.07 0.02,0.11 0,0.04 0,0.12 0,0.19 z"
   id="path86" />
			<path
   class="st0"
   d="m 344.23,445.1 c 0,0.06 0,0.11 -0.01,0.15 -0.01,0.04 -0.02,0.08 -0.03,0.11 -0.02,0.03 -0.03,0.05 -0.06,0.06 -0.02,0.01 -0.04,0.02 -0.07,0.02 h -3.02 c -0.07,0 -0.15,-0.02 -0.21,-0.08 -0.07,-0.05 -0.1,-0.14 -0.1,-0.27 v -5.62 c 0,-0.13 0.03,-0.21 0.1,-0.27 0.07,-0.05 0.14,-0.08 0.21,-0.08 h 2.99 c 0.03,0 0.05,0.01 0.07,0.02 0.02,0.01 0.04,0.03 0.05,0.06 0.01,0.03 0.02,0.07 0.03,0.11 0.01,0.04 0.01,0.1 0.01,0.16 0,0.06 0,0.11 -0.01,0.15 -0.01,0.04 -0.02,0.08 -0.03,0.11 -0.01,0.03 -0.03,0.05 -0.05,0.06 -0.02,0.01 -0.04,0.02 -0.07,0.02 h -2.46 v 1.98 h 2.11 c 0.03,0 0.05,0.01 0.07,0.02 0.02,0.01 0.04,0.03 0.05,0.06 0.01,0.03 0.03,0.06 0.03,0.11 0,0.05 0.01,0.1 0.01,0.16 0,0.06 0,0.11 -0.01,0.15 -0.01,0.04 -0.02,0.08 -0.03,0.1 -0.01,0.02 -0.03,0.04 -0.05,0.06 -0.02,0.01 -0.04,0.02 -0.07,0.02 h -2.11 v 2.25 h 2.5 c 0.03,0 0.05,0.01 0.07,0.02 0.02,0.01 0.04,0.03 0.06,0.06 0.02,0.03 0.03,0.06 0.03,0.11 0,0.05 0,0.12 0,0.19 z"
   id="path88" />
			<path
   class="st0"
   d="m 349.88,443.68 c 0,0.3 -0.05,0.56 -0.16,0.79 -0.11,0.23 -0.26,0.43 -0.45,0.59 -0.19,0.16 -0.42,0.28 -0.68,0.36 -0.26,0.08 -0.54,0.12 -0.84,0.12 -0.21,0 -0.41,-0.02 -0.59,-0.05 -0.18,-0.03 -0.34,-0.08 -0.48,-0.13 -0.14,-0.05 -0.26,-0.11 -0.36,-0.16 -0.1,-0.06 -0.16,-0.1 -0.2,-0.14 -0.04,-0.04 -0.06,-0.09 -0.08,-0.15 -0.02,-0.06 -0.03,-0.14 -0.03,-0.24 0,-0.07 0,-0.13 0.01,-0.18 0.01,-0.05 0.02,-0.08 0.03,-0.11 0.01,-0.03 0.03,-0.05 0.05,-0.06 0.02,-0.01 0.04,-0.02 0.07,-0.02 0.05,0 0.11,0.03 0.19,0.08 0.08,0.06 0.19,0.12 0.32,0.18 0.13,0.06 0.29,0.13 0.47,0.18 0.18,0.06 0.4,0.08 0.64,0.08 0.18,0 0.35,-0.02 0.5,-0.07 0.15,-0.05 0.28,-0.12 0.39,-0.21 0.11,-0.09 0.19,-0.2 0.25,-0.33 0.06,-0.13 0.09,-0.28 0.09,-0.44 0,-0.18 -0.04,-0.33 -0.12,-0.46 -0.08,-0.13 -0.19,-0.24 -0.32,-0.33 -0.13,-0.09 -0.28,-0.18 -0.46,-0.26 -0.17,-0.08 -0.34,-0.16 -0.52,-0.24 -0.18,-0.08 -0.35,-0.17 -0.52,-0.27 -0.17,-0.1 -0.32,-0.22 -0.45,-0.36 -0.13,-0.14 -0.24,-0.3 -0.32,-0.48 -0.08,-0.18 -0.12,-0.4 -0.12,-0.66 0,-0.26 0.05,-0.5 0.14,-0.7 0.09,-0.2 0.23,-0.38 0.4,-0.52 0.17,-0.14 0.37,-0.25 0.61,-0.32 0.24,-0.07 0.49,-0.11 0.76,-0.11 0.14,0 0.28,0.01 0.42,0.04 0.14,0.02 0.27,0.06 0.4,0.1 0.13,0.04 0.24,0.09 0.33,0.14 0.1,0.05 0.16,0.09 0.19,0.12 0.03,0.03 0.05,0.06 0.06,0.07 0.01,0.02 0.02,0.04 0.02,0.07 0.01,0.03 0.01,0.06 0.01,0.1 0,0.04 0,0.09 0,0.15 0,0.06 0,0.11 -0.01,0.16 -0.01,0.05 -0.01,0.08 -0.02,0.11 -0.01,0.03 -0.02,0.05 -0.04,0.07 -0.02,0.01 -0.04,0.02 -0.06,0.02 -0.04,0 -0.09,-0.02 -0.17,-0.07 -0.08,-0.05 -0.17,-0.1 -0.28,-0.15 -0.11,-0.06 -0.24,-0.11 -0.39,-0.16 -0.15,-0.05 -0.32,-0.07 -0.51,-0.07 -0.18,0 -0.33,0.02 -0.46,0.07 -0.13,0.05 -0.24,0.11 -0.32,0.19 -0.08,0.08 -0.15,0.17 -0.19,0.28 -0.04,0.11 -0.06,0.22 -0.06,0.34 0,0.18 0.04,0.33 0.12,0.45 0.08,0.12 0.19,0.24 0.32,0.34 0.13,0.1 0.29,0.19 0.46,0.27 0.17,0.08 0.35,0.16 0.53,0.25 0.18,0.08 0.35,0.17 0.53,0.27 0.17,0.1 0.33,0.22 0.46,0.35 0.13,0.13 0.24,0.29 0.33,0.48 0.07,0.16 0.11,0.38 0.11,0.63 z"
   id="path90" />
			<path
   class="st0"
   d="m 300.92,455.31 c 0,0.3 -0.05,0.56 -0.16,0.79 -0.11,0.23 -0.26,0.43 -0.45,0.59 -0.19,0.16 -0.42,0.28 -0.68,0.36 -0.26,0.08 -0.54,0.12 -0.84,0.12 -0.21,0 -0.41,-0.02 -0.59,-0.05 -0.18,-0.03 -0.34,-0.08 -0.48,-0.13 -0.14,-0.05 -0.26,-0.11 -0.36,-0.16 -0.1,-0.06 -0.16,-0.1 -0.2,-0.14 -0.04,-0.04 -0.06,-0.09 -0.08,-0.15 -0.02,-0.06 -0.03,-0.14 -0.03,-0.24 0,-0.07 0,-0.13 0.01,-0.18 0.01,-0.05 0.02,-0.08 0.03,-0.11 0.01,-0.03 0.03,-0.05 0.05,-0.06 0.02,-0.01 0.04,-0.02 0.07,-0.02 0.05,0 0.11,0.03 0.19,0.08 0.08,0.06 0.19,0.12 0.32,0.18 0.13,0.06 0.29,0.13 0.47,0.18 0.18,0.06 0.4,0.08 0.64,0.08 0.18,0 0.35,-0.02 0.5,-0.07 0.15,-0.05 0.28,-0.12 0.39,-0.21 0.11,-0.09 0.19,-0.2 0.25,-0.33 0.06,-0.13 0.09,-0.28 0.09,-0.44 0,-0.18 -0.04,-0.33 -0.12,-0.46 -0.08,-0.13 -0.19,-0.24 -0.32,-0.33 -0.13,-0.09 -0.28,-0.18 -0.46,-0.26 -0.17,-0.08 -0.34,-0.16 -0.52,-0.24 -0.18,-0.08 -0.35,-0.17 -0.52,-0.27 -0.17,-0.1 -0.32,-0.22 -0.45,-0.36 -0.13,-0.14 -0.24,-0.3 -0.32,-0.48 -0.08,-0.18 -0.12,-0.4 -0.12,-0.66 0,-0.26 0.05,-0.5 0.14,-0.7 0.09,-0.2 0.23,-0.38 0.4,-0.52 0.17,-0.14 0.37,-0.25 0.61,-0.32 0.24,-0.07 0.49,-0.11 0.76,-0.11 0.14,0 0.28,0.01 0.42,0.04 0.14,0.02 0.27,0.06 0.4,0.1 0.13,0.04 0.24,0.09 0.33,0.14 0.1,0.05 0.16,0.09 0.19,0.12 0.03,0.03 0.05,0.06 0.06,0.07 0.01,0.02 0.02,0.04 0.02,0.07 0.01,0.03 0.01,0.06 0.01,0.1 0,0.04 0,0.09 0,0.15 0,0.06 0,0.11 -0.01,0.16 -0.01,0.05 -0.01,0.08 -0.02,0.11 -0.01,0.03 -0.02,0.05 -0.04,0.07 -0.02,0.01 -0.04,0.02 -0.06,0.02 -0.04,0 -0.09,-0.02 -0.17,-0.07 -0.08,-0.05 -0.17,-0.1 -0.28,-0.15 -0.11,-0.06 -0.24,-0.11 -0.39,-0.16 -0.15,-0.05 -0.32,-0.07 -0.51,-0.07 -0.18,0 -0.33,0.02 -0.46,0.07 -0.13,0.05 -0.24,0.11 -0.32,0.19 -0.08,0.08 -0.15,0.17 -0.19,0.28 -0.04,0.11 -0.06,0.22 -0.06,0.34 0,0.18 0.04,0.33 0.12,0.45 0.08,0.12 0.19,0.24 0.32,0.34 0.13,0.1 0.29,0.19 0.46,0.27 0.17,0.08 0.35,0.16 0.53,0.25 0.18,0.08 0.35,0.17 0.53,0.27 0.17,0.1 0.33,0.22 0.46,0.35 0.13,0.13 0.24,0.29 0.33,0.48 0.07,0.17 0.11,0.38 0.11,0.63 z"
   id="path92" />
			<path
   class="st0"
   d="m 308.39,453.86 c 0,0.51 -0.06,0.97 -0.18,1.38 -0.12,0.41 -0.3,0.76 -0.54,1.04 -0.24,0.29 -0.54,0.51 -0.9,0.66 -0.36,0.15 -0.78,0.23 -1.26,0.23 -0.47,0 -0.88,-0.07 -1.23,-0.21 -0.35,-0.14 -0.63,-0.35 -0.86,-0.62 -0.23,-0.27 -0.39,-0.6 -0.5,-1 -0.11,-0.4 -0.17,-0.86 -0.17,-1.38 0,-0.5 0.06,-0.95 0.18,-1.35 0.12,-0.4 0.3,-0.75 0.54,-1.04 0.24,-0.28 0.54,-0.5 0.9,-0.66 0.36,-0.16 0.78,-0.23 1.26,-0.23 0.46,0 0.87,0.07 1.21,0.21 0.34,0.14 0.63,0.34 0.86,0.61 0.23,0.27 0.4,0.6 0.51,0.99 0.13,0.4 0.18,0.86 0.18,1.37 z m -0.88,0.05 c 0,-0.36 -0.03,-0.69 -0.09,-1 -0.06,-0.31 -0.17,-0.57 -0.32,-0.8 -0.15,-0.23 -0.34,-0.4 -0.59,-0.53 -0.25,-0.13 -0.55,-0.19 -0.91,-0.19 -0.36,0 -0.67,0.07 -0.91,0.2 -0.24,0.13 -0.45,0.32 -0.6,0.55 -0.15,0.23 -0.26,0.49 -0.33,0.8 -0.07,0.3 -0.1,0.62 -0.1,0.96 0,0.37 0.03,0.71 0.09,1.02 0.06,0.31 0.17,0.58 0.31,0.81 0.15,0.23 0.34,0.4 0.59,0.53 0.25,0.12 0.55,0.19 0.92,0.19 0.37,0 0.67,-0.07 0.92,-0.2 0.25,-0.14 0.45,-0.32 0.6,-0.55 0.15,-0.23 0.26,-0.5 0.33,-0.81 0.07,-0.31 0.09,-0.63 0.09,-0.98 z"
   id="path94" />
			<path
   class="st0"
   d="m 314.92,456.19 c 0,0.05 0,0.1 0,0.14 0,0.04 -0.01,0.07 -0.02,0.1 -0.01,0.03 -0.02,0.06 -0.03,0.08 -0.01,0.02 -0.04,0.05 -0.07,0.08 -0.03,0.03 -0.1,0.08 -0.2,0.15 -0.1,0.07 -0.23,0.13 -0.39,0.19 -0.15,0.06 -0.33,0.12 -0.53,0.16 -0.2,0.04 -0.42,0.07 -0.65,0.07 -0.41,0 -0.78,-0.07 -1.11,-0.2 -0.33,-0.14 -0.61,-0.34 -0.84,-0.6 -0.23,-0.27 -0.41,-0.59 -0.54,-0.99 -0.12,-0.39 -0.19,-0.84 -0.19,-1.35 0,-0.52 0.07,-0.99 0.2,-1.4 0.13,-0.41 0.32,-0.76 0.57,-1.04 0.24,-0.28 0.53,-0.5 0.87,-0.65 0.34,-0.15 0.72,-0.22 1.13,-0.22 0.18,0 0.36,0.02 0.53,0.05 0.17,0.03 0.33,0.08 0.48,0.13 0.15,0.05 0.28,0.11 0.39,0.18 0.11,0.07 0.19,0.12 0.24,0.17 0.04,0.04 0.07,0.08 0.09,0.1 0.01,0.02 0.02,0.05 0.03,0.08 0.01,0.03 0.01,0.07 0.02,0.11 0,0.04 0.01,0.09 0.01,0.15 0,0.06 0,0.12 -0.01,0.17 -0.01,0.05 -0.02,0.08 -0.03,0.11 -0.01,0.03 -0.03,0.05 -0.05,0.07 -0.02,0.02 -0.04,0.02 -0.07,0.02 -0.05,0 -0.11,-0.03 -0.19,-0.1 -0.08,-0.06 -0.19,-0.13 -0.32,-0.21 -0.13,-0.08 -0.29,-0.15 -0.47,-0.21 -0.18,-0.06 -0.41,-0.1 -0.66,-0.1 -0.28,0 -0.54,0.06 -0.77,0.17 -0.23,0.11 -0.43,0.28 -0.59,0.49 -0.16,0.22 -0.29,0.48 -0.38,0.8 -0.09,0.31 -0.13,0.67 -0.13,1.07 0,0.4 0.04,0.75 0.13,1.06 0.09,0.31 0.21,0.56 0.37,0.77 0.16,0.21 0.36,0.36 0.59,0.47 0.24,0.11 0.5,0.16 0.8,0.16 0.25,0 0.47,-0.03 0.66,-0.09 0.19,-0.06 0.35,-0.13 0.48,-0.21 0.13,-0.08 0.24,-0.15 0.33,-0.21 0.08,-0.06 0.15,-0.09 0.2,-0.09 0.02,0 0.04,0 0.06,0.01 0.02,0.01 0.03,0.03 0.04,0.06 0.01,0.03 0.02,0.07 0.02,0.11 0,0.04 0,0.11 0,0.19 z"
   id="path96" />
			<path
   class="st0"
   d="m 317.87,456.95 c 0,0.03 -0.01,0.05 -0.02,0.07 -0.01,0.02 -0.04,0.04 -0.07,0.05 -0.03,0.01 -0.08,0.02 -0.13,0.03 -0.05,0.01 -0.12,0.01 -0.2,0.01 -0.08,0 -0.14,0 -0.2,-0.01 -0.06,-0.01 -0.1,-0.02 -0.13,-0.03 -0.03,-0.01 -0.06,-0.03 -0.07,-0.05 -0.01,-0.02 -0.02,-0.04 -0.02,-0.07 v -6.05 c 0,-0.03 0.01,-0.05 0.02,-0.07 0.01,-0.02 0.04,-0.03 0.07,-0.05 0.03,-0.02 0.08,-0.02 0.13,-0.03 0.05,-0.01 0.12,-0.01 0.19,-0.01 0.08,0 0.15,0 0.2,0.01 0.05,0.01 0.1,0.02 0.13,0.03 0.03,0.01 0.06,0.03 0.07,0.05 0.01,0.02 0.02,0.04 0.02,0.07 v 6.05 z"
   id="path98" />
			<path
   class="st0"
   d="m 325.26,456.78 c 0.03,0.07 0.04,0.13 0.04,0.17 0,0.04 -0.01,0.08 -0.04,0.1 -0.03,0.02 -0.07,0.04 -0.13,0.04 -0.06,0.01 -0.14,0.01 -0.24,0.01 -0.1,0 -0.18,0 -0.24,-0.01 -0.06,-0.01 -0.11,-0.01 -0.14,-0.02 -0.03,-0.01 -0.05,-0.03 -0.07,-0.05 -0.02,-0.02 -0.03,-0.04 -0.04,-0.07 l -0.54,-1.53 h -2.62 l -0.52,1.51 c -0.01,0.03 -0.02,0.05 -0.04,0.08 -0.02,0.02 -0.04,0.04 -0.07,0.05 -0.03,0.01 -0.07,0.02 -0.13,0.03 -0.06,0.01 -0.13,0.01 -0.22,0.01 -0.09,0 -0.17,0 -0.23,-0.01 -0.06,-0.01 -0.1,-0.02 -0.13,-0.05 -0.02,-0.02 -0.04,-0.06 -0.03,-0.1 0,-0.04 0.02,-0.1 0.04,-0.17 l 2.11,-5.85 c 0.01,-0.04 0.03,-0.06 0.05,-0.09 0.02,-0.02 0.05,-0.04 0.09,-0.05 0.04,-0.01 0.09,-0.02 0.16,-0.03 0.06,0 0.14,-0.01 0.24,-0.01 0.1,0 0.19,0 0.26,0.01 0.07,0 0.12,0.01 0.17,0.03 0.04,0.01 0.07,0.03 0.1,0.06 0.02,0.02 0.04,0.05 0.05,0.09 z m -2.71,-5.16 v 0 l -1.09,3.14 h 2.19 z"
   id="path100" />
			<path
   class="st0"
   d="m 331.89,454.75 c 0,0.38 -0.06,0.72 -0.17,1.02 -0.11,0.3 -0.27,0.55 -0.48,0.76 -0.21,0.21 -0.46,0.37 -0.76,0.47 -0.3,0.11 -0.64,0.16 -1.02,0.16 -0.35,0 -0.66,-0.05 -0.95,-0.15 -0.29,-0.1 -0.53,-0.25 -0.74,-0.45 -0.21,-0.2 -0.36,-0.44 -0.47,-0.74 -0.11,-0.3 -0.17,-0.64 -0.17,-1.02 v -3.91 c 0,-0.03 0.01,-0.05 0.02,-0.07 0.01,-0.02 0.04,-0.03 0.07,-0.05 0.03,-0.01 0.07,-0.02 0.13,-0.03 0.05,-0.01 0.12,-0.01 0.2,-0.01 0.08,0 0.14,0 0.2,0.01 0.06,0.01 0.1,0.02 0.13,0.03 0.03,0.01 0.05,0.03 0.07,0.05 0.01,0.02 0.02,0.04 0.02,0.07 v 3.81 c 0,0.29 0.04,0.55 0.11,0.76 0.07,0.22 0.17,0.4 0.31,0.54 0.13,0.14 0.3,0.25 0.49,0.33 0.19,0.08 0.4,0.11 0.64,0.11 0.24,0 0.46,-0.04 0.65,-0.11 0.19,-0.07 0.35,-0.18 0.48,-0.32 0.13,-0.14 0.23,-0.32 0.3,-0.53 0.07,-0.21 0.1,-0.46 0.1,-0.74 v -3.85 c 0,-0.03 0.01,-0.05 0.02,-0.07 0.01,-0.02 0.04,-0.03 0.07,-0.05 0.03,-0.01 0.08,-0.02 0.13,-0.03 0.05,-0.01 0.12,-0.01 0.2,-0.01 0.08,0 0.14,0 0.2,0.01 0.05,0.01 0.1,0.02 0.13,0.03 0.03,0.01 0.05,0.03 0.07,0.05 0.01,0.02 0.02,0.04 0.02,0.07 z"
   id="path102" />
			<path
   class="st0"
   d="m 338.56,456.78 c 0.04,0.07 0.07,0.13 0.08,0.17 0.01,0.04 0,0.08 -0.03,0.1 -0.03,0.02 -0.08,0.04 -0.14,0.05 -0.07,0.01 -0.16,0.01 -0.27,0.01 -0.1,0 -0.19,0 -0.24,-0.01 -0.06,0 -0.1,-0.01 -0.14,-0.03 -0.03,-0.01 -0.06,-0.03 -0.08,-0.05 -0.02,-0.02 -0.03,-0.04 -0.05,-0.07 l -1.4,-2.51 -1.42,2.51 c -0.02,0.03 -0.03,0.05 -0.05,0.07 -0.02,0.02 -0.05,0.04 -0.08,0.05 -0.03,0.01 -0.08,0.02 -0.14,0.02 -0.06,0 -0.14,0.01 -0.23,0.01 -0.11,0 -0.19,0 -0.25,-0.01 -0.06,-0.01 -0.1,-0.02 -0.13,-0.05 -0.02,-0.02 -0.03,-0.06 -0.02,-0.1 0.01,-0.04 0.03,-0.1 0.08,-0.17 l 1.72,-2.9 -1.64,-2.8 c -0.04,-0.07 -0.06,-0.13 -0.08,-0.17 -0.02,-0.04 0,-0.08 0.02,-0.1 0.02,-0.02 0.07,-0.04 0.14,-0.05 0.07,-0.01 0.15,-0.01 0.27,-0.01 0.1,0 0.18,0 0.24,0.01 0.06,0 0.11,0.01 0.15,0.02 0.04,0.01 0.06,0.03 0.08,0.05 0.02,0.02 0.03,0.04 0.05,0.07 l 1.35,2.36 1.34,-2.36 c 0.02,-0.03 0.03,-0.05 0.05,-0.07 0.02,-0.02 0.04,-0.04 0.07,-0.05 0.03,-0.01 0.07,-0.02 0.13,-0.02 0.06,0 0.13,-0.01 0.22,-0.01 0.1,0 0.18,0 0.25,0.01 0.07,0.01 0.11,0.02 0.14,0.05 0.03,0.02 0.04,0.06 0.03,0.1 -0.01,0.04 -0.03,0.1 -0.07,0.17 l -1.64,2.78 z"
   id="path104" />
		</g>
	</g>
</g>
</svg>
