<svg xmlns="http://www.w3.org/2000/svg" width="271" height="280" viewBox="0 0 271 280">
  <g fill="none" fill-rule="evenodd" transform="translate(0 -1)">
    <path fill="#45BEA7" d="M25.2,26.51 C25.2,26.51 2.84217094e-14,29.41 2.84217094e-14,54.78 L2.84217094e-14,258.3 C2.84217094e-14,258.3 2.84217094e-14,283.67 25.2,280.76 L244.85,255.49 C244.85,255.49 270.05,252.58 270.05,227.21 L270.05,23.7 C270.05,23.7 270.05,-1.67 244.85,1.23 L25.2,26.51 Z"/>
    <path fill="#FAF2D0" d="M90.18,189.09 C90.7324927,189.003355 91.2931216,189.185986 91.6885679,189.581432 C92.0840141,189.976878 92.266645,190.537507 92.18,191.09 L92.18,198.5 C92.2577157,199.050616 92.0721539,199.605747 91.6789503,199.99895 C91.2857466,200.392154 90.7306165,200.577716 90.18,200.5 L58.3,200.5 C56.71,200.5 56.12,199.5 56.91,198.12 L74.97,166.37 C75.23,165.91 75.03,165.58 74.5,165.58 L62.88,165.49 C62.3330905,165.55118 61.7880526,165.360219 61.398917,164.971083 C61.0097815,164.581947 60.8188202,164.03691 60.88,163.49 L60.88,156.09 C60.8065761,155.540316 60.9935425,154.987817 61.3856797,154.59568 C61.7778169,154.203543 62.3303164,154.016576 62.88,154.09 L93.75,154.17 C95.34,154.17 95.94,155.17 95.14,156.55 L76.75,188.3 C76.49,188.77 76.69,189.1 77.22,189.1 L90.18,189.09 Z"/>
    <path fill="#FAF2D0" fill-rule="nonzero" d="M87.1 92.61C90.28 92.61 91.87 92.21 91.87 88.11 91.87 84.01 90.28 83.61 87.1 83.61L76.34 83.61C75.7903164 83.5365761 75.2378169 83.7235425 74.8456797 84.1156797 74.4535425 84.5078169 74.2665761 85.0603164 74.34 85.61L74.34 90.61C74.2788202 91.1569095 74.4697815 91.7019474 74.858917 92.091083 75.2480526 92.4802185 75.7930905 92.6711798 76.34 92.61L87.1 92.61zM86.71 72.23C98.48 72.23 103.24 77.23 103.24 88.11 103.24 98.99 98.48 103.99 86.71 103.99L76.34 103.99C75.7903164 103.916576 75.2378169 104.103543 74.8456797 104.49568 74.4535425 104.887817 74.2665761 105.440316 74.34 105.99L74.34 145.99C74.4221208 146.541553 74.2380036 147.099392 73.8436976 147.493698 73.4493916 147.888004 72.8915529 148.072121 72.34 147.99L62.99 147.99C62.4430905 148.05118 61.8980526 147.860219 61.508917 147.471083 61.1197815 147.081947 60.9288202 146.53691 60.99 145.99L60.99 74.29C60.9167729 73.7351716 61.1014471 73.1773367 61.4912815 72.7758073 61.8811159 72.3742778 62.43325 72.1732001 62.99 72.23L86.71 72.23zM117.85 172.55C117.85 167.46 117.52 164.35 112.62 164.35 107.72 164.35 107.39 167.46 107.39 172.55L107.39 182.09C107.39 187.19 107.73 190.3 112.62 190.3 117.51 190.3 117.85 187.19 117.85 182.09L117.85 172.55zM129.23 185.55C129.23 189.92 128.3 201.62 112.62 201.62 96.94 201.62 96.02 189.92 96.02 185.55L96.02 169.09C96.02 164.73 96.94 153.02 112.62 153.02 128.3 153.02 129.23 164.73 129.23 169.09L129.23 185.55z"/>
    <path fill="#FAF2D0" d="M173.16 168.65C173.16 164.28 174.08 152.57 189.76 152.57 203.65 152.57 205.97 161.71 206.3 166.86 206.436225 167.946016 205.674172 168.939804 204.59 169.09L197.11 170.74C195.79 171.01 195.06 170.41 194.93 169.02 194.67 165.85 193.54 164.02 189.77 164.02 184.88 164.02 184.54 167.13 184.54 172.23L184.54 184.63C184.54 189.72 187.68 193.46 192.54 193.46 197.4 193.46 197.77 190.36 197.77 187.11L193.93 187.11C193.38309 187.17118 192.838053 186.980219 192.448917 186.591083 192.059781 186.201947 191.86882 185.65691 191.93 185.11L191.93 179.82C191.856576 179.270316 192.043543 178.717817 192.43568 178.32568 192.827817 177.933543 193.380316 177.746576 193.93 177.82L207.16 177.82C207.711553 177.737879 208.269392 177.921996 208.663698 178.316302 209.058004 178.710608 209.242121 179.268447 209.16 179.82L209.16 188.75C209.16 193.11 208.23 204.82 192.55 204.82 176.87 204.82 173.15 192.48 173.15 188.12L173.16 168.65zM173.09 98.01C173.09 93.64 174.02 81.93 189.69 81.93 203.58 81.93 205.9 91.06 206.23 96.22 206.297557 96.7383405 206.153082 97.2620101 205.8293 97.6723839 205.505519 98.0827576 205.029834 98.3451059 204.51 98.4L197.04 100.09C195.71 100.36 194.98 99.76 194.85 98.38 194.59 95.2 193.46 93.38 189.69 93.38 184.8 93.38 184.47 96.49 184.47 101.58L184.47 128.38C184.47 133.48 187.6 137.22 192.47 137.22 197.34 137.22 197.7 134.11 197.7 130.87L193.89 130.87C193.344006 130.927294 192.801323 130.735068 192.413127 130.346873 192.024932 129.958677 191.832706 129.415994 191.89 128.87L191.89 123.58C191.816576 123.030316 192.003543 122.477817 192.39568 122.08568 192.787817 121.693543 193.340316 121.506576 193.89 121.58L207.11 121.58C207.662493 121.493355 208.223122 121.675986 208.618568 122.071432 209.014014 122.466878 209.196645 123.027507 209.11 123.58L209.11 132.51C209.11 136.88 208.18 148.58 192.5 148.58 176.82 148.58 173.1 136.24 173.1 131.88L173.09 98.01zM91.66 109.37C92.2124927 109.283355 92.7731216 109.465986 93.1685679 109.861432 93.5640141 110.256878 93.746645 110.817507 93.66 111.37L93.66 134.76C93.5988202 135.30691 93.7897815 135.851947 94.178917 136.241083 94.5680526 136.630219 95.1130905 136.82118 95.66 136.76L118.78 136.76C119.332493 136.673355 119.893122 136.855986 120.288568 137.251432 120.684014 137.646878 120.866645 138.207507 120.78 138.76L120.78 146.09C120.866645 146.642493 120.684014 147.203122 120.288568 147.598568 119.893122 147.994014 119.332493 148.176645 118.78 148.09L82.78 148.09C82.2340062 148.147294 81.6913231 147.955068 81.3031274 147.566873 80.9149317 147.178677 80.7227063 146.635994 80.78 146.09L80.78 111.35C80.7065761 110.800316 80.8935425 110.247817 81.2856797 109.85568 81.6778169 109.463543 82.2303164 109.276576 82.78 109.35L91.66 109.37z"/>
    <path fill="#F3ED6B" d="M128.73,148.09 C128.177507,148.176645 127.616878,147.994014 127.221432,147.598568 C126.825986,147.203122 126.643355,146.642493 126.73,146.09 L126.73,138.71 C126.656576,138.160316 126.843543,137.607817 127.23568,137.21568 C127.627817,136.823543 128.180316,136.636576 128.73,136.71 L151.59,136.71 C152.139684,136.783424 152.692183,136.596457 153.08432,136.20432 C153.476457,135.812183 153.663424,135.259684 153.59,134.71 L153.59,114.34 C153.65118,113.79309 153.460219,113.248053 153.071083,112.858917 C152.681947,112.469781 152.13691,112.27882 151.59,112.34 L141.59,112.34 C141.037507,112.426645 140.476878,112.244014 140.081432,111.848568 C139.685986,111.453122 139.503355,110.892493 139.59,110.34 L139.59,102.89 C139.516576,102.340316 139.703543,101.787817 140.09568,101.39568 C140.487817,101.003543 141.040316,100.816576 141.59,100.89 L151.59,100.89 C152.85,100.89 153.59,100.23 153.59,98.49 L153.59,96.65 C153.59,95.8 152.86,95.07 151.59,95.07 L136.81,95.07 C136.257507,95.156645 135.696878,94.9740141 135.301432,94.5785679 C134.905986,94.1831216 134.723355,93.6224927 134.81,93.07 L134.81,85.66 C134.81,84.34 135.47,83.66 136.81,83.26 L164.59,81.55 C165.751371,81.7504765 166.597396,82.7614761 166.59,83.94 L166.59,146.09 C166.667716,146.640616 166.482154,147.195747 166.08895,147.58895 C165.695747,147.982154 165.140616,148.167716 164.59,148.09 L128.73,148.09 Z"/>
    <path fill="#F3ED6B" d="M146.95,64.41 C147.502493,64.323355 148.063122,64.5059859 148.458568,64.9014321 C148.854014,65.2968784 149.036645,65.8575073 148.95,66.41 L149.37,74.82 C149.443424,75.3696836 149.256457,75.9221831 148.86432,76.3143203 C148.472183,76.7064575 147.919684,76.8934239 147.37,76.82 L121.89,78.5 C121.340316,78.4265761 120.787817,78.6135425 120.39568,79.0056797 C120.003543,79.3978169 119.816576,79.9503164 119.89,80.5 L119.89,99.03 C119.82882,99.5769095 120.019781,100.121947 120.408917,100.511083 C120.798053,100.900219 121.34309,101.09118 121.89,101.03 L132.89,101.03 C133.442493,100.943355 134.003122,101.125986 134.398568,101.521432 C134.794014,101.916878 134.976645,102.477507 134.89,103.03 L134.89,110.44 C134.963424,110.989684 134.776457,111.542183 134.38432,111.93432 C133.992183,112.326457 133.439684,112.513424 132.89,112.44 L121.89,112.44 C121.340316,112.366576 120.787817,112.553543 120.39568,112.94568 C120.003543,113.337817 119.816576,113.890316 119.89,114.44 L119.89,117.85 C119.82882,118.39691 120.019781,118.941947 120.408917,119.331083 C120.798053,119.720219 121.34309,119.91118 121.89,119.85 L145.59,119.85 C146.142493,119.763355 146.703122,119.945986 147.098568,120.341432 C147.494014,120.736878 147.676645,121.297507 147.59,121.85 L147.59,129.09 C147.676645,129.642493 147.494014,130.203122 147.098568,130.598568 C146.703122,130.994014 146.142493,131.176645 145.59,131.09 L110.12,131.09 C109.57309,131.15118 109.028053,130.960219 108.638917,130.571083 C108.249781,130.181947 108.05882,129.63691 108.12,129.09 L108.12,69.09 C108.046576,68.5403164 108.233543,67.9878169 108.62568,67.5956797 C109.017817,67.2035425 109.570316,67.0165761 110.12,67.09 L146.95,64.41 Z"/>
    <path fill="#FAF2D0" fill-rule="nonzero" d="M150.64,174.54 L147.26,174.54 C146.71217,174.553876 146.182644,174.342353 145.795145,173.954855 C145.407647,173.567356 145.196124,173.03783 145.21,172.49 L145.21,167.6 C145.196124,167.05217 145.407647,166.522644 145.795145,166.135145 C146.182644,165.747647 146.71217,165.536124 147.26,165.55 L150.64,165.55 C153.81,165.55 155.4,165.94 155.4,170.05 C155.4,174.16 153.81,174.54 150.64,174.54 Z M193.59,213.09 C193.47,212.09 192.96,211.69 192.18,211.69 C190.653782,211.634655 189.131612,211.497793 187.62,211.28 C180.782046,210.554358 174.623307,206.818789 170.82,201.09 C167.49,195.75 161.55,183.86 161.55,183.86 C161.404668,183.562134 161.488148,183.203172 161.75,183 C165.26,180.49 166.75,176.19 166.75,170 C166.75,159.15 161.98,154.12 150.21,154.12 L135.75,154.12 C135.20217,154.106124 134.672644,154.317647 134.285145,154.705145 C133.897647,155.092644 133.686124,155.62217 133.7,156.17 L133.7,198.37 C133.686124,198.91783 133.897647,199.447356 134.285145,199.834855 C134.672644,200.222353 135.20217,200.433876 135.75,200.42 L143.16,200.42 C143.70783,200.433876 144.237356,200.222353 144.624855,199.834855 C145.012353,199.447356 145.223876,198.91783 145.21,198.37 L145.21,187.97 C145.196124,187.42217 145.407647,186.892644 145.795145,186.505145 C146.182644,186.117647 146.71217,185.906124 147.26,185.92 L149.91,185.92 C150.129708,185.937603 150.327256,186.060605 150.44,186.25 C150.44,186.25 158.98,203.64 161.65,207.55 C168.767482,217.774427 180.756799,223.478193 193.18,222.55 C193.562782,222.550241 193.929211,222.394844 194.195123,222.119503 C194.461035,221.844161 194.603574,221.472541 194.59,221.09 L193.59,213.09 Z"/>
  </g>
</svg>
