<svg id="SPF_Justice" data-name="SPF Justice" xmlns="http://www.w3.org/2000/svg" viewBox="0 0 481.62 132.14"><defs><style>.cls-1{fill:#17417b;}.cls-10,.cls-12,.cls-2,.cls-4,.cls-5,.cls-8{fill:none;}.cls-2{stroke:#971638;}.cls-11,.cls-2,.cls-8,.cls-9{stroke-linecap:round;stroke-linejoin:round;}.cls-2,.cls-5{stroke-width:5.19px;}.cls-11,.cls-3,.cls-6{fill:#feffff;}.cls-11,.cls-12,.cls-3,.cls-4,.cls-8{stroke:#feffff;}.cls-10,.cls-12,.cls-3,.cls-4,.cls-5{stroke-miterlimit:10;}.cls-3{stroke-width:1.48px;}.cls-4,.cls-8{stroke-width:3.71px;}.cls-5{stroke:#9d1738;}.cls-7{fill:#fff;}.cls-9{fill:#1a3963;}.cls-10,.cls-9{stroke:#1a3963;}.cls-10,.cls-11,.cls-12,.cls-9{stroke-width:2.97px;}</style></defs><path class="cls-1" d="M169.13,48.78a5.89,5.89,0,0,1-2.47-1.92,5.07,5.07,0,0,1-.93-3h4a2.63,2.63,0,0,0,.82,1.82,2.9,2.9,0,0,0,2,.67,3.11,3.11,0,0,0,2.06-.63,2,2,0,0,0,.75-1.64,1.9,1.9,0,0,0-.51-1.37,3.71,3.71,0,0,0-1.27-.84c-.51-.2-1.21-.43-2.1-.68a21.47,21.47,0,0,1-3-1,5.14,5.14,0,0,1-1.94-1.58,4.43,4.43,0,0,1-.82-2.81,5.06,5.06,0,0,1,.83-2.89A5.24,5.24,0,0,1,168.93,31a8.41,8.41,0,0,1,3.42-.65,7.37,7.37,0,0,1,4.68,1.4,5.15,5.15,0,0,1,2,3.91h-4.11a2.14,2.14,0,0,0-.81-1.59,3.07,3.07,0,0,0-2-.63,2.63,2.63,0,0,0-1.75.56,2.06,2.06,0,0,0-.65,1.63,1.67,1.67,0,0,0,.49,1.24,3.87,3.87,0,0,0,1.23.81c.49.2,1.18.44,2.07.7a21.4,21.4,0,0,1,3,1.07,5.34,5.34,0,0,1,2,1.6,4.47,4.47,0,0,1,.83,2.81,5.23,5.23,0,0,1-.78,2.77,5.32,5.32,0,0,1-2.27,2,7.68,7.68,0,0,1-3.55.77A8.93,8.93,0,0,1,169.13,48.78Z" transform="translate(-11.59 -4.05)"/><path class="cls-1" d="M186.47,33.64v4.67h6.28v3h-6.28v4.94h7.08v3H182.73V30.6h10.82v3Z" transform="translate(-11.59 -4.05)"/><path class="cls-1" d="M206.82,49.26,202.71,42h-1.77v7.26h-3.73V30.62h7a8.24,8.24,0,0,1,3.68.76,5.37,5.37,0,0,1,2.29,2.06,5.68,5.68,0,0,1,.76,2.9,5.57,5.57,0,0,1-1.07,3.32,5.44,5.44,0,0,1-3.18,2l4.46,7.56Zm-5.88-10.07h3.13a3.13,3.13,0,0,0,2.27-.73,2.76,2.76,0,0,0,.74-2,2.63,2.63,0,0,0-.74-2,3.22,3.22,0,0,0-2.27-.71h-3.13Z" transform="translate(-11.59 -4.05)"/><path class="cls-1" d="M231.33,30.62l-6.84,18.64H220l-6.83-18.64h4l5.13,14.82,5.1-14.82Z" transform="translate(-11.59 -4.05)"/><path class="cls-1" d="M237.57,30.62V49.26h-3.74V30.62Z" transform="translate(-11.59 -4.05)"/><path class="cls-1" d="M241.86,35a8.9,8.9,0,0,1,3.39-3.39,10.14,10.14,0,0,1,10.29.38,8.42,8.42,0,0,1,3.29,4.44h-4.3a4.5,4.5,0,0,0-1.81-2,5.3,5.3,0,0,0-2.68-.66,5.53,5.53,0,0,0-2.9.76,5.2,5.2,0,0,0-2,2.15,7.08,7.08,0,0,0-.71,3.25,7.17,7.17,0,0,0,.71,3.25,5.22,5.22,0,0,0,2,2.16,5.53,5.53,0,0,0,2.9.76,5.21,5.21,0,0,0,2.68-.68,4.5,4.5,0,0,0,1.81-2h4.3a8.38,8.38,0,0,1-3.28,4.44,9.48,9.48,0,0,1-5.48,1.59,9.62,9.62,0,0,1-4.82-1.22,8.92,8.92,0,0,1-3.39-3.37,10.38,10.38,0,0,1,0-9.84Z" transform="translate(-11.59 -4.05)"/><path class="cls-1" d="M266,33.64v4.67h6.28v3H266v4.94h7.08v3H262.3V30.6h10.81v3Z" transform="translate(-11.59 -4.05)"/><path class="cls-1" d="M296.27,39.19a5.11,5.11,0,0,1-2.22,2.11,8,8,0,0,1-3.8.8h-3.13v7.16h-3.73V30.62h6.86a8.24,8.24,0,0,1,3.68.75,5.18,5.18,0,0,1,2.29,2.06,6,6,0,0,1,0,5.76Zm-3.89-.81a2.61,2.61,0,0,0,.75-2c0-1.82-1-2.72-3-2.72h-3v5.42h3A3.22,3.22,0,0,0,292.38,38.38Z" transform="translate(-11.59 -4.05)"/><path class="cls-1" d="M303.57,30.62V42.16a3.93,3.93,0,0,0,1,2.89,3.71,3.71,0,0,0,2.77,1,3.78,3.78,0,0,0,2.81-1,3.93,3.93,0,0,0,1-2.89V30.62h3.76V42.13a7.42,7.42,0,0,1-1,4,6.5,6.5,0,0,1-2.75,2.47,8.74,8.74,0,0,1-3.83.83,8.52,8.52,0,0,1-3.78-.83,6.32,6.32,0,0,1-2.68-2.47,7.68,7.68,0,0,1-1-4V30.62Z" transform="translate(-11.59 -4.05)"/><path class="cls-1" d="M331.92,41.28a4.56,4.56,0,0,1,1,2.93,4.79,4.79,0,0,1-.73,2.63,5,5,0,0,1-2.13,1.78,7.71,7.71,0,0,1-3.28.64h-8V30.62h7.69a8,8,0,0,1,3.27.62A4.63,4.63,0,0,1,331.8,33a4.39,4.39,0,0,1,.71,2.48,4.24,4.24,0,0,1-.87,2.72,4.55,4.55,0,0,1-2.31,1.55A4.17,4.17,0,0,1,331.92,41.28Zm-9.42-3h3.42a3.11,3.11,0,0,0,2.05-.6,2.11,2.11,0,0,0,.72-1.72,2.16,2.16,0,0,0-.72-1.74,3.06,3.06,0,0,0-2.05-.61H322.5Zm5.89,7.26a2.25,2.25,0,0,0,.76-1.81,2.34,2.34,0,0,0-.8-1.88,3.22,3.22,0,0,0-2.17-.68H322.5v5h3.76A3.21,3.21,0,0,0,328.39,45.57Z" transform="translate(-11.59 -4.05)"/><path class="cls-1" d="M339.93,46.3h6.14v3H336.2V30.62h3.73Z" transform="translate(-11.59 -4.05)"/><path class="cls-1" d="M352.46,30.62V49.26h-3.74V30.62Z" transform="translate(-11.59 -4.05)"/><path class="cls-1" d="M356.74,35a8.9,8.9,0,0,1,3.39-3.39A9.62,9.62,0,0,1,365,30.38a9.52,9.52,0,0,1,5.47,1.6,8.42,8.42,0,0,1,3.29,4.44h-4.3a4.54,4.54,0,0,0-1.8-2,5.36,5.36,0,0,0-2.69-.66,5.47,5.47,0,0,0-2.89.76,5.15,5.15,0,0,0-2,2.15,7.08,7.08,0,0,0-.71,3.25,7.17,7.17,0,0,0,.71,3.25,5.18,5.18,0,0,0,2,2.16,5.47,5.47,0,0,0,2.89.76,5.27,5.27,0,0,0,2.69-.68,4.54,4.54,0,0,0,1.8-2h4.3a8.41,8.41,0,0,1-3.27,4.44,10.21,10.21,0,0,1-10.31.37,8.92,8.92,0,0,1-3.39-3.37,10.38,10.38,0,0,1,0-9.84Z" transform="translate(-11.59 -4.05)"/><path class="cls-1" d="M395.31,30.62v3h-7.77v4.78h5.95v3h-5.95v7.88H383.8V30.62Z" transform="translate(-11.59 -4.05)"/><path class="cls-1" d="M402,33.64v4.67h6.28v3H402v4.94H409v3H398.22V30.6H409v3Zm4.46-6.89-6.14,2.81V26.89l6.14-3.18Z" transform="translate(-11.59 -4.05)"/><path class="cls-1" d="M424.37,31.77A8.29,8.29,0,0,1,427.81,35,9.77,9.77,0,0,1,429,40a9.6,9.6,0,0,1-1.22,4.9,8.28,8.28,0,0,1-3.44,3.24,11.1,11.1,0,0,1-5.17,1.15h-6.51V30.62h6.51A11.22,11.22,0,0,1,424.37,31.77Zm-.76,12.71a6.13,6.13,0,0,0,1.6-4.51,6.26,6.26,0,0,0-1.6-4.55,6,6,0,0,0-4.54-1.65h-2.65V46.08h2.65A6.13,6.13,0,0,0,423.61,44.48Z" transform="translate(-11.59 -4.05)"/><path class="cls-1" d="M435.83,33.64v4.67h6.28v3h-6.28v4.94h7.08v3H432.1V30.6h10.81v3Zm4.46-6.89-6.14,2.81V26.89l6.14-3.18Z" transform="translate(-11.59 -4.05)"/><path class="cls-1" d="M456.18,49.26,452.07,42h-1.76v7.26h-3.74V30.62h7a8.31,8.31,0,0,1,3.69.76,5.4,5.4,0,0,1,2.28,2.06,5.79,5.79,0,0,1-.31,6.22,5.45,5.45,0,0,1-3.17,2l4.45,7.56Zm-5.87-10.07h3.12a3.13,3.13,0,0,0,2.27-.73,2.73,2.73,0,0,0,.75-2,2.59,2.59,0,0,0-.75-2,3.22,3.22,0,0,0-2.27-.71h-3.12Z" transform="translate(-11.59 -4.05)"/><path class="cls-1" d="M475.38,45.71H468l-1.23,3.55H462.8l6.7-18.66h4.35l6.7,18.66H476.6Zm-1-3-2.7-7.8L469,42.72Z" transform="translate(-11.59 -4.05)"/><path class="cls-1" d="M487.07,46.3h6.14v3h-9.88V30.62h3.74Z" transform="translate(-11.59 -4.05)"/><path class="cls-1" d="M174.29,64.73V93.8q0,6-3.5,9.4t-9.37,3.35a13.39,13.39,0,0,1-9.59-3.44q-3.65-3.44-3.64-9.61h8.3a6.6,6.6,0,0,0,1.28,4.15,4.29,4.29,0,0,0,3.53,1.49,4.23,4.23,0,0,0,3.44-1.43,5.93,5.93,0,0,0,1.18-3.91V64.73Z" transform="translate(-11.59 -4.05)"/><path class="cls-1" d="M192.74,64.73V90.36c0,2.8.73,5,2.2,6.43A8.25,8.25,0,0,0,201.11,99a8.35,8.35,0,0,0,6.23-2.23c1.46-1.48,2.19-3.63,2.19-6.43V64.73h8.37V90.3a16.47,16.47,0,0,1-2.29,8.93,14.43,14.43,0,0,1-6.11,5.48,19.34,19.34,0,0,1-8.51,1.84,18.83,18.83,0,0,1-8.4-1.84,13.94,13.94,0,0,1-6-5.48,17.08,17.08,0,0,1-2.19-8.93V64.73Z" transform="translate(-11.59 -4.05)"/><path class="cls-1" d="M233,105.07a12.75,12.75,0,0,1-5.49-4.27,11.24,11.24,0,0,1-2.08-6.59h8.9a5.77,5.77,0,0,0,1.81,4,6.41,6.41,0,0,0,4.48,1.48,6.89,6.89,0,0,0,4.57-1.39,4.53,4.53,0,0,0,1.66-3.65,4.23,4.23,0,0,0-1.13-3,8,8,0,0,0-2.82-1.87,46.83,46.83,0,0,0-4.65-1.51,50,50,0,0,1-6.56-2.34,11.62,11.62,0,0,1-4.33-3.5,10,10,0,0,1-1.81-6.26,11.15,11.15,0,0,1,1.84-6.41,11.74,11.74,0,0,1,5.16-4.18,18.8,18.8,0,0,1,7.6-1.46q6.4,0,10.41,3.12A11.54,11.54,0,0,1,255,75.94h-9.14A4.73,4.73,0,0,0,244,72.41a6.82,6.82,0,0,0-4.48-1.4,5.76,5.76,0,0,0-3.88,1.25,4.51,4.51,0,0,0-1.46,3.62,3.75,3.75,0,0,0,1.1,2.76A8.44,8.44,0,0,0,238,80.42c1.09.45,2.62,1,4.6,1.57a48.18,48.18,0,0,1,6.58,2.37,11.89,11.89,0,0,1,4.39,3.56,9.88,9.88,0,0,1,1.84,6.23,11.68,11.68,0,0,1-1.72,6.17,12.2,12.2,0,0,1-5,4.54,17.19,17.19,0,0,1-7.89,1.69A19.62,19.62,0,0,1,233,105.07Z" transform="translate(-11.59 -4.05)"/><path class="cls-1" d="M291.41,64.73v6.7h-11v34.71h-8.3V71.43H261v-6.7Z" transform="translate(-11.59 -4.05)"/><path class="cls-1" d="M306.36,64.73v41.41h-8.31V64.73Z" transform="translate(-11.59 -4.05)"/><path class="cls-1" d="M315.88,74.43a19.65,19.65,0,0,1,7.54-7.54,21.35,21.35,0,0,1,10.7-2.7,21.11,21.11,0,0,1,12.17,3.56,18.58,18.58,0,0,1,7.29,9.85H344a9.89,9.89,0,0,0-4-4.45,11.74,11.74,0,0,0-6-1.48,12.24,12.24,0,0,0-6.44,1.69,11.52,11.52,0,0,0-4.39,4.77,17.41,17.41,0,0,0,0,14.45,11.51,11.51,0,0,0,4.39,4.81,12.33,12.33,0,0,0,6.44,1.69,11.56,11.56,0,0,0,6-1.52,10,10,0,0,0,4-4.48h9.55a18.44,18.44,0,0,1-7.26,9.88,21.12,21.12,0,0,1-12.2,3.53,21.35,21.35,0,0,1-10.7-2.7,19.75,19.75,0,0,1-7.54-7.5,23,23,0,0,1,0-21.86Z" transform="translate(-11.59 -4.05)"/><path class="cls-1" d="M369.6,71.43V81.81h13.95V88.4H369.6v11h15.73v6.77h-24V64.67h24v6.76Z" transform="translate(-11.59 -4.05)"/><path class="cls-2" d="M14.3,24,71.23,8.19,127.87,24s3.62,78-56.77,109.6C71.1,133.59,19.61,113.4,14.3,24Z" transform="translate(-11.59 -4.05)"/><path class="cls-1" d="M20.11,28.42l51.1-14.18,50.86,14.18s3.25,70-51,98.4C71.1,126.82,24.87,108.69,20.11,28.42Z" transform="translate(-11.59 -4.05)"/><polygon class="cls-3" points="56.98 127.16 58.48 29.21 60.54 29.21 61.71 127.16 56.98 127.16"/><line class="cls-4" x1="53.75" y1="32.95" x2="46.7" y2="120.5"/><line class="cls-4" x1="65.2" y1="32.95" x2="72.26" y2="120.5"/><path class="cls-5" d="M14.3,23.63,71.23,7.83l56.64,15.8s3.62,78-56.77,109.6C71.1,133.23,19.61,113,14.3,23.63Z" transform="translate(-11.59 -4.05)"/><polyline class="cls-6" points="65.2 32.6 61.83 10.59 57.15 10.59 53.61 32.6"/><circle class="cls-6" cx="59.36" cy="7.25" r="6.14"/><path class="cls-7" d="M70.94,6.28a5,5,0,1,1-5,5,5,5,0,0,1,5-5m0-2.23a7.26,7.26,0,1,0,7.26,7.26,7.26,7.26,0,0,0-7.26-7.26Z" transform="translate(-11.59 -4.05)"/><circle class="cls-1" cx="59.36" cy="7.25" r="3.14"/><path class="cls-6" d="M71,36" transform="translate(-11.59 -4.05)"/><path class="cls-6" d="M68.56,36" transform="translate(-11.59 -4.05)"/><path class="cls-8" d="M47.81,44.86a6,6,0,1,1-5.49-8.29" transform="translate(-11.59 -4.05)"/><path class="cls-8" d="M93.84,44.84a6,6,0,1,0,5.5-8.29" transform="translate(-11.59 -4.05)"/><line class="cls-8" x1="31.48" y1="32.52" x2="87.75" y2="32.5"/><path class="cls-9" d="M109.76,73.62H92.25C97.5,83.56,104.11,83.8,109.76,73.62Z" transform="translate(-11.59 -4.05)"/><polyline class="cls-10" points="98.17 69.57 89.53 53.3 80.67 69.57"/><path class="cls-11" d="M49.6,73.62H32.09C37.34,83.56,43.94,83.8,49.6,73.62Z" transform="translate(-11.59 -4.05)"/><polyline class="cls-12" points="38.01 69.57 29.37 53.3 20.5 69.57"/><path class="cls-11" d="M109.67,73.62H92.16C97.41,83.56,104,83.8,109.67,73.62Z" transform="translate(-11.59 -4.05)"/><polyline class="cls-12" points="98.08 69.57 89.44 53.3 80.58 69.57"/><polyline class="cls-6" points="65.2 35.31 61.83 11.34 57.15 11.34 53.61 35.31"/></svg>