<svg id="FOD_Justitie" data-name="FOD Justitie" xmlns="http://www.w3.org/2000/svg" viewBox="0 0 528.27 132.14"><defs><style>.cls-1{fill:#17417b;}.cls-10,.cls-12,.cls-2,.cls-4,.cls-5,.cls-8{fill:none;}.cls-2{stroke:#971638;}.cls-11,.cls-2,.cls-8,.cls-9{stroke-linecap:round;stroke-linejoin:round;}.cls-2,.cls-5{stroke-width:5.19px;}.cls-11,.cls-3,.cls-6{fill:#feffff;}.cls-11,.cls-12,.cls-3,.cls-4,.cls-8{stroke:#feffff;}.cls-10,.cls-12,.cls-3,.cls-4,.cls-5{stroke-miterlimit:10;}.cls-3{stroke-width:1.48px;}.cls-4,.cls-8{stroke-width:3.71px;}.cls-5{stroke:#9d1738;}.cls-7{fill:#fff;}.cls-9{fill:#1a3963;}.cls-10,.cls-9{stroke:#1a3963;}.cls-10,.cls-11,.cls-12,.cls-9{stroke-width:2.97px;}</style></defs><path class="cls-1" d="M172.71,30.62v3H165v4.78h6v3h-6v7.88h-3.74V30.62Z" transform="translate(-6.59 -4.05)"/><path class="cls-1" d="M179.36,33.64v4.67h6.28v3h-6.28v4.94h7.08v3H175.62V30.6h10.82v3Z" transform="translate(-6.59 -4.05)"/><path class="cls-1" d="M201.78,31.77A8.29,8.29,0,0,1,205.22,35,9.77,9.77,0,0,1,206.44,40a9.6,9.6,0,0,1-1.22,4.9,8.28,8.28,0,0,1-3.44,3.24,11.1,11.1,0,0,1-5.17,1.15H190.1V30.62h6.51A11.22,11.22,0,0,1,201.78,31.77ZM201,44.48a6.13,6.13,0,0,0,1.6-4.51,6.26,6.26,0,0,0-1.6-4.55,6.05,6.05,0,0,0-4.54-1.65h-2.65V46.08h2.65A6.15,6.15,0,0,0,201,44.48Z" transform="translate(-6.59 -4.05)"/><path class="cls-1" d="M213.24,33.64v4.67h6.28v3h-6.28v4.94h7.08v3H209.51V30.6h10.81v3Z" transform="translate(-6.59 -4.05)"/><path class="cls-1" d="M233.59,49.26,229.48,42h-1.77v7.26H224V30.62h7a8.31,8.31,0,0,1,3.69.76,5.4,5.4,0,0,1,2.28,2.06,5.79,5.79,0,0,1-.31,6.22,5.44,5.44,0,0,1-3.18,2l4.46,7.56Zm-5.88-10.07h3.13a3.13,3.13,0,0,0,2.27-.73,2.76,2.76,0,0,0,.74-2,2.63,2.63,0,0,0-.74-2,3.22,3.22,0,0,0-2.27-.71h-3.13Z" transform="translate(-6.59 -4.05)"/><path class="cls-1" d="M252.78,45.71h-7.42l-1.23,3.55h-3.92l6.7-18.66h4.35L258,49.26H254Zm-1-3-2.7-7.8-2.69,7.8Z" transform="translate(-6.59 -4.05)"/><path class="cls-1" d="M264.48,46.3h6.14v3h-9.88V30.62h3.74Z" transform="translate(-6.59 -4.05)"/><path class="cls-1" d="M277,33.64v4.67h6.27v3H277v4.94h7.07v3H273.26V30.6h10.81v3Z" transform="translate(-6.59 -4.05)"/><path class="cls-1" d="M298.2,48.22a9.16,9.16,0,0,1-3.47-3.41,10.06,10.06,0,0,1,0-9.82,9.16,9.16,0,0,1,3.47-3.41,10.09,10.09,0,0,1,9.62,0A9.18,9.18,0,0,1,311.27,35a10.13,10.13,0,0,1,0,9.82,9.14,9.14,0,0,1-3.46,3.41,10,10,0,0,1-9.61,0ZM306,45.35a5.22,5.22,0,0,0,2-2.18,7.14,7.14,0,0,0,.72-3.28,7,7,0,0,0-.72-3.27,5.14,5.14,0,0,0-2-2.15,6.26,6.26,0,0,0-5.94,0,5.06,5.06,0,0,0-2,2.15,7,7,0,0,0-.72,3.27,7.14,7.14,0,0,0,.72,3.28,5.14,5.14,0,0,0,2,2.18,6.18,6.18,0,0,0,5.94,0Z" transform="translate(-6.59 -4.05)"/><path class="cls-1" d="M332.32,30.62l-6.84,18.64h-4.54l-6.83-18.64h4l5.13,14.82,5.1-14.82Z" transform="translate(-6.59 -4.05)"/><path class="cls-1" d="M338.57,33.64v4.67h6.27v3h-6.27v4.94h7.07v3H334.83V30.6h10.81v3Z" transform="translate(-6.59 -4.05)"/><path class="cls-1" d="M358.91,49.26,354.8,42H353v7.26H349.3V30.62h7a8.28,8.28,0,0,1,3.69.76,5.4,5.4,0,0,1,2.28,2.06,5.58,5.58,0,0,1,.76,2.9A5.51,5.51,0,0,1,362,39.66a5.45,5.45,0,0,1-3.17,2l4.46,7.56ZM353,39.19h3.12a3.13,3.13,0,0,0,2.27-.73,2.73,2.73,0,0,0,.75-2,2.59,2.59,0,0,0-.75-2,3.22,3.22,0,0,0-2.27-.71H353Z" transform="translate(-6.59 -4.05)"/><path class="cls-1" d="M382.14,30.62V49.26H378.4V41.33h-8v7.93h-3.74V30.62h3.74v7.67h8V30.62Z" transform="translate(-6.59 -4.05)"/><path class="cls-1" d="M389.83,33.64v4.67h6.27v3h-6.27v4.94h7.07v3H386.09V30.6H396.9v3Z" transform="translate(-6.59 -4.05)"/><path class="cls-1" d="M404.3,30.62V49.26h-3.74V30.62Z" transform="translate(-6.59 -4.05)"/><path class="cls-1" d="M419.93,31.77A8.23,8.23,0,0,1,423.37,35,9.77,9.77,0,0,1,424.59,40a9.6,9.6,0,0,1-1.22,4.9,8.22,8.22,0,0,1-3.44,3.24,11.1,11.1,0,0,1-5.17,1.15h-6.51V30.62h6.51A11.22,11.22,0,0,1,419.93,31.77Zm-.76,12.71a6.09,6.09,0,0,0,1.6-4.51,6.22,6.22,0,0,0-1.6-4.55,6,6,0,0,0-4.54-1.65H412V46.08h2.64A6.13,6.13,0,0,0,419.17,44.48Z" transform="translate(-6.59 -4.05)"/><path class="cls-1" d="M430.58,48.78a5.89,5.89,0,0,1-2.47-1.92,5.07,5.07,0,0,1-.93-3h4a2.63,2.63,0,0,0,.82,1.82,2.9,2.9,0,0,0,2,.67,3.11,3.11,0,0,0,2.06-.63,2,2,0,0,0,.75-1.64,1.9,1.9,0,0,0-.51-1.37A3.71,3.71,0,0,0,435,41.9c-.51-.2-1.21-.43-2.1-.68a21.47,21.47,0,0,1-2.95-1A5.25,5.25,0,0,1,428,38.59a4.49,4.49,0,0,1-.81-2.81,5.06,5.06,0,0,1,.83-2.89A5.24,5.24,0,0,1,430.38,31a8.41,8.41,0,0,1,3.42-.65,7.37,7.37,0,0,1,4.68,1.4,5.15,5.15,0,0,1,2,3.91h-4.11a2.14,2.14,0,0,0-.81-1.59,3.07,3.07,0,0,0-2-.63,2.63,2.63,0,0,0-1.75.56,2.06,2.06,0,0,0-.65,1.63,1.67,1.67,0,0,0,.49,1.24,3.87,3.87,0,0,0,1.23.81c.49.2,1.18.44,2.07.7a21.4,21.4,0,0,1,3,1.07,5.34,5.34,0,0,1,2,1.6,4.47,4.47,0,0,1,.83,2.81,5.23,5.23,0,0,1-.78,2.77,5.32,5.32,0,0,1-2.27,2,7.68,7.68,0,0,1-3.55.77A8.93,8.93,0,0,1,430.58,48.78Z" transform="translate(-6.59 -4.05)"/><path class="cls-1" d="M455.86,31.77A8.25,8.25,0,0,1,459.31,35,9.76,9.76,0,0,1,460.52,40a9.6,9.6,0,0,1-1.21,4.9,8.25,8.25,0,0,1-3.45,3.24,11,11,0,0,1-5.16,1.15h-6.52V30.62h6.52A11.15,11.15,0,0,1,455.86,31.77Zm-.76,12.71A6.09,6.09,0,0,0,456.71,40a6.22,6.22,0,0,0-1.61-4.55,6,6,0,0,0-4.53-1.65h-2.65V46.08h2.65A6.11,6.11,0,0,0,455.1,44.48Z" transform="translate(-6.59 -4.05)"/><path class="cls-1" d="M467.33,30.62V49.26h-3.74V30.62Z" transform="translate(-6.59 -4.05)"/><path class="cls-1" d="M475,33.64v4.67h6.28v3H475v4.94h7.08v3H471.28V30.6H482.1v3Z" transform="translate(-6.59 -4.05)"/><path class="cls-1" d="M501.69,49.26H498l-8.47-12.79V49.26h-3.74V30.6h3.74L498,43.41V30.6h3.73Z" transform="translate(-6.59 -4.05)"/><path class="cls-1" d="M508.57,48.78a5.83,5.83,0,0,1-2.47-1.92,5.07,5.07,0,0,1-.94-3h4a2.58,2.58,0,0,0,.81,1.82,2.91,2.91,0,0,0,2,.67,3.06,3.06,0,0,0,2-.63,2,2,0,0,0,.75-1.64,1.9,1.9,0,0,0-.51-1.37A3.66,3.66,0,0,0,513,41.9c-.51-.2-1.21-.43-2.1-.68a21.47,21.47,0,0,1-2.95-1,5.1,5.1,0,0,1-2-1.58,4.49,4.49,0,0,1-.81-2.81,5.05,5.05,0,0,1,.82-2.89A5.33,5.33,0,0,1,508.37,31a8.33,8.33,0,0,1,3.41-.65,7.38,7.38,0,0,1,4.69,1.4,5.21,5.21,0,0,1,2,3.91h-4.11a2.15,2.15,0,0,0-.82-1.59,3,3,0,0,0-2-.63,2.63,2.63,0,0,0-1.75.56,2,2,0,0,0-.65,1.63,1.67,1.67,0,0,0,.49,1.24,3.87,3.87,0,0,0,1.23.81c.49.2,1.18.44,2.07.7a21.89,21.89,0,0,1,3,1.07,5.5,5.5,0,0,1,2,1.6,4.47,4.47,0,0,1,.82,2.81,5.22,5.22,0,0,1-.77,2.77,5.38,5.38,0,0,1-2.27,2,7.71,7.71,0,0,1-3.55.77A8.93,8.93,0,0,1,508.57,48.78Z" transform="translate(-6.59 -4.05)"/><path class="cls-1" d="M534.85,30.62v3h-5V49.26h-3.74V33.64h-5v-3Z" transform="translate(-6.59 -4.05)"/><path class="cls-1" d="M169.29,64.73V93.8q0,6-3.5,9.4t-9.37,3.35a13.39,13.39,0,0,1-9.59-3.44q-3.65-3.44-3.64-9.61h8.3a6.6,6.6,0,0,0,1.28,4.15,4.29,4.29,0,0,0,3.53,1.49,4.23,4.23,0,0,0,3.44-1.43,5.93,5.93,0,0,0,1.18-3.91V64.73Z" transform="translate(-6.59 -4.05)"/><path class="cls-1" d="M187.74,64.73V90.36c0,2.8.73,5,2.2,6.43A8.25,8.25,0,0,0,196.11,99a8.35,8.35,0,0,0,6.23-2.23c1.46-1.48,2.19-3.63,2.19-6.43V64.73h8.37V90.3a16.47,16.47,0,0,1-2.29,8.93,14.43,14.43,0,0,1-6.11,5.48,19.34,19.34,0,0,1-8.51,1.84,18.83,18.83,0,0,1-8.4-1.84,13.94,13.94,0,0,1-6-5.48,17.08,17.08,0,0,1-2.19-8.93V64.73Z" transform="translate(-6.59 -4.05)"/><path class="cls-1" d="M228,105.07a12.75,12.75,0,0,1-5.49-4.27,11.24,11.24,0,0,1-2.08-6.59h8.9a5.77,5.77,0,0,0,1.81,4,6.41,6.41,0,0,0,4.48,1.48,6.89,6.89,0,0,0,4.57-1.39,4.53,4.53,0,0,0,1.66-3.65,4.23,4.23,0,0,0-1.13-3,8,8,0,0,0-2.82-1.87,46.83,46.83,0,0,0-4.65-1.51,50,50,0,0,1-6.56-2.34,11.62,11.62,0,0,1-4.33-3.5,10,10,0,0,1-1.81-6.26,11.15,11.15,0,0,1,1.84-6.41,11.74,11.74,0,0,1,5.16-4.18,18.8,18.8,0,0,1,7.6-1.46q6.4,0,10.41,3.12A11.54,11.54,0,0,1,250,75.94h-9.14A4.73,4.73,0,0,0,239,72.41a6.82,6.82,0,0,0-4.48-1.4,5.76,5.76,0,0,0-3.88,1.25,4.51,4.51,0,0,0-1.46,3.62,3.75,3.75,0,0,0,1.1,2.76A8.44,8.44,0,0,0,233,80.42c1.09.45,2.62,1,4.6,1.57a48.18,48.18,0,0,1,6.58,2.37,11.89,11.89,0,0,1,4.39,3.56,9.88,9.88,0,0,1,1.84,6.23,11.68,11.68,0,0,1-1.72,6.17,12.2,12.2,0,0,1-5,4.54,17.19,17.19,0,0,1-7.89,1.69A19.62,19.62,0,0,1,228,105.07Z" transform="translate(-6.59 -4.05)"/><path class="cls-1" d="M286.41,64.73v6.7h-11v34.71h-8.3V71.43H256v-6.7Z" transform="translate(-6.59 -4.05)"/><path class="cls-1" d="M301.36,64.73v41.41h-8.31V64.73Z" transform="translate(-6.59 -4.05)"/><path class="cls-1" d="M338.32,64.73v6.7h-11v34.71H319V71.43h-11v-6.7Z" transform="translate(-6.59 -4.05)"/><path class="cls-1" d="M353.27,64.73v41.41H345V64.73Z" transform="translate(-6.59 -4.05)"/><path class="cls-1" d="M370.36,71.43V81.81H384.3V88.4H370.36v11h15.72v6.77h-24V64.67h24v6.76Z" transform="translate(-6.59 -4.05)"/><path class="cls-2" d="M9.3,24,66.23,8.19,122.87,24s3.62,78-56.77,109.6C66.1,133.59,14.61,113.4,9.3,24Z" transform="translate(-6.59 -4.05)"/><path class="cls-1" d="M15.11,28.42l51.1-14.18,50.86,14.18s3.25,70-51,98.4C66.1,126.82,19.87,108.69,15.11,28.42Z" transform="translate(-6.59 -4.05)"/><polygon class="cls-3" points="56.98 127.16 58.48 29.21 60.54 29.21 61.71 127.16 56.98 127.16"/><line class="cls-4" x1="53.75" y1="32.95" x2="46.7" y2="120.5"/><line class="cls-4" x1="65.2" y1="32.95" x2="72.26" y2="120.5"/><path class="cls-5" d="M9.3,23.63,66.23,7.83l56.64,15.8s3.62,78-56.77,109.6C66.1,133.23,14.61,113,9.3,23.63Z" transform="translate(-6.59 -4.05)"/><polyline class="cls-6" points="65.2 32.6 61.83 10.59 57.15 10.59 53.61 32.6"/><circle class="cls-6" cx="59.36" cy="7.25" r="6.14"/><path class="cls-7" d="M65.94,6.28a5,5,0,1,1-5,5,5,5,0,0,1,5-5m0-2.23a7.26,7.26,0,1,0,7.26,7.26,7.26,7.26,0,0,0-7.26-7.26Z" transform="translate(-6.59 -4.05)"/><circle class="cls-1" cx="59.36" cy="7.25" r="3.14"/><path class="cls-6" d="M66,36" transform="translate(-6.59 -4.05)"/><path class="cls-6" d="M63.56,36" transform="translate(-6.59 -4.05)"/><path class="cls-8" d="M42.81,44.86a6,6,0,1,1-5.49-8.29" transform="translate(-6.59 -4.05)"/><path class="cls-8" d="M88.84,44.84a6,6,0,1,0,5.5-8.29" transform="translate(-6.59 -4.05)"/><line class="cls-8" x1="31.48" y1="32.52" x2="87.75" y2="32.5"/><path class="cls-9" d="M104.76,73.62H87.25C92.5,83.56,99.11,83.8,104.76,73.62Z" transform="translate(-6.59 -4.05)"/><polyline class="cls-10" points="98.17 69.57 89.53 53.3 80.67 69.57"/><path class="cls-11" d="M44.6,73.62H27.09C32.34,83.56,38.94,83.8,44.6,73.62Z" transform="translate(-6.59 -4.05)"/><polyline class="cls-12" points="38.01 69.57 29.37 53.3 20.5 69.57"/><path class="cls-11" d="M104.67,73.62H87.16C92.41,83.56,99,83.8,104.67,73.62Z" transform="translate(-6.59 -4.05)"/><polyline class="cls-12" points="98.08 69.57 89.44 53.3 80.58 69.57"/><polyline class="cls-6" points="65.2 35.31 61.83 11.34 57.15 11.34 53.61 35.31"/></svg>